<svg xmlns="http://www.w3.org/2000/svg" xmlns:xlink="http://www.w3.org/1999/xlink" width="2009" height="1501" viewBox="0 0 2009 1501">
  <defs>
    <clipPath id="clip-path">
      <rect id="Rectangle_575" data-name="Rectangle 575" width="2009" height="1501" transform="translate(684 187)" fill="#fff" stroke="#707070" stroke-width="1"/>
    </clipPath>
    <clipPath id="clip-path-2">
      <rect id="Rectangle_574" data-name="Rectangle 574" width="2009" height="1334" transform="translate(0.318 -0.125)" fill="#fff"/>
    </clipPath>
  </defs>
  <g id="Mask_Group_27" data-name="Mask Group 27" transform="translate(-684 -187)" clip-path="url(#clip-path)">
    <g id="_11" data-name="11" transform="translate(683.682 354.125)" clip-path="url(#clip-path-2)">
      <path id="Path_1118" data-name="Path 1118" d="M104.537,7.275c-8.872,3.7-7.393,17.014-.739,31.808,0,.74.739,1.48.739,2.22s.74,1.48.74,2.219c7.394,14.056,16.266,23.672,25.142,19.974,8.129-3.7,7.39-17.014.739-31.809,0-.74-.739-1.479-.739-2.219s-.739-1.479-.739-2.219C121.542,13.193,112.671,3.576,104.537,7.275Z" transform="translate(787.895 51.905)" fill="#1b1b1b"/>
      <path id="Path_1119" data-name="Path 1119" d="M149.128.227c-9.616-2.219-19.961,18.493-29.577,46.6-.739,1.479-.739,2.959-1.478,4.438s-.739,2.959-1.478,4.438c-8.138,28.85-11.833,51.782-2.217,55.481,8.129,2.959,19.961-17.754,29.577-46.6.739-1.479.739-2.959,1.478-4.438s.739-2.959,1.478-4.439C155.778,26.118,158,2.446,149.128.227Z" transform="translate(870.479 0.512)" fill="#1b1b1b"/>
      <path id="Path_1120" data-name="Path 1120" d="M250.9,9.7c-3.695-8.877-33.272,0-68.76,15.534-1.478.74-3.695,1.479-5.173,2.219s-3.7,1.479-5.182,2.219C136.3,46.689,111.161,62.963,114.856,71.1s33.272,0,68.76-16.274c1.478-.74,3.695-1.48,5.173-2.22s3.7-1.48,5.182-2.22C229.46,34.113,254.594,17.839,250.9,9.7Z" transform="translate(917.322 49.477)" fill="#1b1b1b"/>
      <path id="Path_1121" data-name="Path 1121" d="M220.048,733.922c57.7-13.31,68.167-181.586,23.39-375.852S115.592,17.109,57.9,30.421-10.27,212.006,34.507,406.273,162.353,747.233,220.048,733.922Z" transform="translate(53.92 237.003)" fill="#1b1b1b"/>
      <path id="Path_1122" data-name="Path 1122" d="M114.806,50.826c.739-.739-1.479-5.178-8.873-11.835-3.7-2.959-8.133-7.4-15.526-10.356-6.654-2.959-16.266-6.658-26.618-3.7C52.7,27.155,43.086,35.293,36.432,45.648,29.038,55.266,24.6,67.1,20.165,80.417,12.032,106.308,7.6,135.9,6.117,169.185,2.42,235.762,8.335,314.913,23.862,402.2,32,445.848,42.347,490.972,57.134,537.575s32.533,93.947,56.932,141.291a470.311,470.311,0,0,0,33.273,54.743c12.57,17.014,25.878,34.029,45.841,48.078a60.377,60.377,0,0,0,20.7,10.355c7.394,2.965,16.266,3.7,25.139,2.226A52.719,52.719,0,0,0,262.682,783.9,66.271,66.271,0,0,0,278.209,766.9a141.772,141.772,0,0,0,17.005-37.733c3.7-12.571,5.915-25.149,8.133-37.725,3.7-24.411,4.437-48.822,4.437-72.495s-1.479-46.6-2.958-68.8c-8.133-88.769-26.617-165.7-45.841-228.579s-40.666-111.7-56.932-144.249-28.836-48.823-30.315-47.344c-5.176,1.48,32.533,71.015,66.544,196.77,17.005,62.878,33.273,139.071,39.927,224.881,2.957,42.9,3.7,88.768-2.958,134.632-1.479,11.1-4.437,22.932-7.394,34.027s-7.393,21.457-13.309,29.595c-5.915,8.877-12.57,14.049-19.963,14.788-7.394,1.478-17.006-2.217-25.878-8.138-14.788-10.355-27.357-25.152-38.448-40.679s-21.442-33.291-31.054-51.046C116.285,620.426,98.54,573.822,83.752,528.7S58.613,439.19,49.741,396.285C32,311.215,25.341,233.542,26.08,169.185c.739-31.809,3.7-61.4,9.612-85.07,2.958-11.836,7.394-22.932,12.569-31.069A40.009,40.009,0,0,1,66.746,36.032a30.637,30.637,0,0,1,19.963.74,91.3,91.3,0,0,1,14.788,7.4C109.631,48.608,114.066,51.566,114.806,50.826Z" transform="translate(40.464 191.067)" fill="#1b1b1b"/>
      <path id="Path_1123" data-name="Path 1123" d="M479.924,475.957c90.434-200.765,115.469-385.29,55.9-412.149S354.65,177.924,264.208,378.687,148.748,763.975,208.316,790.83,389.481,676.713,479.924,475.957Z" transform="translate(1409.802 484.929)" fill="#1b1b1b"/>
      <path id="Path_1124" data-name="Path 1124" d="M273.622,838.452c-.748-1.487-5.921,1.478-15.527,4.434-4.443,1.478-11.094,3.7-17.753,4.443s-14.779.739-22.178-3.7c-7.39-3.695-12.572-11.833-17.005-22.187-3.695-10.364-5.912-22.935-6.651-36.255-1.478-27.369,1.478-59.172,7.39-94.678,12.572-70.283,36.967-153.129,73.2-241.9a1412.745,1412.745,0,0,1,65.065-136.116c25.134-45.864,54.711-92.468,89.46-136.112a470.843,470.843,0,0,1,44.365-48.823c15.527-14.8,32.533-28.111,51.016-36.247,5.912-2.22,11.094-4.438,16.266-4.438a28.5,28.5,0,0,1,14.049,1.479c8.129,2.959,14.788,11.1,19.222,21.453s6.651,22.932,8.138,35.507a221.6,221.6,0,0,1,.739,38.466c-.739,25.891-4.443,51.042-9.616,75.454-4.434,24.411-10.355,48.083-17.005,71.754-25.882,92.468-60.631,171.621-92.425,235.236-64.326,128.716-120.515,196.034-116.82,198.99,1.478,1.478,17.744-14.049,42.148-45.861S447.37,639.462,482.12,575.1s70.986-143.5,99.076-237.454c6.66-23.671,13.311-48.083,18.492-73.234a538.173,538.173,0,0,0,10.346-79.153,267.882,267.882,0,0,0-.739-42.165c-1.478-14.055-3.695-28.85-9.607-43.644A73.9,73.9,0,0,0,586.377,78a55.05,55.05,0,0,0-22.926-15.535A69.291,69.291,0,0,0,536.1,59.5c-8.877.74-17.005,3.7-24.4,6.658-23.656,10.356-42.139,25.89-59.884,41.425a521.879,521.879,0,0,0-47.321,51.782c-36.236,45.124-65.8,93.208-91.686,140.55A1174.153,1174.153,0,0,0,247.74,439.733c-36.228,90.983-59.154,175.316-69.5,247.807-5.182,36.246-6.66,69.535-3.7,99.13,1.478,14.788,4.443,28.847,9.616,40.679s14.05,22.935,25.143,27.378c11.085,5.173,21.439,3.695,29.568,1.478a62.51,62.51,0,0,0,18.483-8.138C269.918,843.625,273.622,839.191,273.622,838.452Z" transform="translate(1386.293 474.589)" fill="#1b1b1b"/>
      <path id="Path_1125" data-name="Path 1125" d="M311.748,122.747c4.434-.74,6.651-8.137,5.912-19.973a65.968,65.968,0,0,0-6.651-22.192c-4.443-8.138-12.571-17.014-23.665-21.453l-6.651-2.22c-2.217-.74-4.443-.74-6.66-1.479-11.084-1.48-20.7.739-28.09,2.219-7.4,2.22-14.05,4.438-19.231,5.918-10.346,4.438-15.527,7.4-15.527,12.575,0,4.439,7.4,7.4,19.231,7.4,11.823.74,27.351-2.22,39.922-.74a6.655,6.655,0,0,1,3.695.74c.739.74,2.217.74,2.956.74a38.581,38.581,0,0,1,12.572,8.877,73.858,73.858,0,0,1,8.877,14.055C302.871,117.569,307.305,124.227,311.748,122.747Z" transform="translate(1691.977 440.195)" fill="#1b1b1b"/>
      <path id="Path_1126" data-name="Path 1126" d="M597.375,68.31c-90.2,109.482-233.645-42.9-342.334-25.151C160.4,58.694,20.657,140.805,8.827,228.095,3.652,263.6,39.142,366.426,39.142,366.426,82.765,328.7,106.426,262.862,141.916,225.875S224.727,161.518,275,158.559c60.629-3.7,116.822,27.37,174.493,46.6s130.132,21.453,169.319-25.151" transform="translate(66.59 334.106)" fill="#fff"/>
      <path id="Path_1127" data-name="Path 1127" d="M625.588,184.984c-.739-.74-3.7,2.959-11.091,8.877-6.654,5.918-17.744,13.315-34.012,18.493s-36.968,8.138-61.368,5.918a256.247,256.247,0,0,1-38.448-5.918c-13.309-2.958-27.357-8.137-42.145-13.315-29.575-11.1-60.63-25.151-97.6-34.768-18.485-4.438-38.448-7.4-59.151-6.658-20.7,1.48-41.4,5.918-61.369,14.795a224.951,224.951,0,0,0-56.192,35.508,251.2,251.2,0,0,0-25.139,23.671c-8.133,8.878-14.787,18.494-21.442,28.111-12.57,19.973-24.4,39.946-37.708,59.919-6.655,10.356-13.31,19.973-21.443,28.85-2.218,2.22-3.7,4.438-5.914,6.658l-3.7,3.7C42.957,340.329,37.041,321.1,32.6,302.6s-8.872-37.726-10.351-56.959c-.739-11.1,1.479-22.193,5.915-33.289a175.889,175.889,0,0,1,17.006-30.329c13.309-18.493,30.315-34.768,48.06-48.822,35.49-28.111,74.677-48.823,113.864-63.618A291.17,291.17,0,0,1,264.771,54.05a119.135,119.135,0,0,1,28.1-.739,175.472,175.472,0,0,1,27.357,4.438c35.49,8.137,67.283,22.932,96.859,34.028s56.932,20.713,82.071,23.671c12.57,1.48,24.4,2.22,35.49.74,5.176-.74,10.352-2.219,15.527-2.959,4.437-1.48,9.612-2.959,13.309-5.178a110.26,110.26,0,0,0,33.273-23.672c5.914-7.4,8.872-11.1,8.133-11.1-.74-.74-3.7,2.959-10.352,8.877a112.813,112.813,0,0,1-33.272,20.713c-3.7,1.479-8.133,2.219-12.57,3.7-4.436.74-9.612,2.22-14.787,2.22a128.36,128.36,0,0,1-33.273-1.48c-23.66-3.7-50.278-13.315-79.853-25.151-29.575-11.1-61.369-25.891-98.338-35.508-8.872-2.22-19.224-3.7-28.836-5.178a146.465,146.465,0,0,0-31.054.74c-20.7,2.959-40.666,8.877-60.629,15.535C162,72.544,121.331,93.257,84.361,122.106,65.877,136.9,48.132,153.175,33.345,173.888,25.951,184.245,19.3,195.341,14.86,207.176A178.582,178.582,0,0,0,8.945,225.67c-1.479,5.917-1.479,14.055-1.479,19.973,1.479,21.452,5.915,39.946,11.091,59.919,5.176,19.233,10.351,37.726,17.006,57.7l5.915,17.754.739,2.219v.74l.74-.74,3.7-2.959,6.654-5.918L57,371.4l2.958-2.96,2.958-3.7a66.669,66.669,0,0,0,6.654-7.4c8.133-9.617,15.527-19.973,22.182-29.59,13.309-19.973,25.138-40.686,37.708-59.919A178.8,178.8,0,0,1,149.427,241.2c7.394-8.137,15.527-15.534,23.661-22.932a224.527,224.527,0,0,1,53.236-34.028,175.16,175.16,0,0,1,56.932-14.795c19.224-.74,37.708,1.479,55.453,5.178,35.49,8.137,67.284,22.192,96.859,32.548,14.788,5.178,29.575,9.617,43.624,13.316a268.9,268.9,0,0,0,39.927,5.178c25.139,1.479,47.32-2.22,63.587-8.878S610.8,202,616.716,195.341C623.37,189.423,625.588,185.723,625.588,184.984Z" transform="translate(59.818 328.395)" fill="#1b1b1b"/>
      <path id="Path_1128" data-name="Path 1128" d="M146.944,229.87c49.538,28.11,110.17,8.137,150.092-28.111,48.8-45.124,96.859-92.467,161.925-112.44,104.988-33.289,272.833-3.7,336.42,93.946L749.538,301.621c-38.444-33.284-75.42-63.614-121.263-85.805-45.834-21.453-99.815-31.069-148.614-15.535-57.667,18.493-99.815,67.317-146.4,105.044-47.321,37.723-114.6,65.84-167.1,36.245" transform="translate(1177.29 610.475)" fill="#fff"/>
      <path id="Path_1129" data-name="Path 1129" d="M166.166,347.59c0,.739,3.695,3.695,11.833,7.4a98.4,98.4,0,0,0,39.922,8.138c17.744,0,39.931-4.443,62.849-14.8A209.324,209.324,0,0,0,316.258,329.1c11.833-8.138,24.4-17.753,36.228-27.369,24.4-20.715,48.8-44.387,79.115-65.1,15.527-10.356,31.794-19.233,50.277-24.411s38.453-8.138,58.415-6.658c40.67,2.22,82.81,18.493,121.254,42.905,19.231,11.835,37.714,26.63,56.2,41.425,4.434,3.7,8.868,7.4,14.049,11.839l8.129,7.4,6.66,5.912L750.277,318l1.478,1.478c.739,0,.739-1.478.739-1.478,5.173-14.058,11.093-28.854,17.005-42.909,7.4-18.493,14.049-36.986,21.439-55.48l5.182-14.055,2.956-6.658,1.478-3.7,1.478-3.7.739-1.48v-.74a.724.724,0,0,0-.739-.74c-3.695-5.178-7.39-9.617-11.094-14.795a41.075,41.075,0,0,0-4.434-5.918l-5.173-5.917c-8.877-9.617-18.483-17.754-28.1-25.891-5.173-3.7-10.354-7.4-15.527-10.356-5.173-3.7-11.094-5.918-16.266-9.617a289.764,289.764,0,0,0-67.282-26.631c-11.094-3.7-22.917-5.178-34.011-8.138-11.094-1.479-22.917-3.7-34.011-4.438-22.187-2.219-44.365-1.479-65.8,0a341.385,341.385,0,0,0-62.109,11.836c-19.961,5.918-37.706,14.795-53.972,24.411C371.717,132.326,345.1,156,322.179,177.45c-11.833,10.356-22.187,21.453-32.533,30.33a207.22,207.22,0,0,1-31.794,22.192C236.4,241.808,215.7,246.246,198.7,246.246a99.207,99.207,0,0,1-38.444-5.918c-8.138-2.959-12.572-5.178-13.311-4.438,0,0,3.695,3.7,11.823,7.4a93.639,93.639,0,0,0,39.931,8.878c17.744.74,39.922-3.7,62.849-14.795a222.581,222.581,0,0,0,34.011-22.193c11.094-9.617,21.439-19.233,33.272-29.589,23.656-20.713,49.538-43.645,81.332-61.4a274.283,274.283,0,0,1,51.755-22.931,364.422,364.422,0,0,1,59.154-11.1,365.925,365.925,0,0,1,63.587.74c11.084.739,21.439,2.959,32.533,4.438,11.084,2.219,22.178,4.438,32.533,7.4a297.8,297.8,0,0,1,64.326,25.151c5.173,2.959,10.346,5.178,15.527,8.877,5.173,2.959,9.607,6.658,14.788,9.617,8.868,7.4,18.483,14.795,26.612,23.671l5.182,5.178a41.015,41.015,0,0,1,4.434,5.918l6.651,8.877c-2.956,8.137-5.912,15.535-8.868,23.671-7.4,18.494-14.049,36.987-21.448,55.48-2.217,5.918-4.434,11.836-6.651,17.014l-2.956,8.877-5.182-4.438c-4.434-3.7-9.607-8.137-14.04-11.835-18.492-15.535-37.715-30.33-57.676-42.165-39.922-25.151-84.288-42.165-127.914-43.645a176.9,176.9,0,0,0-62.849,7.4c-19.961,6.658-37.705,16.274-53.233,26.631-31.055,21.453-56.2,46.6-79.115,67.316C335.48,304.685,324.4,314.3,312.563,321.7c-11.094,8.138-22.917,14.058-34.011,19.231-22.187,10.355-42.887,15.536-59.893,16.275s-30.316-2.217-38.444-5.173C170.6,349.068,166.166,347.59,166.166,347.59Z" transform="translate(1177.29 604.455)" fill="#1b1b1b"/>
      <path id="Path_1130" data-name="Path 1130" d="M266.953,412.011c-1.478-.74-2.965.74-5.182,3.7-2.217,2.22-5.173,6.658-8.868,9.617-4.434,2.959-8.138,2.959-14.049,0-5.912-3.7-12.571-10.356-19.222-19.233-13.31-17.753-25.882-42.165-38.453-70.275a765.381,765.381,0,0,1-33.272-96.166c-2.217-7.4-3.695-14.055-5.173-21.453-1.478-6.658-2.956-14.055-4.434-21.453-7.4-35.508-11.094-69.535-11.094-99.865,0-14.795,1.478-28.85,5.173-40.686,1.478-5.918,3.7-11.1,6.66-14.055s4.434-4.438,7.39-4.438c2.956-.74,6.66.74,10.355,2.959a97.121,97.121,0,0,1,11.094,7.4c6.651,5.178,11.824,11.1,16.266,15.535,8.868,9.617,14.04,14.795,16.266,13.315,1.478-.74,0-8.137-6.66-19.973-2.956-5.918-8.129-13.315-14.788-20.713a95.2,95.2,0,0,0-12.572-11.1c-5.173-3.7-11.823-7.4-20.7-7.4a29.026,29.026,0,0,0-13.311,2.959,43.069,43.069,0,0,0-11.084,8.137c-5.921,6.658-9.616,14.056-12.572,21.453-5.176,14.795-7.394,31.069-8.873,47.344q-2.218,49.932,8.873,106.522c1.478,7.4,2.956,14.795,5.173,22.193,1.478,7.4,3.695,14.795,5.921,22.192,10.346,36.247,22.917,70.275,36.966,99.126s29.577,54,46.582,73.234c8.868,8.877,17.744,17.014,28.838,21.453,5.173,2.219,11.823,2.958,17.005,1.48a21.086,21.086,0,0,0,11.823-8.138c5.182-6.657,5.921-11.835,6.66-15.535C268.431,414.23,267.692,412.011,266.953,412.011Z" transform="translate(797.019 142.054)" fill="#1b1b1b"/>
      <path id="Path_1131" data-name="Path 1131" d="M124.033,35.82c-8.868,2.959-11.085,10.356-8.868,19.233l.739,1.48v1.48c2.956,8.137,8.868,13.315,17.744,11.1s11.085-10.355,8.868-19.233l-.739-1.479v-1.48C138.821,38.779,132.17,32.862,124.033,35.82Z" transform="translate(916.274 280.788)" fill="#1b1b1b"/>
      <path id="Path_1132" data-name="Path 1132" d="M130.389,53.479c-9.616.739-13.31,8.877-13.31,19.233v2.959c.739,10.356,5.173,17.754,14.788,18.493,8.877,0,13.31-8.137,13.31-19.233V71.972C144.439,60.876,139.257,52.739,130.389,53.479Z" transform="translate(938.016 428.091)" fill="#1b1b1b"/>
      <path id="Path_1133" data-name="Path 1133" d="M118.916,81.1c0-.74-.739-.74-2.217-1.48a6.384,6.384,0,0,0-4.434,2.22c-2.956,2.959-4.434,7.4-5.912,13.315s-1.478,13.316-.739,21.453a41.935,41.935,0,0,0,2.217,13.316c.739,2.219,1.478,5.178,2.217,7.4.739,1.48.739,2.22,1.478,3.7s1.478,3.7,2.217,5.178c2.217,3.7,4.434,7.4,8.138,9.617a8.385,8.385,0,0,0,5.912,2.22c2.217,0,4.434-.74,6.651-.74a6.7,6.7,0,0,0,3.7-.74c1.478,0,2.217-.74,3.695-.74,1.478-.739,2.956-.739,4.434-1.479,2.956-.74,5.173-1.48,8.138-2.22,11.085-3.7,23.656-6.658,36.227-11.1,25.134-8.137,53.233-17.013,83.549-26.63,2.956-.74,5.912-2.22,8.877-2.959,3.695-1.48,8.129-2.959,11.823-5.178A49.29,49.29,0,0,0,311.9,86.282a49.382,49.382,0,0,0,2.217-32.548,45.272,45.272,0,0,0-18.483-25.151c-8.868-5.918-19.222-8.878-28.829-7.4-2.226,0-5.182.74-7.4.74l-3.695.74-2.217.74c-2.965.739-6.66,2.219-9.616,2.959C218.74,34.5,196.553,42.638,177.331,50.035,139.625,66.309,117.438,76.665,118.916,81.1s25.143,0,63.587-9.617c19.222-4.438,42.148-11.1,68.03-18.493,2.956-.74,6.651-1.48,9.607-2.959l2.217-.74H266.8c4.434,0,8.129,1.48,11.823,3.7,6.66,5.178,9.616,14.795,5.921,22.931a23.147,23.147,0,0,1-6.66,8.138,36.108,36.108,0,0,1-5.173,2.219c-2.956.74-5.912,2.22-8.877,2.959q-44.365,15.535-82.071,28.85-18.857,6.658-35.489,13.315c-2.956.74-5.173,2.22-8.129,2.959l-3.7,1.479c-.739,0-.739,0-.739.74-1.478,1.48-2.956,0-3.695-.74,0-.739,0,0-.739-1.479-.739-.74-.739-1.48-1.478-2.959-.739-2.219-1.478-3.7-2.217-5.918a65.132,65.132,0,0,1-3.695-11.1,115.088,115.088,0,0,1-3.7-18.494,73.225,73.225,0,0,1-.739-11.1A4.074,4.074,0,0,0,118.916,81.1Z" transform="translate(842.276 166.709)" fill="#1b1b1b"/>
      <path id="Path_1134" data-name="Path 1134" d="M124.084,92.91a1.59,1.59,0,0,0-1.478-1.48,6.384,6.384,0,0,0-4.434,2.22q-4.447,4.438-6.66,13.315a65.3,65.3,0,0,0-1.478,21.453,81.584,81.584,0,0,0,1.478,13.315c.739,2.22.739,5.178,1.478,7.4a5.655,5.655,0,0,0,1.478,3.7c.739,1.48,1.478,3.7,2.217,5.178,2.226,3.7,4.443,7.4,7.4,10.356,1.478,1.48,3.695,2.22,5.912,2.959a20.49,20.49,0,0,0,6.66-.74h3.695c1.478,0,2.217-.739,3.695-.739s2.956-.74,4.434-.74c2.965-.74,5.182-1.48,8.138-2.22,11.094-2.959,23.656-5.918,36.228-9.617,25.882-6.658,53.972-14.795,84.288-23.671a41.533,41.533,0,0,0,8.877-2.959c3.695-1.479,8.129-2.959,11.833-5.178,7.39-4.438,14.049-11.1,17.744-19.233a45.487,45.487,0,0,0,2.956-32.548A42.575,42.575,0,0,0,300.8,47.786c-8.138-5.918-18.483-8.878-28.838-8.878-2.217,0-5.173.74-7.39.74l-3.7.74-2.217.74c-2.956.74-6.651,2.22-9.607,2.959-25.143,7.4-48.06,14.8-67.291,20.713-36.228,14.056-59.145,23.672-57.667,28.111s25.134,1.48,64.326-6.658c19.222-3.7,42.887-9.617,68.76-15.535,2.956-.74,6.66-1.48,9.616-2.219l2.217-.74h4.434A18.128,18.128,0,0,1,285.27,72.2c6.651,5.178,9.607,15.535,5.173,23.671-1.478,2.959-3.695,5.918-6.651,7.4a35.737,35.737,0,0,1-5.182,2.219,41.626,41.626,0,0,0-8.868,2.959c-29.577,8.877-57.676,17.753-83.549,25.891-12.571,4.438-24.4,8.137-35.489,11.835-2.965.74-5.182,2.22-8.138,2.959l-3.695,1.479c-.739,0-.739,0-.739.74-1.478,1.48-2.956,0-3.695-1.479,0-.74,0,0-.739-1.48-.748-.74-.748-2.22-1.487-2.959-.739-2.219-1.478-3.7-2.217-5.917a61.706,61.706,0,0,1-2.956-11.1c-1.478-7.4-2.217-13.316-2.956-18.494s0-8.877,0-11.1C123.345,95.129,124.084,94.39,124.084,92.91Z" transform="translate(879.256 311.727)" fill="#1b1b1b"/>
      <path id="Path_1135" data-name="Path 1135" d="M183.411,19.414c-.739-2.219-7.4-1.479-19.222,2.22a214.419,214.419,0,0,0-20.706,6.657c-3.7,1.48-8.133,2.959-12.57,4.439h-.74l-1.479.739c-.739.74-2.218.74-2.957,1.48-1.479.74-2.219,2.22-3.7,2.96-2.957,2.219-4.436,4.438-6.654,6.657C107.252,54.922,102.816,67.5,99.119,80.813c-2.958,13.316-4.436,27.371-5.176,42.165-.739,29.589,2.958,62.138,9.612,95.426l4.436,19.973a198.5,198.5,0,0,0,5.176,19.973c18.484,65.837,43.623,121.317,70.244,156.825,13.31,17.754,26.612,30.329,39.922,35.507a33,33,0,0,0,16.266,1.48c3.695-1.48,4.434-2.959,4.434-4.438a12.026,12.026,0,0,0-4.434-2.22,24.732,24.732,0,0,1-9.607-5.178c-8.138-5.918-18.492-18.493-28.1-36.247-20.7-35.508-42.887-89.508-59.891-152.386a185.272,185.272,0,0,0-5.176-19.233c-1.478-6.657-2.957-12.575-4.436-19.233-6.654-31.809-11.091-62.878-11.091-89.508,0-13.316,0-26.631,2.218-37.727,1.479-11.1,5.176-21.453,9.612-28.11.74-1.48,2.219-3.7,3.7-4.438l1.479-2.22.74-.74.739-.74c4.437-2.219,8.133-4.438,11.833-6.657,7.39-4.439,13.31-8.138,18.483-11.1C178.968,26.072,184.15,21.634,183.411,19.414Z" transform="translate(751.909 145.547)" fill="#1b1b1b"/>
      <path id="Path_1136" data-name="Path 1136" d="M289.871,25.407c-.74-2.219-10.352-1.48-25.878,2.22-8.133,1.479-17.745,4.438-29.576,7.4-5.914,1.48-11.83,2.959-18.484,5.178-2.958.74-6.654,1.48-9.612,2.959-3.7,1.479-7.393,2.219-11.091,3.7-7.393,2.219-14.787,6.658-22.921,10.356-7.393,4.438-15.526,8.877-22.921,14.795a193.86,193.86,0,0,0-42.145,42.9c-12.57,17.754-22.182,38.467-28.836,60.66-5.914,22.931-8.872,47.343-5.914,73.234.739,5.178.739,10.356,2.218,14.795A104.844,104.844,0,0,1,77.669,278.4c1.479,4.438,2.958,9.617,4.436,14.055a80.153,80.153,0,0,0,5.915,14.056,194.613,194.613,0,0,0,42.145,59.919,204.879,204.879,0,0,0,55.453,37.726c19.224,8.878,39.188,13.316,58.411,15.535,18.485,2.22,36.23.74,51.757-1.479a344.043,344.043,0,0,0,39.927-10.356c11.094-2.959,20.7-6.658,28.838-8.878,15.527-5.178,24.4-9.617,23.656-11.835s-9.607-2.22-25.873,0a289.36,289.36,0,0,0-29.577,4.438c-11.832,2.219-25.14,4.438-39.189,5.918-14.049.74-29.575,1.479-45.841-1.48s-33.273-7.4-50.278-15.535c-33.273-16.274-65.065-45.864-82.811-85.81-1.479-3.7-3.7-8.137-5.176-11.836l-3.7-12.575c-1.479-4.438-1.479-8.138-2.958-12.576-.739-4.438-1.479-8.877-2.218-12.575-5.175-43.645,7.393-85.07,27.357-116.139,10.351-15.535,22.181-28.85,35.49-39.207,5.914-5.917,13.309-9.617,19.224-14.055,6.654-3.7,13.309-8.137,19.223-10.356,2.958-1.479,6.655-2.959,9.612-4.438s6.654-2.219,9.612-3.7c5.915-2.22,11.831-5.178,17.745-7.4,11.091-4.438,19.964-8.137,28.1-11.835C282.477,32.065,290.61,27.626,289.871,25.407Z" transform="translate(571.508 193.555)" fill="#1b1b1b"/>
      <path id="Path_1137" data-name="Path 1137" d="M111.284,74.108c2.218,4.438,3.7,10.356,5.176,15.535,6.654,28.11,13.309,55.48,19.963,83.591q5.546,25.52,13.309,51.041c5.915,19.234,13.31,38.467,20.7,57.7,8.873,22.932,17.745,45.864,31.053,66.577,12.571,20.713,29.577,39.946,51.016,51.042,1.478-8.137-5.173-15.535-9.607-22.193-5.921-8.137-8.877-18.493-13.31-28.11s-10.355-18.494-19.961-22.932c-.739-11.1-5.182-21.452-9.616-31.068-8.132-18.494-16.266-36.247-24.4-54.741a45.342,45.342,0,0,1-3.7-8.877,42.223,42.223,0,0,1-.739-9.617,219.523,219.523,0,0,0-2.219-31.069c-1.479-9.617-3.7-19.973-5.176-29.589-2.958-15.535-5.915-30.329-8.872-45.864a189.408,189.408,0,0,1-3.7-19.973c-2.957-19.973.74-52.522,4.437-72.495,0,5.178-29.575,17.014-33.272,17.754-11.091,2.959-22.922,11.835-34.012,13.315C95.018,60.793,106.108,63.752,111.284,74.108Z" transform="translate(707.95 184.8)" fill="#1b1b1b"/>
      <path id="Path_1138" data-name="Path 1138" d="M140.016,491.337c-.739.739-.739,3.695,1.478,8.877,1.478,2.217,2.956,5.921,5.912,8.877a25.519,25.519,0,0,0,14.788,7.4c6.66.739,14.049-2.226,19.97-6.66s10.346-9.616,15.527-16.276c8.868-12.571,16.266-27.369,22.917-45.122,13.31-34.768,23.656-76.934,29.577-125.76s7.39-103.56-2.217-161.26a301.861,301.861,0,0,0-8.877-34.768c-3.695-11.1-8.129-22.932-17.744-34.768A67.99,67.99,0,0,0,210.993,81.52c-4.434-2.959-9.607-5.918-15.527-6.658s-12.562,0-17.005,2.22c-5.173,2.22-9.607,4.438-12.562,7.4-14.049,11.835-20.709,25.151-26.621,37.726-11.833,25.891-18.483,51.042-23.665,75.453-9.607,48.083-11.823,92.468-11.823,128.717,1.478,73.23,15.527,116.135,19.961,114.657,4.434-.739-2.217-43.644.739-114.657a692.914,692.914,0,0,1,16.266-123.539c5.173-22.931,12.572-46.6,22.917-68.8,5.182-11.1,11.833-21.453,19.231-27.371,3.695-2.959,6.651-3.7,8.129-2.959,1.478,0,5.173,2.219,8.138,5.918,5.173,6.657,9.607,16.274,12.562,25.89s5.921,19.974,7.4,31.069c9.607,53.262,8.868,106.523,4.434,153.126s-12.572,88.766-22.917,122.056c-5.182,16.275-11.094,31.073-17.744,42.166s-14.049,19.231-20.709,19.231c-6.651.739-12.562-5.173-16.266-8.138C143.71,492.076,141.493,490.6,140.016,491.337Z" transform="translate(831.531 597.562)" fill="#1b1b1b"/>
      <path id="Path_1139" data-name="Path 1139" d="M126.555,163.968c-.739.74-2.217,1.48-2.217,2.959a5.6,5.6,0,0,0,.739,2.959c.739.74,2.217,2.959,5.173,2.959,2.965.74,5.921-.739,7.4-1.479a10.628,10.628,0,0,1,2.217-1.48c.739-.74,1.478-1.48,2.217-1.48A33.1,33.1,0,0,0,148,160.269a78.034,78.034,0,0,0,7.39-22.193,97.286,97.286,0,0,0,.739-29.589c-.739-2.219-.739-4.438-2.217-7.4-.739-2.959-1.478-5.178-5.173-9.617-.739-1.479-2.226-2.219-4.443-3.7a5.6,5.6,0,0,0-2.956-1.479c-1.478-.74-2.956-.74-4.434-1.48-5.912-.74-11.832,2.219-14.049,3.7-5.173,4.438-5.912,7.4-7.39,10.356-2.226,5.918-3.7,10.356-4.443,14.795a78.758,78.758,0,0,0,0,22.932c2.217,12.575,7.4,19.973,11.833,18.493,4.434-.74,5.912-8.137,8.877-18.493,1.478-5.178,2.956-11.836,4.434-17.754a32.032,32.032,0,0,1,3.695-8.877c0-.74.739-.74.739-1.48l-1.478-1.48c-1.478-.739-2.217-2.219-2.956-2.959-1.478-2.22-2.217-3.7-1.478-3.7a7.959,7.959,0,0,1-2.956,3.7,16.237,16.237,0,0,1-3.7,2.22c-2.217,1.479-1.478.739-1.478.739a.724.724,0,0,0,.739.74c0,.74.739,2.22.739,3.7,2.965,14.055,1.478,30.329.739,39.946,0,2.219-.739,4.438-.739,5.917v1.48l.739.74c1.478,2.22,1.478,2.959,1.478,3.7a2.277,2.277,0,0,1,.748-1.479,2.618,2.618,0,0,1-1.487.739C128.033,163.228,127.294,163.228,126.555,163.968Z" transform="translate(882.697 678.595)" fill="#1b1b1b"/>
      <path id="Path_1140" data-name="Path 1140" d="M124.914,179.571c-.739.739-2.217,1.478-2.217,2.956a5.586,5.586,0,0,0,.739,2.956c.739.739,2.217,2.965,5.182,2.965,2.956.739,5.912-.748,7.39-1.487a10.631,10.631,0,0,1,2.217-1.478c.739-.739,1.478-1.478,2.217-1.478a32.892,32.892,0,0,0,5.921-8.138,78.033,78.033,0,0,0,7.39-22.187,97.336,97.336,0,0,0,.739-29.595c-.739-2.217-.739-4.434-2.217-7.4-.739-2.956-1.478-5.173-5.173-9.616-.739-1.478-2.217-2.217-4.443-3.695A5.6,5.6,0,0,0,139.7,101.9c-1.478-.748-2.956-.748-4.434-1.487-5.912-.739-11.833,2.226-14.049,3.7-5.173,4.434-5.912,7.4-7.39,10.355-2.217,5.921-3.7,10.355-4.443,14.8a78.709,78.709,0,0,0,0,22.926c2.226,12.581,7.4,19.979,11.833,18.492,4.434-.739,5.921-8.129,8.877-18.492,1.478-5.173,2.956-11.833,4.434-17.753a32.158,32.158,0,0,1,3.695-8.877c0-.739.739-.739.739-1.478l-1.478-1.478c-1.478-.739-2.217-2.217-2.956-2.956-1.478-2.226-2.217-3.7-1.478-3.7a8,8,0,0,1-2.956,3.7,16.042,16.042,0,0,1-3.7,2.217c-2.217,1.478-1.478.739-1.478.739a.724.724,0,0,0,.739.739c0,.739.739,2.217.739,3.695,2.965,14.058,1.487,30.334.748,39.949,0,2.217-.748,4.443-.748,5.921v1.478l.748.739c1.478,2.217,1.478,2.956,1.478,3.695a2.289,2.289,0,0,1,.739-1.478,2.58,2.58,0,0,1-1.478.739C127.14,178.823,126.392,178.823,124.914,179.571Z" transform="translate(869.55 803.547)" fill="#1b1b1b"/>
      <path id="Path_1141" data-name="Path 1141" d="M134.525,510.6c0,1.478,1.478,2.956,5.173,3.695s9.607-.739,15.527-4.434c11.833-7.4,22.917-22.935,32.533-42.166,19.222-39.949,34.011-99.13,39.183-167.178.739-6.662.739-13.319,1.478-20.716,0-6.658.739-13.315.739-20.713,0-38.466-2.956-73.974-11.085-105.783A157.679,157.679,0,0,0,201.069,110.4c-7.4-12.575-17.005-24.411-32.533-28.85-33.272-5.918-53.981-8.137-54.72-3.7-.739,3.7,17.744,11.836,50.277,22.193.739,0,2.226,2.219,4.443,2.959l4.434,4.438L177.4,114.1a34.565,34.565,0,0,1,3.695,7.4c5.182,10.356,8.877,23.672,11.833,38.467,5.921,28.85,8.138,62.877,7.4,99.865a161.071,161.071,0,0,1-.739,19.233c-.739,6.658-.739,13.316-1.478,19.23-4.443,65.1-16.275,122.8-30.316,161.267-6.66,19.231-14.05,34.029-21.448,41.427a57.918,57.918,0,0,1-8.868,7.4C136.742,509.119,134.525,509.858,134.525,510.6Z" transform="translate(911.703 604.932)" fill="#1b1b1b"/>
      <path id="Path_1142" data-name="Path 1142" d="M148.616,81.513c0,2.22,8.138,5.918,24.4,9.617,8.129,2.22,17.744,4.438,29.577,6.658,5.912,1.48,11.823,2.22,18.483,3.7,2.956.74,6.651,1.48,10.355,2.22,2.956.74,6.651,1.48,10.346,2.219,6.66,1.48,14.049,4.439,21.439,6.658,6.66,2.959,14.788,5.918,21.448,10.356,14.788,8.137,28.838,17.754,42.139,31.809,25.882,26.631,45.843,65.1,48.8,108.738a80.542,80.542,0,0,1,.739,13.32,67.719,67.719,0,0,1-.739,12.571l-1.478,12.581c-.739,4.434-1.478,8.138-2.217,12.571C362.3,357.434,336.422,392.2,306.846,414.4a191.334,191.334,0,0,1-46.582,25.152c-15.527,5.912-31.055,8.138-45.1,9.616-14.049.739-27.36.739-39.192,1.478-11.833,0-22.178.739-30.316,1.478-16.266,1.478-25.873,2.956-25.873,5.182s8.868,4.434,25.134,6.651c8.138,1.487,18.483,2.226,30.316,3.7,11.833.739,25.143,2.217,40.67,2.217,15.527-.739,33.272-2.217,51.016-8.138a189.666,189.666,0,0,0,53.972-25.891,191.8,191.8,0,0,0,47.321-47.339c13.31-19.231,24.4-42.166,29.577-66.579.739-5.182,2.217-9.616,2.956-14.8a111.2,111.2,0,0,0,1.478-14.788c.739-5.182,0-10.364.739-14.8a109.383,109.383,0,0,0-.739-15.536c-2.217-25.149-8.868-49.561-19.222-70.273a186.623,186.623,0,0,0-39.931-54,191.353,191.353,0,0,0-49.538-34.028c-8.129-4.438-17.005-6.658-25.134-10.356-8.138-2.22-16.266-4.438-24.4-5.918a56.977,56.977,0,0,0-11.085-1.48,48.914,48.914,0,0,0-10.355-.739,181.891,181.891,0,0,0-19.222-1.48c-11.833-.74-22.187-1.48-30.316-2.22C158.231,79.294,148.616,79.294,148.616,81.513Z" transform="translate(959.712 639.733)" fill="#1b1b1b"/>
      <path id="Path_1143" data-name="Path 1143" d="M197.458,121.707c-1.478,5.178-1.478,10.356-2.217,16.273-1.478,28.85-2.217,56.96-3.695,85.81-.739,17.754-1.478,34.768-2.956,52.524-2.217,19.97-5.921,39.94-9.616,59.92-4.434,24.413-8.868,48.078-17.744,71.013s-21.439,44.383-40.661,59.92c-2.965-7.4,2.217-16.275,5.912-23.674,4.434-9.616,5.173-19.97,8.129-29.586,2.226-10.355,6.66-19.979,14.788-26.63-1.478-11.1,1.478-21.457,3.7-32.551,4.434-19.231,9.607-39.21,14.04-58.442a42.822,42.822,0,0,0,1.487-9.616c0-2.956-.748-6.66-.748-9.616-1.478-10.357-2.956-20.714-3.695-31.07a197.733,197.733,0,0,1,0-29.589c0-15.535,0-31.069.739-46.6V149.077C164.186,129.1,154.579,97.3,147.181,78.8c.739,5.178,31.794,11.1,36.228,11.1,11.833.74,24.4,7.4,36.237,6.658C211.507,105.433,201.162,110.611,197.458,121.707Z" transform="translate(958.93 631.348)" fill="#1b1b1b"/>
      <path id="Path_1144" data-name="Path 1144" d="M101.609,165.325c5.916,7.4,18.488,2.956,31.789-7.4.739-.739,1.487-.739,2.226-1.478s1.478-.739,2.217-1.478c12.562-11.094,19.961-22.2,14.049-29.595-5.182-6.651-18.492-2.217-31.794,7.4-.739.739-1.478.739-2.226,1.478s-1.478.748-2.217,1.487C103.088,146.833,95.694,157.926,101.609,165.325Z" transform="translate(797.478 979.05)" fill="#1b1b1b"/>
      <path id="Path_1145" data-name="Path 1145" d="M123.99,205.243c9.616,0,13.31-16.275,14.049-36.994v-5.912c-.739-20.718-4.434-36.994-14.049-36.994-8.877,0-13.31,16.275-14.049,36.994v5.912C110.68,188.968,115.114,205.243,123.99,205.243Z" transform="translate(880.828 1004.234)" fill="#1b1b1b"/>
      <path id="Path_1146" data-name="Path 1146" d="M34.4,264.689c9.612-1.48,5.176-45.124-.739-101.344,0-2.959-.739-5.918-.739-8.137,0-2.959-.739-5.918-.739-8.138C24.787,90.851,18.872,47.206,8.521,47.946-.352,48.686-2.57,93.07,3.345,150.03c0,2.959.739,5.918.739,8.877s.739,5.918.739,8.877C12.957,223.264,25.527,266.169,34.4,264.689Z" transform="translate(0.352 384.061)" fill="#1b1b1b"/>
    </g>
  </g>
</svg>
