<svg id="Group_16" data-name="Group 16" xmlns="http://www.w3.org/2000/svg" width="72" height="72" viewBox="0 0 72 72">
  <g id="Group_15" data-name="Group 15">
    <circle id="Ellipse_3" data-name="Ellipse 3" cx="36" cy="36" r="36" fill="#fbda2d"/>
    <circle id="Ellipse_2" data-name="Ellipse 2" cx="27.25" cy="27.25" r="27.25" transform="translate(8.5 9)" fill="#f6aa1a"/>
    <path id="Path_131" data-name="Path 131" d="M24.307,4.614,29.85,15.952a2.588,2.588,0,0,0,2.016,1.428l12.6,1.847-9.154,8.82a2.588,2.588,0,0,0-.756,2.35l2.184,12.431L25.567,36.95a2.711,2.711,0,0,0-2.519,0c-1.394.734-8.205,4.313-11.17,5.878l2.1-12.345a2.788,2.788,0,0,0-.756-2.436L4.15,19.227l12.514-1.763a2.813,2.813,0,0,0,2.1-1.512Z" transform="translate(11.85 12.386)" fill="#fbda2d"/>
  </g>
</svg>
