<svg width="74" height="104" viewBox="0 0 74 104" fill="none" xmlns="http://www.w3.org/2000/svg">
<g clip-path="url(#clip0_771_1288)">
<path fill-rule="evenodd" clip-rule="evenodd" d="M28.5803 103.906C25.3527 103.953 22.0784 104.094 18.8041 103.906C15.5297 103.717 12.1618 103.246 8.98104 101.88C6.689 100.892 4.49051 99.337 3.04045 97.1704C1.77749 95.239 1.07584 93.0256 0.888738 90.8585C0.701632 88.6919 0.65486 86.6196 0.701632 84.4998C0.74841 80.2609 1.12262 76.1161 1.3565 71.924C1.59038 68.2502 1.73071 64.5291 1.59038 60.8553C1.49683 58.4998 1.40328 56.1448 1.1694 53.837C1.12262 53.2718 1.02907 52.6595 0.982294 52.0943C0.935516 51.529 0.841966 50.9167 0.795188 50.3515C0.65486 49.174 0.467753 48.0436 0.233872 46.9131C-0.0935612 45.5001 -0.0467853 45.6414 0.608082 46.7718C1.21617 47.9023 2.29203 50.0689 2.80657 52.8008C3.18077 55.2502 3.41466 57.6994 3.50821 60.1017C3.60176 62.5509 3.60176 65.0001 3.50821 67.4493C3.27433 72.254 2.80657 77.0581 2.57268 81.8622C2.47913 84.7356 2.47913 87.7031 2.80657 90.5759C2.99367 91.9894 3.36788 93.3551 3.9292 94.5796C4.49051 95.8042 5.33248 96.9346 6.31476 97.8766C8.56006 99.9022 11.6005 100.938 14.7345 101.457C17.8685 101.975 21.0961 102.022 24.3236 102.022L30.311 101.928C32.2756 101.88 34.287 101.739 36.2984 101.551C39.292 101.268 42.3325 100.938 45.2794 100.467C48.2731 99.9964 51.22 99.3843 54.0265 98.4892C55.1022 98.1597 56.1785 97.7356 57.2074 97.2646C58.1896 96.7936 59.1717 96.1342 59.6396 95.4274C60.1544 94.5796 60.5282 93.4966 60.809 92.4604C61.0897 91.3769 61.2769 90.2933 61.4173 89.2103C61.5109 88.2209 61.5577 87.279 61.5577 86.2901C61.6045 82.6158 61.3705 81.4855 62.0251 80.5435C62.1654 80.3551 62.2122 80.0725 62.3526 79.9314C62.6334 79.4604 63.7559 80.9203 63.9899 83.8404C64.0835 84.924 64.1302 86.0075 64.1302 87.1379C64.0835 88.2209 63.9899 89.3513 63.8027 90.4817C63.6155 91.6127 63.3347 92.6957 62.9609 93.8261L62.6334 94.6738L62.259 95.4748C61.9783 96.04 61.7448 96.511 61.2301 97.2172C60.2012 98.3008 59.1249 98.866 58.0492 99.3843C56.9735 99.9022 55.8977 100.279 54.8215 100.609C52.67 101.268 50.4715 101.739 48.2731 102.116C44.9987 102.681 41.7244 103.105 38.4501 103.388C35.1757 103.67 31.9014 103.953 28.5803 104V103.906Z" fill="#1B1B1B"/>
<path fill-rule="evenodd" clip-rule="evenodd" d="M62.7738 87.4209C62.7738 87.4209 72.4096 88.1745 73.8597 92.9786C75.9649 99.8083 51.9217 101.975 45.3262 102.258C37.7485 102.587 39.3388 102.634 39.3388 102.634C39.3388 102.634 55.9914 100.845 58.7512 98.0659C61.5109 95.1926 63.1014 89.1633 62.7738 87.4209Z" fill="#1B1B1B"/>
<path fill-rule="evenodd" clip-rule="evenodd" d="M5.23894 98.0651C5.8938 98.8655 6.64223 99.5722 7.53099 100.137C7.85839 100.373 8.18584 100.514 8.51329 100.703C9.68271 101.362 10.9457 101.833 12.3489 101.974C12.957 102.068 13.5651 102.068 14.22 102.068C15.0152 102.116 15.8571 102.068 16.6524 102.351C16.8862 102.445 16.8394 102.681 16.6056 102.869C16.3717 103.058 15.9507 103.293 15.5297 103.293C13.9393 103.34 12.2554 103.387 10.5247 102.822C9.54238 102.492 8.46649 102.21 7.53099 101.691C6.5019 101.126 5.5664 100.42 4.7244 99.6191C4.49052 99.3839 4.20986 99.1013 3.97598 98.8187C3.7421 98.5361 3.50822 98.2535 3.32112 97.9709C2.66625 97.0757 2.19849 96.0863 1.87105 95.0502C1.59039 94.2497 1.35651 93.4488 1.26296 92.601C1.26296 92.4126 1.21619 92.2242 1.21619 92.0358C1.26296 91.3296 1.40329 91.1412 1.73073 90.9996C1.82428 90.9996 1.87105 90.9528 1.9646 90.9528C2.19849 90.9054 2.38559 91.2354 2.47914 91.659C2.52592 91.989 2.61947 92.3184 2.66625 92.6484L2.94691 93.5903C3.13401 94.2024 3.36789 94.8618 3.69533 95.427C4.06953 96.4163 4.63085 97.3109 5.23894 98.0651Z" fill="#1B1B1B"/>
<path fill-rule="evenodd" clip-rule="evenodd" d="M60.4819 39.1887C59.3589 38.6706 58.0492 38.5293 56.6927 38.4822C55.3362 38.5293 53.933 38.6706 52.5297 38.859C49.7231 39.2358 46.8698 39.801 44.0632 40.3191L37.8887 41.5909C34.2402 42.2974 30.5916 42.9568 26.9431 43.5691C23.2945 44.1343 19.5992 44.6525 15.8571 44.8409C14.2199 44.9351 12.536 44.9822 10.8521 44.888C9.16814 44.7938 7.48415 44.6525 5.84701 44.0872L5.09858 43.8046C4.8647 43.7104 4.58404 43.5691 4.35016 43.4278C4.06951 43.3337 3.8824 43.0981 3.64852 42.9568C3.50819 42.8626 3.41464 42.7684 3.27431 42.6742C3.18076 42.5329 3.04043 42.4387 2.94687 42.2974C2.71299 42.0619 2.57267 41.7322 2.47911 41.4025C2.38556 41.0728 2.38556 40.6959 2.43234 40.3662C2.52589 39.7068 2.80654 39.1887 3.13398 38.6706C3.78884 37.7285 4.58404 36.9749 5.47276 36.3155C6.36153 35.6561 7.29708 35.0909 8.27938 34.7141C8.93422 34.4786 9.26167 34.4786 9.26167 34.6199C9.26167 34.7141 8.98102 34.9496 8.56003 35.2793C7.71807 35.9858 6.12766 37.2575 4.77115 38.9532C4.16306 39.7068 3.83562 40.6017 4.02273 40.9786C4.11628 41.2141 4.25661 41.4025 4.6776 41.638L4.91147 41.8264C5.00503 41.8735 5.09858 41.9206 5.19213 41.9677C5.37924 42.0619 5.56635 42.2032 5.80021 42.2503C7.57774 42.9568 9.63586 43.1452 11.694 43.1923C15.8571 43.2865 20.1138 42.7684 24.3704 42.2032C29.469 41.5438 34.7079 40.3662 39.8533 39.3771C42.7067 38.8119 45.56 38.2467 48.4134 37.7285C49.8635 37.493 51.2667 37.2575 52.7168 37.022C54.1668 36.8337 55.617 36.6452 57.1606 36.6923C58.985 36.7394 60.9961 37.1633 62.5398 38.388C63.3347 39.0003 63.8963 39.801 64.3642 40.6488C64.7848 41.5438 65.0656 42.4387 65.2059 43.3807C65.6739 46.2068 65.3931 48.9858 65.0188 51.6706C64.645 54.4025 64.1302 57.0402 63.8027 59.7251C63.6623 60.7613 63.5687 61.7975 63.5219 62.7863C63.5219 63.3047 63.5219 63.7757 63.5219 64.2935C63.5219 64.5293 63.5687 64.7651 63.6155 65.0003V65.1887L63.6623 65.4713C63.7091 65.6597 63.7091 65.8481 63.7091 65.9896C63.8495 66.3664 63.5219 66.6959 63.2885 66.9316C62.9609 67.12 62.6334 67.2611 62.2122 67.3553C61.6512 67.4494 61.0897 67.4968 60.575 67.4968C59.4992 67.4968 58.4703 67.4495 57.4414 67.4026C56.5523 67.3553 55.6638 67.3084 54.7284 67.3084C51.3603 67.1669 50.4248 67.2142 49.6763 67.1669C49.4892 67.1669 49.3021 67.2142 49.1618 67.1669C49.0682 67.1669 49.0682 67.12 49.115 66.9785C49.2086 66.8374 49.3957 66.6959 49.6763 66.5075C50.2844 66.178 51.3135 65.8954 52.5765 65.8012C54.4944 65.6128 56.3651 65.7539 58.2363 65.7539C59.1717 65.7539 60.1076 65.8012 60.9961 65.7539C61.2301 65.7539 61.4173 65.707 61.6044 65.707C61.698 65.707 61.8384 65.6597 61.8852 65.6597C61.9314 65.6597 61.9314 65.6128 61.8852 65.5186V65.4713C61.8852 65.4713 61.8852 65.4713 61.8852 65.3771L61.8384 64.9535C61.7916 64.6703 61.7916 64.4351 61.7916 64.1525C61.7448 63.6341 61.7916 63.1163 61.7916 62.5979C61.8384 61.5617 61.9314 60.5729 62.0718 59.5836C62.3058 57.6054 62.6801 55.674 62.9609 53.7431C63.3815 50.9169 63.8027 48.0438 63.6623 45.3119C63.5687 43.9459 63.3353 42.6271 62.8205 41.4967C62.4462 40.5546 61.6044 39.7068 60.4819 39.1887Z" fill="#1B1B1B"/>
<path fill-rule="evenodd" clip-rule="evenodd" d="M58.0491 76.9166C59.0318 76.8698 60.0607 76.7756 61.0429 76.6814L62.5397 76.493L63.8494 76.3046C63.8962 76.3046 63.943 76.3046 63.9898 76.3046C64.0366 76.2572 64.0366 76.2104 64.0366 76.163V75.9278L64.0834 75.3626C64.1302 75.0327 64.177 74.6559 64.2706 74.2791L64.5045 73.2902L64.9719 71.3589C65.2995 70.0869 65.5803 68.8155 65.7674 67.4967C65.9546 66.3663 66.095 65.1886 66.1418 64.0582C66.1418 63.3514 66.095 62.5978 65.9546 61.9858C65.861 61.6559 65.7674 61.3733 65.6271 61.1849C65.4867 60.9965 65.2995 60.9496 65.0187 60.9496C64.6449 60.9965 64.5513 60.7612 64.8784 60.3844C65.0655 60.2429 65.4399 59.9603 66.0014 60.1487C66.5624 60.2902 66.9835 60.8554 67.1707 61.3264C67.4983 62.221 67.5451 63.0688 67.5919 63.8698C67.6381 64.6702 67.5919 65.4712 67.4983 66.2721C67.3579 67.8262 67.0303 69.3807 66.656 70.8879C66.422 71.7825 66.2348 72.7251 66.0482 73.667C65.9546 74.138 65.861 74.609 65.8142 74.9858C65.7674 75.2211 65.7674 75.4094 65.7674 75.6452L65.7206 76.4456C65.6739 76.8698 65.5803 77.2466 65.3931 77.6234C65.0187 77.7644 64.5981 77.8586 64.2238 77.9528C63.6623 78.047 63.1949 78.1412 62.6333 78.2354C61.6044 78.377 60.5749 78.518 59.546 78.6122C58.2831 78.7538 56.9734 78.848 55.7105 78.8954C54.7284 78.9422 53.7458 78.9422 52.7635 78.848C52.249 78.8012 51.7812 78.7538 51.2667 78.6596C50.7521 78.5654 50.1908 78.4238 49.6763 78.0002C49.0215 77.3876 48.6005 76.634 48.273 75.9278C47.9456 75.2211 47.7117 74.4675 47.5246 73.7139C47.4311 73.3844 47.3843 73.0545 47.3375 72.6777C47.2439 72.0183 47.2907 71.5941 47.3843 71.2647C47.5246 70.9347 47.7117 70.7937 47.9924 70.6995C48.1327 70.6521 48.2262 70.6053 48.3666 70.5579C48.5537 70.5111 48.7408 70.6521 48.8811 70.8405C49.0215 71.0289 49.1618 71.3589 49.2553 71.7357C49.4892 72.9134 49.8166 74.1849 50.2844 75.221C50.5183 75.7394 50.7989 76.2572 51.0328 76.4456C50.9393 76.5398 51.2199 76.2104 50.8457 76.6814L50.8925 76.634L51.0328 76.493C51.0328 76.493 51.0328 76.493 51.0796 76.493C51.1264 76.5398 51.2667 76.5398 51.3602 76.5872C51.4538 76.634 51.6409 76.634 51.7345 76.6814C51.8748 76.7282 52.0151 76.7282 52.1555 76.7282C53.0442 76.8224 54.0265 76.8698 55.0554 76.8698C56.0381 76.8698 57.067 76.8224 58.0491 76.7282V76.9166Z" fill="#1B1B1B"/>
<path fill-rule="evenodd" clip-rule="evenodd" d="M54.9151 78.5648C55.5702 78.6117 56.2715 78.659 56.9267 78.6117C57.1606 78.6117 57.4414 78.5648 57.6748 78.5648C58.5639 78.5175 59.4525 78.4706 60.3415 78.3764C60.7154 78.3291 61.1365 78.2349 61.5108 78.188C62.025 78.0938 62.493 77.9523 63.0545 77.9996C63.3815 78.0465 63.1013 79.0358 62.5398 79.1774C61.5576 79.4126 60.5282 79.601 59.4525 79.6484C58.7979 79.6484 58.1896 79.8368 57.535 79.8836C56.8331 79.9778 56.0849 79.9778 55.383 79.9778C54.9151 79.9778 54.4945 79.9778 54.0265 79.931C53.6991 79.8836 53.3717 79.8836 52.9975 79.7894C52.67 79.7426 52.3426 79.6484 51.9684 79.5542C51.6877 79.5068 51.4539 79.4126 51.1732 79.3184C51.0329 79.2716 50.8925 79.2242 50.799 79.1774C50.6586 79.0832 50.5651 79.0358 50.4248 78.9416C50.3312 78.8474 50.1909 78.8006 50.0973 78.7064C49.7699 78.3291 49.7699 78.1407 49.957 77.9054C50.0038 77.8581 50.0505 77.8112 50.0973 77.7639C50.2845 77.6228 50.5183 77.6228 50.7522 77.717C51.4539 78.0465 52.1087 78.1407 52.9039 78.3764C53.1845 78.4233 53.512 78.5175 53.8394 78.5175C54.2604 78.4706 54.588 78.5175 54.9151 78.5648Z" fill="#1B1B1B"/>
<path fill-rule="evenodd" clip-rule="evenodd" d="M10.244 48.8914C9.96332 48.8914 9.63587 48.8443 9.35522 48.8443C9.26168 48.8443 9.12136 48.8443 9.02777 48.8443C8.65358 48.7972 8.23259 48.7501 7.85835 48.6559C7.67128 48.6088 7.53096 48.6088 7.34383 48.5617C7.10997 48.5146 6.92285 48.4675 6.68899 48.3733C6.54866 48.3263 6.82932 47.9966 7.06318 48.0437C7.48416 48.0908 7.90514 48.1379 8.32613 48.2321C8.55999 48.2792 8.84065 48.2321 9.12136 48.2321C9.40201 48.2321 9.72941 48.2321 10.0101 48.2321C10.1972 48.2321 10.3843 48.2321 10.5714 48.2321C10.852 48.2321 11.1327 48.2321 11.4133 48.185C11.6473 48.1379 11.8343 48.0908 12.0214 48.0908C12.0682 48.0908 12.115 48.0908 12.1618 48.0908C12.3489 48.0908 12.3957 48.1379 12.4424 48.2791C12.4424 48.3262 12.4892 48.3733 12.4892 48.3733C12.536 48.5146 12.4424 48.6088 12.3489 48.6559C11.9747 48.7972 11.6005 48.9385 11.1795 48.9385C10.852 48.9385 10.5714 48.9385 10.244 48.8914Z" fill="#1B1B1B"/>
<path fill-rule="evenodd" clip-rule="evenodd" d="M18.5234 97.1707C18.2427 97.1707 17.9153 97.1239 17.6347 97.1239C17.5411 97.1239 17.4008 97.1239 17.3072 97.1239C16.9331 97.0765 16.5121 97.0297 16.1378 96.9355C15.9508 96.8881 15.8104 96.8881 15.6233 96.8413C15.3894 96.7939 15.2023 96.7471 14.9684 96.6529C14.8281 96.6055 15.1087 96.2761 15.3427 96.3229C15.7636 96.3703 16.1846 96.4171 16.6056 96.5113C16.8395 96.5587 17.1201 96.5113 17.4008 96.5113C17.6814 96.5113 18.0089 96.5113 18.2895 96.5113C18.4767 96.5113 18.6638 96.5113 18.8508 96.5113C19.1315 96.5113 19.4122 96.5113 19.6928 96.4645C19.9267 96.4171 20.1138 96.3703 20.3009 96.3703C20.3477 96.3703 20.3945 96.3703 20.4412 96.3703C20.6284 96.3703 20.6751 96.4171 20.7219 96.5587C20.7219 96.6055 20.7687 96.6529 20.7687 96.6529C20.8154 96.7939 20.7219 96.8881 20.6284 96.9355C20.2541 97.0765 19.8799 97.2181 19.459 97.2181C19.1315 97.2181 18.8041 97.2181 18.5234 97.1707Z" fill="#1B1B1B"/>
<path fill-rule="evenodd" clip-rule="evenodd" d="M41.4438 46.2538C41.1631 46.3009 40.8357 46.3009 40.555 46.348C40.4615 46.348 40.3212 46.3951 40.2276 46.3951C39.8534 46.3951 39.4324 46.3951 39.0582 46.3951C38.8711 46.3951 38.7308 46.3951 38.5436 46.3951C38.3098 46.3951 38.1227 46.3951 37.8888 46.3009C37.7485 46.2538 37.9823 45.9241 38.2163 45.9241C38.6372 45.9241 39.0582 45.877 39.4792 45.877C39.7599 45.877 39.9937 45.7828 40.2744 45.7357C40.555 45.6886 40.8357 45.6415 41.1631 45.5943C41.3503 45.5473 41.5373 45.5473 41.6777 45.5002C41.9583 45.4531 42.239 45.406 42.4729 45.3118C42.66 45.2647 42.8939 45.1705 43.081 45.1234C43.1277 45.1234 43.1745 45.0763 43.2213 45.0763C43.4084 45.0292 43.4552 45.0763 43.5487 45.2176C43.5487 45.2647 43.5955 45.2647 43.5955 45.3118C43.6423 45.4531 43.5955 45.5473 43.502 45.6415C43.1745 45.8299 42.8003 46.0183 42.4261 46.1125C42.0519 46.1596 41.7712 46.2067 41.4438 46.2538Z" fill="#1B1B1B"/>
<path fill-rule="evenodd" clip-rule="evenodd" d="M36.5322 97.2646C36.2515 97.312 35.9241 97.312 35.6434 97.3588C35.5499 97.3588 35.4095 97.4062 35.316 97.4062C34.9418 97.4062 34.5208 97.4062 34.1466 97.4062C33.9595 97.4062 33.8191 97.4062 33.632 97.4062C33.3982 97.4062 33.211 97.4062 32.9772 97.312C32.8369 97.2646 33.0707 96.9352 33.3046 96.9352C33.7256 96.9352 34.1466 96.8878 34.5676 96.8878C34.8482 96.8878 35.0821 96.7936 35.3628 96.7468C35.6434 96.6994 35.9241 96.6526 36.2515 96.6053C36.4386 96.5584 36.6257 96.5584 36.766 96.511C37.0467 96.4642 37.3273 96.4168 37.5613 96.3226C37.7483 96.2758 37.9822 96.1816 38.1693 96.1343C38.2161 96.1343 38.2629 96.0869 38.3096 96.0869C38.4968 96.0401 38.5436 96.0869 38.6371 96.2285C38.6371 96.2758 38.6839 96.2758 38.6839 96.3226C38.7306 96.4642 38.6839 96.5584 38.5903 96.6526C38.2629 96.841 37.8887 97.0294 37.5145 97.1236C37.0935 97.2178 36.8128 97.2646 36.5322 97.2646Z" fill="#1B1B1B"/>
<path fill-rule="evenodd" clip-rule="evenodd" d="M50.8458 44.558C50.5183 44.558 50.2377 44.558 49.9103 44.558C49.8167 44.558 49.6764 44.558 49.5828 44.558C49.1619 44.558 48.7876 44.5109 48.3666 44.558C48.1796 44.558 47.9924 44.6051 47.8521 44.6051C47.6182 44.6522 47.3843 44.6993 47.1505 44.6522C47.0101 44.6522 47.1505 44.2754 47.3843 44.1812C47.8521 44.087 48.2731 43.9928 48.7876 43.9928C49.0683 43.9928 49.349 43.8986 49.6296 43.8986C49.957 43.8515 50.2377 43.8515 50.5651 43.8515C50.7523 43.8515 50.9393 43.8515 51.1264 43.8044C51.4071 43.8044 51.7346 43.7573 52.0152 43.7573C52.2491 43.7573 52.4829 43.7102 52.6701 43.6631C52.7169 43.6631 52.7636 43.6631 52.8104 43.6631C52.9975 43.6631 53.0443 43.7102 53.091 43.8986C53.091 43.9457 53.091 43.9928 53.1378 44.0399C53.1378 44.1812 53.091 44.2754 52.9507 44.3696C52.5765 44.5109 52.1555 44.6522 51.7346 44.6522C51.4539 44.6051 51.1732 44.6051 50.8458 44.558Z" fill="#1B1B1B"/>
<path fill-rule="evenodd" clip-rule="evenodd" d="M33.7257 42.5326C30.5449 43.0508 27.3174 43.5689 24.0898 43.9457C22.9204 44.087 21.751 44.2754 20.5348 44.3696C18.4299 44.5109 16.3249 44.6051 14.22 44.5109C12.1151 44.4167 9.96339 44.2283 7.90522 43.3805C7.43744 43.2392 7.01645 42.9565 6.59547 42.721C6.17449 42.3913 5.7535 42.1558 5.3793 41.6848C5.00509 41.2138 4.81798 40.6015 4.91153 39.9892C4.95831 39.424 5.14542 38.9058 5.42607 38.4348C6.08095 37.3044 7.01645 36.4565 7.95201 35.7029C8.93431 34.9964 10.0101 34.337 11.1796 34.0072C11.9747 33.8189 11.8812 34.1015 11.4134 34.5725C10.9457 35.0435 10.1505 35.8442 9.16817 36.645C8.27941 37.3515 7.53103 38.1993 6.96971 39C6.68906 39.424 6.54873 39.8479 6.50194 40.1304C6.50194 40.413 6.54873 40.6015 6.87613 40.8841C7.57777 41.5435 8.60685 41.9203 9.63594 42.25C10.7118 42.5326 11.8344 42.721 13.0038 42.8623C15.8104 43.145 18.8041 42.8623 21.7042 42.5797C24.885 42.25 28.1125 41.779 31.2934 41.2609C33.2579 40.9312 35.2225 40.6015 37.1871 40.2247C40.1341 39.6595 43.1277 39.0942 46.0746 38.4819C48.3667 38.0109 50.5651 37.4457 52.8572 37.0218C53.3717 36.9276 53.8395 36.8334 54.354 36.7392C56.2721 36.4565 56.8799 36.645 57.3478 36.9276C57.4414 36.9747 57.5818 37.0689 57.6286 37.116C57.8152 37.3515 57.0671 37.6341 55.7574 38.0109C53.7927 38.529 51.7345 38.9529 49.6296 39.4711C47.5247 39.895 45.4197 40.366 43.2681 40.7899C40.1341 41.3551 36.9533 42.0145 33.7257 42.5326Z" fill="#1B1B1B"/>
<path fill-rule="evenodd" clip-rule="evenodd" d="M5.94062 36.7387C15.9975 31.6517 27.3174 29.7206 38.4033 27.8836C41.0696 27.4126 43.8762 26.9887 46.4956 27.6481C49.1618 28.3075 51.641 30.3329 51.9685 33.0648L51.8749 36.6916L24.5108 42.8148L9.96339 43.3329L5.47284 43.38L4.06958 40.1771L5.94062 36.7387Z" fill="#1B1B1B"/>
<path d="M5.94051 36.7388C5.84698 36.6917 5.56632 36.9272 5.14532 37.4453C4.95821 37.7279 4.67755 38.0576 4.44367 38.4344C4.30335 38.6228 4.16302 38.8583 4.02269 39.0939C3.97591 39.141 3.92913 39.2352 3.88236 39.2823C3.83558 39.3765 3.74203 39.4707 3.69525 39.5649C3.6017 39.7533 3.46137 39.9417 3.32104 40.1301C3.46137 40.4598 3.55492 40.7895 3.69525 41.1192C3.78881 41.3547 3.88236 41.6374 3.97591 41.92C4.06946 42.2026 4.20979 42.4852 4.30335 42.7678C4.49045 43.1917 4.67755 43.6627 4.86466 44.1337C5.33242 44.1337 5.80019 44.1337 6.26796 44.1337C6.59536 44.1337 6.87602 44.1337 7.20347 44.1337C7.85831 44.1337 8.51321 44.1808 9.21485 44.1808C10.6181 44.1808 12.115 44.1808 13.7053 44.1337C15.2957 44.0866 17.0265 44.0866 18.804 44.0395C20.6283 43.9924 22.5929 43.9453 24.6042 43.8982C28.0189 43.1446 31.6674 42.391 35.5499 41.5432C39.3855 40.6953 43.4083 39.8004 47.5713 38.9055C49.1617 38.5286 50.7521 38.1989 52.2957 37.8221L53.091 37.6337L53.1845 34.6663L53.2313 33.7243V33.2533V32.9236C53.2313 32.7823 53.1845 32.641 53.1845 32.5468C52.9974 31.4163 52.5297 30.3801 51.8748 29.5323C51.2199 28.6845 50.4715 28.025 49.6295 27.4598C48.7875 26.9417 47.8988 26.5178 46.9633 26.2823C46.0277 26.0468 45.0922 25.9055 44.2035 25.9055C42.3792 25.8583 40.6953 26.0939 39.1517 26.3294C37.608 26.612 36.0644 26.8946 34.5676 27.1301C28.627 28.2134 23.3413 29.3439 19.0379 30.6627C16.8861 31.3221 14.9216 31.9815 13.2844 32.641C11.6004 33.3004 10.2439 33.9598 9.12132 34.525C8.56001 34.8076 8.09223 35.0903 7.67124 35.3258C7.25026 35.5613 6.92281 35.7968 6.64215 35.9852C6.12764 36.4091 5.89372 36.6446 5.94051 36.7388C6.17438 37.1627 10.9923 34.7134 19.646 32.641C23.9493 31.5576 29.1883 30.6156 35.0821 29.6736C36.579 29.4381 38.0758 29.2026 39.6194 28.9671C41.163 28.7316 42.7067 28.5432 44.1567 28.6374C44.9051 28.6845 45.6535 28.7787 46.3552 28.9671C47.01 29.1555 47.7117 29.4381 48.3198 29.862C49.536 30.6156 50.4715 31.7931 50.6586 33.112C50.6586 33.2533 50.6586 33.112 50.6586 33.3475V33.8185V34.7605V35.6084C49.4892 35.8439 48.3666 36.1265 47.1504 36.4091C42.9873 37.3511 38.9645 38.2931 35.1289 39.141C31.34 40.0359 27.785 40.8837 24.4171 41.6374C22.4525 41.7316 20.5815 41.8258 18.804 41.92C17.0265 42.0142 15.2957 42.1084 13.7053 42.2026C12.115 42.2968 10.6181 42.391 9.21485 42.4852C8.51321 42.5323 7.85831 42.5323 7.20347 42.5794C6.87602 42.5794 6.59536 42.6265 6.26796 42.6265C6.12764 42.6265 5.98731 42.6736 5.84698 42.6736C5.80019 42.6265 5.75339 42.5323 5.75339 42.4852L5.70665 42.391C5.70665 42.3439 5.65986 42.3439 5.61306 42.2497C5.47274 41.9671 5.33242 41.6845 5.19209 41.4489C5.05176 41.1663 4.91144 40.9308 4.81789 40.6953L4.77111 40.6011L4.81789 40.5069L4.77111 40.4127C4.72433 40.3656 4.67755 40.2714 4.67755 40.2243C4.72433 40.1301 4.72433 40.0359 4.77111 39.9888L4.81789 39.8475C4.86466 39.8004 4.86466 39.7062 4.91144 39.6591C5.00499 39.4236 5.14532 39.1881 5.23887 38.9526C5.42597 38.5286 5.61306 38.1047 5.70665 37.8221C5.94051 37.1627 6.03405 36.7859 5.94051 36.7388Z" fill="#1B1B1B"/>
<path d="M51.9683 72.1119C52.1086 72.1119 52.2022 71.8762 52.3426 71.5467C52.4829 71.2168 52.6232 70.7931 52.9974 70.4163C53.1845 70.2279 53.3717 70.0864 53.6055 69.9922C53.8394 69.898 54.12 69.898 54.3539 69.9922C54.588 70.0864 54.8214 70.2279 55.0554 70.5105C55.2894 70.7931 55.4766 71.1699 55.6169 71.5936C55.6637 71.782 55.7105 71.9235 55.7573 72.1119C55.8041 72.3003 55.8041 72.4419 55.8509 72.6771C55.8977 72.9129 55.8977 73.1481 55.8977 73.3365C55.8977 73.5249 55.8509 73.7133 55.8977 73.6665V73.7133C55.8041 73.7607 55.6637 73.7607 55.4766 73.7607C55.2894 73.7607 55.1022 73.7607 54.915 73.7133C54.7284 73.6665 54.5412 73.6665 54.3539 73.6191C54.0265 73.5723 53.7458 73.4781 53.512 73.3365C53.0442 73.1013 52.7635 72.8187 52.5764 72.5361C52.2958 72.3003 52.1086 72.0646 51.9683 72.1119C51.828 72.1119 51.7345 72.3477 51.7345 72.7713C51.7345 73.1955 52.0619 73.9017 52.7168 74.4201C53.0442 74.6553 53.4652 74.8911 53.8862 75.0321C54.12 75.1263 54.3071 75.1737 54.5412 75.2205C54.7747 75.2679 55.0086 75.3147 55.2894 75.3621C55.5702 75.4089 55.8509 75.4089 56.2715 75.3147C56.5055 75.2679 56.6927 75.1737 56.9266 75.0321C57.1138 74.8911 57.2542 74.7027 57.3946 74.5143C57.4882 74.3259 57.5812 74.0433 57.628 73.8549C57.6748 73.6665 57.6748 73.5249 57.6748 73.3365C57.6748 73.0071 57.6748 72.7245 57.628 72.4419C57.628 72.2535 57.5818 71.9704 57.535 71.7351C57.4882 71.4994 57.4414 71.2641 57.3478 71.0284C57.1606 70.4632 56.8331 69.898 56.4587 69.3802C56.0381 68.9092 55.4298 68.485 54.7747 68.3908C54.12 68.2966 53.5587 68.3908 53.0442 68.6734C52.5297 68.9092 52.2022 69.3328 52.0151 69.7096C51.5941 70.4632 51.5941 71.1226 51.6877 71.5467C51.6877 71.9235 51.828 72.1119 51.9683 72.1119Z" fill="#1B1B1B"/>
<path d="M2.8533 27.1779C3.13396 27.1308 3.32106 26.7069 3.6485 26.5184C3.78882 26.4242 3.88238 26.4713 3.97593 26.5184C3.97593 26.5655 4.02271 26.5655 4.06948 26.6598C4.11626 26.754 4.20981 26.8953 4.25659 27.0837C4.25659 27.1308 4.30336 27.225 4.30336 27.2721C4.30336 27.3192 4.30336 27.3192 4.30336 27.3663V27.4605V27.5076C4.30336 27.5076 4.30336 27.5076 4.30336 27.5547C4.30336 27.5547 4.30336 27.5547 4.25659 27.5547C3.97593 27.5547 3.78882 27.5076 3.6485 27.4605C3.50817 27.4134 3.36784 27.3663 3.27429 27.2721C3.08718 27.225 2.94686 27.1308 2.8533 27.1779C2.71297 27.1779 2.61942 27.2721 2.57264 27.5076C2.52587 27.696 2.57264 28.0728 2.80652 28.4025C3.04041 28.7322 3.46139 29.0148 3.92915 29.109C3.97593 29.109 4.06948 29.1561 4.16303 29.1561C4.25658 29.1561 4.35014 29.2033 4.44369 29.2033C4.6308 29.2504 4.8179 29.2504 5.00501 29.2033C5.37922 29.1561 5.70666 28.9677 5.94053 28.6851C6.17439 28.3554 6.22118 27.8844 6.17439 27.3663C6.17439 27.2721 6.17439 27.1779 6.12765 27.1308C6.12765 27.0366 6.08085 26.9895 6.08085 26.9424C6.03406 26.8011 6.03406 26.6598 5.98732 26.5184C5.84699 26.1887 5.70666 25.859 5.42599 25.5764C5.14534 25.2938 4.77112 25.0112 4.35014 24.9641C3.50817 24.8228 2.80652 25.3409 2.61942 25.8119C2.38554 26.2829 2.43232 26.6598 2.52587 26.8953C2.57264 27.0837 2.71297 27.1779 2.8533 27.1779Z" fill="#1B1B1B"/>
<path d="M25.0721 17.0982C25.3527 17.0511 25.5399 16.6273 25.8673 16.4388C26.0076 16.3446 26.1012 16.3917 26.1947 16.4388C26.1947 16.4859 26.2415 16.4859 26.2882 16.5801C26.335 16.6744 26.4286 16.8157 26.4754 17.004C26.4754 17.0511 26.5222 17.1453 26.5222 17.1924C26.5222 17.2395 26.5222 17.2395 26.5222 17.2866V17.3808C26.5222 17.3808 26.5689 17.4279 26.5222 17.475C26.5222 17.475 26.5222 17.475 26.4754 17.5221C26.4754 17.5221 26.4754 17.5221 26.3818 17.5221H26.2882C26.1479 17.5221 26.0544 17.5221 25.9609 17.475C25.7737 17.4279 25.6334 17.3808 25.4931 17.2866C25.3527 17.1453 25.2124 17.0511 25.0721 17.0982C24.9318 17.0982 24.8382 17.2395 24.7914 17.475C24.7446 17.7576 24.885 18.1816 25.2592 18.5113C25.4463 18.6526 25.6802 18.7939 25.9141 18.8881C25.9609 18.8881 26.0544 18.9352 26.1012 18.9352C26.1479 18.9352 26.2415 18.9823 26.335 18.9823C26.5222 19.0294 26.756 19.0765 26.9431 19.0765C27.3641 19.0765 27.7851 18.9352 28.019 18.5584C28.2996 18.2287 28.3464 17.7105 28.2996 17.1924C28.2996 17.0982 28.2996 17.004 28.2529 16.9569C28.2529 16.8627 28.2061 16.8157 28.2061 16.7686C28.1593 16.6273 28.1593 16.4859 28.1126 16.3446C27.9722 16.0149 27.8319 15.6852 27.5512 15.4026C27.2705 15.12 26.8964 14.8374 26.4754 14.7903C25.6334 14.649 24.9318 15.1671 24.7446 15.6381C24.5108 16.1091 24.5576 16.4859 24.6511 16.7215C24.7914 17.0511 24.9318 17.0982 25.0721 17.0982Z" fill="#1B1B1B"/>
<path d="M26.5221 14.3658C26.6625 14.3187 26.6625 13.9419 26.5221 13.3766C26.4286 12.8114 26.1947 12.0107 26.335 11.1629C26.4285 10.786 26.6157 10.315 26.8963 10.0324C27.0366 9.89114 27.2238 9.79694 27.3641 9.74984C27.5512 9.70268 27.7851 9.70268 28.1125 9.70268C28.2996 9.70268 28.4867 9.70268 28.6738 9.70268C28.9077 9.70268 29.1416 9.70268 29.3287 9.65558C29.7965 9.56139 30.2174 9.42009 30.6384 9.23169C31.4804 8.80779 32.2288 8.14835 32.7433 7.30056C32.9305 6.92371 33.1176 6.59401 33.2111 6.17011C33.3515 5.79326 33.3982 5.36937 33.3982 4.94546C33.3982 3.90923 33.0708 2.9201 32.5562 2.16648C32.0417 1.41286 31.3401 0.800535 30.5449 0.423725C29.7965 0.0469132 28.9077 -0.0943913 28.2061 0.0469133C27.4576 0.141116 26.8028 0.376624 26.2882 0.706336C25.2592 1.36576 24.7446 2.21358 24.5107 2.8259C24.3236 3.43822 24.4172 3.81503 24.5107 3.86213C24.6511 3.90923 24.8382 3.62662 25.1656 3.20271C25.493 2.7788 26.0543 2.21358 26.8496 1.83677C27.6915 1.45995 28.7674 1.31865 29.7497 1.88387C30.732 2.40199 31.5739 3.62662 31.5272 4.89836C31.5272 5.13387 31.4804 5.41648 31.4336 5.65197C31.3869 5.88752 31.2465 6.12302 31.1062 6.35851C30.7788 6.92371 30.2642 7.39475 29.7497 7.67735C29.469 7.81865 29.1884 7.91285 28.9077 8.00705C28.627 8.05415 28.3932 8.10125 27.9722 8.10125C27.598 8.10125 27.1302 8.10125 26.6625 8.28965C26.1947 8.4781 25.8672 8.76069 25.5866 9.09039C25.072 9.74984 24.8849 10.4563 24.8382 11.1158C24.7914 11.7752 24.9317 12.2933 25.1188 12.7172C25.2592 13.1411 25.4462 13.4708 25.6334 13.7535C26.1479 14.2245 26.3818 14.4599 26.5221 14.3658Z" fill="#1B1B1B"/>
<path d="M48.2263 18.3223C47.6182 18.3223 47.3843 19.2643 47.3375 20.489C47.3375 20.5361 47.3375 20.6303 47.3375 20.6774C47.3375 20.7244 47.3375 20.8186 47.3375 20.8657C47.3843 22.0904 47.6182 23.0324 48.2263 23.0324C48.7876 23.0324 49.0683 22.0904 49.115 20.8657C49.115 20.8186 49.115 20.7244 49.115 20.6774C49.115 20.6303 49.115 20.5361 49.115 20.489C49.0683 19.2643 48.7876 18.3223 48.2263 18.3223Z" fill="#D05335"/>
<path d="M58.8447 18.2757C58.3767 17.8988 57.067 19.0764 55.5234 20.7249C55.4298 20.8191 55.383 20.9133 55.2894 20.9604C55.1958 21.0546 55.149 21.1488 55.0554 21.1959C53.5588 22.8916 52.5297 24.3517 52.9975 24.7756C53.4184 25.1525 54.8215 24.1162 56.4119 22.4206C56.5055 22.3264 56.5523 22.2322 56.6459 22.1851C56.7395 22.0908 56.7863 21.9966 56.8799 21.9495C58.3767 20.2068 59.2653 18.6525 58.8447 18.2757Z" fill="#D05335"/>
<path d="M67.2175 27.0365C67.2175 26.4242 64.9252 26.1887 61.9782 26.1416C61.8384 26.1416 61.698 26.1416 61.5576 26.1416C61.4172 26.1416 61.2769 26.1416 61.1365 26.1416C58.1895 26.1887 55.8977 26.4242 55.8977 27.0365C55.8977 27.6017 58.1427 27.8844 61.1365 27.9315C61.2769 27.9315 61.4172 27.9315 61.5576 27.9315C61.698 27.9315 61.8384 27.9315 61.9782 27.9315C64.9252 27.8844 67.2175 27.6017 67.2175 27.0365Z" fill="#D05335"/>
</g>
<defs>
<clipPath id="clip0_771_1288">
<rect width="74" height="104" fill="white"/>
</clipPath>
</defs>
</svg>
