<svg xmlns="http://www.w3.org/2000/svg" xmlns:xlink="http://www.w3.org/1999/xlink" width="100" height="100" viewBox="0 0 100 100">
  <defs>
    <clipPath id="clip-path">
      <rect id="Rectangle_13" data-name="Rectangle 13" width="100" height="100" fill="#fff"/>
    </clipPath>
  </defs>
  <g id="Mask_Group_10" data-name="Mask Group 10" clip-path="url(#clip-path)">
    <g id="Group_1_" data-name="Group (1)" transform="translate(6.234 10.995)">
      <path id="Path_123" data-name="Path 123" d="M87.3,12.7c-.028-3.681-4.191-5.878-7.444-4.16L77.658,9.7,50.887,23.858h-.031L48.213,25.29a9.3,9.3,0,0,1-8.836.012l-4.6-2.471L11.462,10.26a4.42,4.42,0,0,1-.529-.28L10.9,9.949,7.736,8.25A5.073,5.073,0,0,0,.243,12.373c-.006.134-.009.271-.009.408V42.81a9.359,9.359,0,0,0,9.328,9.335h68.4a9.339,9.339,0,0,0,9.328-9.335V12.7Z" transform="translate(0 25.8)" fill="#fff"/>
      <path id="Path_124" data-name="Path 124" d="M61.409.151H11.661A9.359,9.359,0,0,0,2.333,9.486v18.67l2.985,1.587a8.612,8.612,0,0,1,1.462.622l1.773.965,19,10.237,7.525,4.045a3.108,3.108,0,0,0,2.954,0l3.3-1.774,23.2-12.509,1.8-.965a7.586,7.586,0,0,1,1.368-.591l3.047-1.618V9.485A9.339,9.339,0,0,0,61.41.15ZM48.972,31.268H24.1a3.112,3.112,0,0,1,0-6.223H48.972a3.112,3.112,0,0,1,0,6.223ZM55.19,18.821H17.879a3.112,3.112,0,0,1,0-6.223H55.19a3.112,3.112,0,0,1,0,6.223Z" transform="translate(7.232 0)" fill="#fff"/>
    </g>
  </g>
</svg>
