<svg xmlns="http://www.w3.org/2000/svg" width="302.669" height="285.809" viewBox="0 0 302.669 285.809">
  <g id="n.138_Empty_Inbox" data-name="n.138 Empty Inbox" transform="translate(-75.05 -85.33)">
    <path id="Path_529" data-name="Path 529" d="M277.359,356.542l-.37-16.752-.181-6.1c-.131-7.185-.214-14.362-.287-21.548,0-3.186-.1-6.389-.148-9.55-.066-4.057-.238-8.138,0-12.194.066-1.265.328-1.1.641,0a20.242,20.242,0,0,1,.493,2.217,17.859,17.859,0,0,1,.3,3.162c.148,8.286.287,16.563.263,24.923,0,5,.205,10.2.328,15.315q.205,8.425.411,16.867.123,5.19.255,10.38c.123,5.247.246,10.511.37,15.709.131,4.048.263,8.015.394,12.014,0,.879.074,1.741.082,2.628.049,3.285-.1,4.344-.484,5.05a2.616,2.616,0,0,1-.271.468c-.3.32-.575-1.026-.706-3.433-.312-7.136-.493-14.666-.69-22.221-.14-5.617-.287-11.258-.435-16.892Z" transform="translate(-35.98 -36.512)" fill="#231f20"/>
    <path id="Path_530" data-name="Path 530" d="M186,416.247,166.3,411.32l-7.193-1.774-25.292-6.569-11.234-2.825c-4.771-1.207-9.6-2.307-14.313-3.753-1.47-.435-1.215-.6.107-.542a26.6,26.6,0,0,1,2.71.238,31.461,31.461,0,0,1,3.794.665c9.8,2.266,19.56,4.705,29.357,7.308,5.863,1.552,12.014,2.981,18.066,4.467l19.881,4.927,12.244,2.94c6.183,1.462,12.4,2.948,18.567,4.262,4.8,1.035,9.526,1.9,14.3,2.759l3.137.55c3.917.706,5.141,1.059,5.88,1.782a3.458,3.458,0,0,1,.493.484c.3.509-1.371.567-4.27.148-8.614-1.289-17.565-3.227-26.524-5.272-6.652-1.519-13.311-3.137-19.955-4.755Z" transform="translate(-5.761 -55.528)" fill="#231f20"/>
    <path id="Path_531" data-name="Path 531" d="M328.107,248.864,308.4,256.058l-7.169,2.669-25.317,9.181-2.817,1.026-.706.255c-.246.09-.575.2-.862.279l-.452.115h-.361l-.739-.074c-1.971-.189-3.974-.328-5.945-.542a73.537,73.537,0,0,1-15.06-2.907c-1.527-.484-1.207-.772.181-.747a45.894,45.894,0,0,1,6.668.821c2.521.485,5.058.821,7.62,1.15s5.108.452,7.76.755c.23-.066.328-.2.509-.246l.87-.312,1.831-.657,3.679-1.314,7.391-2.62c5.912-2.069,11.989-4.418,17.992-6.635l19.823-7.308,12.194-4.508c6.151-2.283,12.318-4.558,18.427-6.881,4.738-1.8,9.337-3.662,13.96-5.494l3.063-1.224c3.843-1.478,5.108-1.848,6.1-1.724a3.284,3.284,0,0,1,.649.082c.484.156-.969,1.068-3.753,2.217-8.269,3.441-17.1,6.791-25.966,10.117l-19.84,7.391Z" transform="translate(-30.92 -25.708)" fill="#231f20"/>
    <path id="Path_532" data-name="Path 532" d="M249.914,303.719c.969-1.683,2-3.326,3.063-4.927.394-.583.739-1.207,1.141-1.782a67.093,67.093,0,0,1,4.705-5.839l2.225-2.464a17,17,0,0,1,3.12-2.874c.731-.484.969,1.519-.123,2.595-1.954,1.954-3.753,4.048-5.683,6.118a35.77,35.77,0,0,0-3.038,4.2c-1.068,1.577-2.069,3.2-3.047,4.853-.591,1.018-1.182,2.045-1.733,3.088-.821,1.577-1.642,3.178-2.381,4.8-.558,1.265-.961,2.57-1.453,3.843-.107.279-.189.567-.3.821-.427,1.043-.69,1.314-1.248,1.347a1.967,1.967,0,0,1-.378,0c-.394-.049-.509-.591-.312-1.412a32.383,32.383,0,0,1,1.133-3.63c.476-1.2.994-2.4,1.568-3.58.821-1.757,1.749-3.49,2.693-5.2Z" transform="translate(-30.279 -35.842)" fill="#231f20"/>
    <path id="Path_533" data-name="Path 533" d="M159.8,313.379c-4.927-1.5-9.854-3.006-14.839-4.451-1.815-.534-3.638-1-5.444-1.527-6.372-1.839-12.769-3.6-19.207-5.206-2.858-.723-5.748-1.412-8.59-2.078-3.679-.821-7.325-1.79-10.93-2.841-1.125-.337-.92-.509.1-.526a28.264,28.264,0,0,1,5.017.46l2.825.542c.944.181,1.872.419,2.808.624l5.6,1.33c3.728.911,7.506,1.8,11.225,2.874,4.459,1.281,9.14,2.464,13.7,3.745,5.009,1.421,10,2.907,14.986,4.41l9.214,2.767c4.648,1.388,9.312,2.8,13.96,4.106,3.6,1.01,7.169,1.9,10.757,2.792l2.357.583c2.948.755,3.851,1.133,4.36,1.757a2.785,2.785,0,0,1,.337.419c.189.427-1.084.4-3.285-.057-6.487-1.4-13.221-3.285-19.946-5.223l-15-4.451Z" transform="translate(-4.468 -37.807)" fill="#231f20"/>
    <path id="Path_534" data-name="Path 534" d="M294.515,299.72a33.137,33.137,0,0,0-2.365-4.2c-.337-.484-.673-.969-1.035-1.437a41.58,41.58,0,0,0-4.032-4.812,26.276,26.276,0,0,0-2.045-1.905c-.92-.764-1.872-1.478-2.767-2.283-.271-.246-.107-.411.3-.419a2.9,2.9,0,0,1,1.642.517,25.826,25.826,0,0,1,5.6,4.976c.476.583.977,1.166,1.495,1.733s1,1.182,1.462,1.8a36.046,36.046,0,0,1,2.735,4.287c.238.46.493.92.731,1.388l.641,1.421a36.509,36.509,0,0,1,1.577,4.443l.287.862.238.879c.164.575.353,1.158.493,1.749.049.263.115.517.148.821.131.994,0,1.33-.419,1.568a2.558,2.558,0,0,1-.287.164c-.32.115-.665-.255-.9-.928a13.6,13.6,0,0,1-.394-1.511c-.148-.509-.3-1.01-.419-1.527l-.189-.772-.246-.764-.468-1.536c-.271-.755-.542-1.5-.821-2.258a20.356,20.356,0,0,0-.985-2.209Z" transform="translate(-37.032 -35.645)" fill="#231f20"/>
    <path id="Path_535" data-name="Path 535" d="M349.522,294.134l12.318-4.927,4.492-1.831,15.923-6.208c2.365-.911,4.705-1.9,7.038-2.817a88.532,88.532,0,0,1,9.1-3.326c.969-.287.92,0,.23.55a17.491,17.491,0,0,1-3.687,2.3c-6.036,2.6-12.153,4.985-18.378,7.284-3.72,1.371-7.506,3.022-11.267,4.549l-12.383,4.985-7.629,3.1c-3.851,1.577-7.727,3.145-11.5,4.763-2.948,1.265-5.8,2.6-8.688,3.909l-1.905.862c-2.4,1.026-3.227,1.2-3.925.994a2.534,2.534,0,0,1-.46-.148c-.37-.23.493-.928,2.2-1.8,5.083-2.529,10.593-4.878,16.128-7.2l12.4-5.108Z" transform="translate(-43.574 -33.902)" fill="#231f20"/>
    <path id="Path_536" data-name="Path 536" d="M332.305,413.706l6.98-2.176c.821-.271,1.642-.591,2.529-.821l9.033-2.7c1.322-.411,2.652-.862,3.958-1.306a28.035,28.035,0,0,1,5.182-1.4c.567-.082.526.205.148.6a6.119,6.119,0,0,1-2.037,1.322c-1.642.69-3.383,1.224-5.091,1.807s-3.449,1.117-5.2,1.642c-2.1.6-4.213,1.462-6.323,2.168l-7,2.291-4.311,1.412c-2.168.714-4.36,1.4-6.512,2.16-1.642.583-3.285,1.273-4.927,1.889-.361.131-.714.279-1.084.4-1.38.452-1.872.427-2.316,0a2.117,2.117,0,0,1-.3-.312c-.246-.378.222-.887,1.174-1.3a94.425,94.425,0,0,1,9.033-3.367l7-2.283Z" transform="translate(-42.904 -57.215)" fill="#231f20"/>
    <path id="Path_537" data-name="Path 537" d="M403.664,368.43s22.254,0,22.254,7.259c0,9.673-43.35,21.006-81.337,29.735l58.73-24.143Z" transform="translate(-48.198 -50.625)" fill="#231f20"/>
    <path id="Path_538" data-name="Path 538" d="M243.541,191.16c-.2,1.339-.361,68.059-.361,68.059l26.828,3.5,110.506-40.6s4.525-3.063-8.639-5.477Z" transform="translate(-30.066 -18.925)" fill="#231f20" opacity="0.2"/>
    <path id="Path_539" data-name="Path 539" d="M93.48,343.091l.107-10.807c0-1.314-.082-2.62-.066-3.933l.131-6.955.172-6.947v-6.167a50.387,50.387,0,0,1,.238-7.867c.107-.821.641-.714,1.224,0a6.652,6.652,0,0,1,1.363,3.465l.156,2,.082.994v5.009c0,2.677-.066,5.354-.2,8.056-.181,3.219,0,6.569,0,9.854v17.581c0,3.383,0,6.783.082,10.133.057,2.611.37,5.165.468,7.752,0,.567.066,1.125.066,1.692a7.817,7.817,0,0,1-.23,2.258,1.971,1.971,0,0,1-.821,1,3.207,3.207,0,0,1-.468.3c-.263.107-.5-.057-.739-.443a4.344,4.344,0,0,1-.624-1.766A99.518,99.518,0,0,1,93.456,354c-.057-3.621,0-7.259-.066-10.889Z" transform="translate(-3.28 -38.359)" fill="#231f20"/>
    <path id="Path_540" data-name="Path 540" d="M183.251,414,161.9,408.546l-7.8-1.93-27.362-7.128c-4.048-1.059-8.146-2.036-12.178-3.047-5.182-1.3-10.413-2.464-15.5-4.106-1.593-.493-1.306-.714.148-.706.723,0,1.741.049,2.956.164a29,29,0,0,1,4.106.665c10.675,2.4,21.211,5.009,31.829,7.842,6.356,1.7,13.024,3.219,19.552,4.829l21.531,5.329,13.262,3.285c6.693,1.642,13.41,3.285,20.086,4.787,5.182,1.174,10.306,2.16,15.455,3.186l3.391.657c4.229.879,5.535,1.33,6.29,2.266a3.918,3.918,0,0,1,.493.632c.287.657-1.536.747-4.672.222-9.3-1.577-18.953-3.81-28.643-6.118-7.185-1.716-14.387-3.523-21.581-5.3Z" transform="translate(-4.101 -54.774)" fill="#231f20"/>
    <path id="Path_541" data-name="Path 541" d="M275.133,355.1q0-9.583-.049-19.183l-.123-7-.074-24.635c0-3.654-.049-7.325-.123-10.946a125.615,125.615,0,0,1,.148-13.96c.123-1.445.567-1.248,1.092,0a17.858,17.858,0,0,1,.821,2.537,16.132,16.132,0,0,1,.337,1.708,17.7,17.7,0,0,1,.123,1.913c.148,9.493.3,18.969.107,28.552-.107,5.748.14,11.685.205,17.54l.148,19.339v11.9c0,6.011-.09,12.047-.115,18.017,0,4.64.066,9.189,0,13.779v3.022c-.115,3.777-.435,4.968-1.133,5.748a3.285,3.285,0,0,1-.484.509c-.534.328-.9-1.224-.985-3.983-.09-8.212,0-16.777.057-25.456,0-6.43.057-12.884,0-19.331Z" transform="translate(-35.692 -34.52)" fill="#231f20"/>
    <path id="Path_542" data-name="Path 542" d="M366.108,375.66q6.7-2.6,13.369-5.256c2.225-.887,4.443-1.782,6.643-2.7s4.418-1.848,6.512-2.817l.55-.263s.123,0,.107-.082v-2.283c0-1.749,0-3.5.041-5.247l.7-36.953c.09-5.469.066-10.971.082-16.424,0-6.98-.164-13.96.37-20.956.156-2.168.755-1.88,1.421-.041a25.541,25.541,0,0,1,.994,3.81,27.993,27.993,0,0,1,.567,5.436c.066,7.128.189,14.247.066,21.351s-.3,14.28-.558,21.466c-.312,8.589-.2,17.532-.3,26.319l-.041,3.9V366.6a.966.966,0,0,1-.156.09l-.337.164-.665.337-1.191.591-.821.419c-2.234.985-4.467,1.954-6.709,2.866-4.475,1.864-8.967,3.654-13.459,5.444l-16.629,6.5-25.177,9.747c-6.479,2.529-12.753,5.19-19.158,7.719-1.4.558-2.767,1.141-4.2,1.642l-1.839.665c-.567.181-1.092.32-1.568.46-.961.246-1.749.427-2.406.534a11.659,11.659,0,0,1-1.642.172,4.928,4.928,0,0,1-1.182-.131,4.793,4.793,0,0,1-.87-.2c-.3-.156.082-.493.961-.994l1.7-.944c.706-.378,1.527-.78,2.464-1.215,1.371-.706,2.808-1.256,4.237-1.848l4.336-1.782,8.778-3.523c5.929-2.381,11.965-4.746,18.008-7.128l27-10.61Z" transform="translate(-39.959 -35.018)" fill="#231f20"/>
    <path id="Path_543" data-name="Path 543" d="M259.979,266.116l-9.542,3.433-2.4.821-1.2.427-.3.107-.493.156c-.337.1-.682.181-1.018.246l-.255.041a.518.518,0,0,1-.214,0l-.312-.049-.641-.09-1.273-.189-2.521-.4c-6.717-1.109-13.385-2.324-20.053-3.556-4.87-.9-9.747-1.733-14.6-2.669q-25.67-4.985-51.217-10.593c-7.555-1.642-15.151-3.285-22.632-5.058-4.812-1.117-9.624-2.258-14.4-3.548a107.424,107.424,0,0,1-14.165-4.664c-2.874-1.4-2.11-1.749.46-1.265a126.093,126.093,0,0,1,12.712,2.759c9.665,2.595,19.462,4.828,29.275,7.062s19.708,4.385,29.562,6.569c11.85,2.587,24.274,4.837,36.468,7.1q10.063,1.872,20.135,3.654c3.359.583,6.717,1.166,10.076,1.692l2.513.378.632.09c.205,0,.452.09.517,0a1.775,1.775,0,0,1,.32-.181l.172-.066.3-.107,4.812-1.733,23.683-8.622c11.94-4.385,23.945-8.762,35.762-13.213,9.189-3.457,18.132-7.021,27.173-10.552l5.937-2.34c7.456-2.849,9.9-3.589,11.792-3.432a10.051,10.051,0,0,1,1.248.09c.911.255-1.922,1.979-7.341,4.18-16.062,6.569-33.184,13.04-50.4,19.437l-38.521,14.132Z" transform="translate(-4.623 -25.568)" fill="#231f20"/>
    <path id="Path_544" data-name="Path 544" d="M173.86,206.186q-8.918,2.94-17.82,5.97l-6.471,2.283c-7.629,2.587-15.266,5.165-22.87,7.826-3.375,1.166-6.75,2.414-10.068,3.662l-6.405,2.464c-2.135.821-4.311,1.5-6.479,2.184-1.363.419-1.339-.057-.386-.92a19.708,19.708,0,0,1,5.272-3.178c8.688-3.359,17.434-6.569,26.368-9.435,5.346-1.741,10.8-3.835,16.218-5.748q8.943-3.129,17.918-6.183l11.045-3.745,16.719-5.633,12.736-4.508c.944-.312,1.856-.649,2.808-.953a20.325,20.325,0,0,1,3.843-.953,2.989,2.989,0,0,1,1.88.271,3.77,3.77,0,0,1,.632.361c.476.484-.821,1.339-3.383,2.193-7.514,2.669-15.512,5.42-23.56,8.1l-17.967,6.036Z" transform="translate(-4.941 -18.587)" fill="#231f20"/>
    <path id="Path_545" data-name="Path 545" d="M328.343,208.143l-20.989-4.18-7.67-1.421-26.992-5.362c-3.983-.821-8.006-1.552-11.981-2.291-2.554-.468-5.116-.936-7.662-1.445-1.281-.246-2.554-.517-3.827-.821s-2.529-.583-3.818-1.01c-1.642-.509-1.166-.928.287-1.092a25.792,25.792,0,0,1,6.906.353l15.6,2.825c2.6.476,5.214.985,7.818,1.527l7.818,1.642c6.241,1.363,12.81,2.464,19.224,3.671l21.17,4.106,13.016,2.578,19.708,3.95c5.075.985,10.068,1.856,15.093,2.866,1.109.238,2.193.435,3.285.69s1.881.419,2.587.657a17.152,17.152,0,0,1,1.716.657,4.6,4.6,0,0,1,1.733,1.191,4.8,4.8,0,0,1,.46.558c.255.534-1.527.5-4.525,0-8.918-1.708-18.37-3.523-27.83-5.42l-21.17-4.18Z" transform="translate(-30.279 -18.795)" fill="#231f20"/>
    <path id="Path_546" data-name="Path 546" d="M426.578,243.309a28.846,28.846,0,0,0-2.62-4.393c-.353-.517-.821-.944-1.207-1.445a36.83,36.83,0,0,0-4.623-4.853,21.1,21.1,0,0,0-2.373-1.839c-1.051-.739-2.168-1.355-3.178-2.168-.32-.255-.107-.517.361-.649a2.767,2.767,0,0,1,1.905.2,23.051,23.051,0,0,1,6.569,4.787c.575.591,1.158,1.183,1.757,1.774a22.832,22.832,0,0,1,1.733,1.831,31.205,31.205,0,0,1,3.2,4.516,13.9,13.9,0,0,1,.821,1.5c.255.509.526,1.01.764,1.519l.944,2.414c.255.821.476,1.642.739,2.464.23.624.328,1.281.534,1.913l.271.961.14.484.082.493c.041.287.107.567.14.862.082,1.1-.156,1.453-.821,1.692a4.378,4.378,0,0,1-.427.148c-.476.1-.928-.32-1.207-1.043a8.715,8.715,0,0,1-.4-1.642c-.115-.542-.3-1.068-.419-1.642a11.146,11.146,0,0,0-.4-1.642c-.2-.55-.328-1.076-.484-1.642a30.212,30.212,0,0,0-1.881-4.689Z" transform="translate(-60.331 -25.49)" fill="#231f20"/>
    <path id="Path_547" data-name="Path 547" d="M295.188,299.328c-.427-.821-.821-1.642-1.265-2.464a27.339,27.339,0,0,0-1.453-2.349c-.378-.558-.821-1.068-1.2-1.642a52.346,52.346,0,0,0-4.574-5.526,25.4,25.4,0,0,0-2.349-2.168c-1.043-.862-2.168-1.642-3.194-2.464-.32-.246-.156-.526.328-.649a2.8,2.8,0,0,1,2.02.345,25.4,25.4,0,0,1,6.528,5.666c.542.682,1.141,1.322,1.716,2s1.191,1.322,1.708,2.045l.87,1.166c.279.4.534.821.821,1.224l.821,1.224.723,1.273c.616,1.035,1.109,2.135,1.642,3.219a37.087,37.087,0,0,1,1.856,5.124c.107.337.222.665.337,1l.181,1.1c.172.682.4,1.355.55,2.045.041.312.115.616.148.928.09,1.166-.148,1.552-.747,1.8a3.281,3.281,0,0,1-.419.156c-.468.107-.911-.337-1.191-1.1a13.95,13.95,0,0,1-.419-1.708c-.172-.558-.328-1.133-.468-1.708l-.2-.862-.279-.821-.517-1.733c-.337-.821-.616-1.692-.936-2.537s-.731-1.642-1.133-2.464Z" transform="translate(-36.827 -35.171)" fill="#231f20"/>
    <path id="Path_548" data-name="Path 548" d="M349.037,290.406l15.512-5.962,5.641-2.234,20-7.514c2.956-1.109,5.9-2.316,8.828-3.449l5.641-2.193,1.429-.517,1.445-.452c.961-.3,1.946-.575,2.932-.821,1.232-.312,1.158.041.3.821-.435.37-1.068.821-1.839,1.355-.386.263-.821.534-1.265.821l-.714.411c-.255.115-.509.23-.821.337l-5.691,2.349c-1.9.821-3.81,1.544-5.748,2.258q-5.748,2.209-11.636,4.278c-4.681,1.642-9.427,3.671-14.149,5.527l-15.6,6.085-9.558,3.7c-4.829,1.922-9.7,3.827-14.453,5.822-3.7,1.552-7.259,3.227-10.872,4.861-.821.361-1.56.739-2.365,1.092-2.989,1.289-4.016,1.511-4.927,1.191a2.965,2.965,0,0,1-.6-.222c-.493-.328.567-1.248,2.685-2.39,6.381-3.227,13.287-6.118,20.226-8.975,5.165-2.11,10.38-4.163,15.6-6.233Z" transform="translate(-42.087 -32.514)" fill="#231f20"/>
    <path id="Path_549" data-name="Path 549" d="M79.337,262.977c.517-.92,1.018-1.848,1.585-2.734l.821-1.339.87-1.314c.427-.641.821-1.322,1.248-1.93a47.161,47.161,0,0,1,5.362-6.085c.443-.411.862-.821,1.3-1.256l1.339-1.224c.55-.534,1.191-.994,1.8-1.478a8.056,8.056,0,0,1,2.094-1.084c.468-.172.673.427.632,1.174a2.7,2.7,0,0,1-.928,2.053,81.291,81.291,0,0,0-6.43,5.748,18.742,18.742,0,0,0-1.766,2.069c-.534.747-1.026,1.527-1.568,2.266s-1.117,1.683-1.642,2.537S82.974,262.107,82.5,263l-.9,1.642c-.287.558-.55,1.125-.821,1.683a40.785,40.785,0,0,0-2.127,5.264,30.841,30.841,0,0,0-.821,4.237c-.049.312-.09.616-.131.928-.164,1.141-.411,1.478-1.158,1.642a3.523,3.523,0,0,1-.509.115c-.558.049-.928-.5-.961-1.445a13.8,13.8,0,0,1,.057-2.1,12.941,12.941,0,0,1,.3-2.11,32.954,32.954,0,0,1,1.224-4.106,57.2,57.2,0,0,1,2.628-5.83Z" transform="translate(0 -28.464)" fill="#231f20"/>
    <path id="Path_550" data-name="Path 550" d="M247.617,302.523c1.2-1.9,2.464-3.736,3.818-5.559.493-.665.928-1.355,1.429-2a73.5,73.5,0,0,1,5.83-6.438l2.726-2.71a18.411,18.411,0,0,1,3.769-3.137c.452-.255.747.246.78.969a2.907,2.907,0,0,1-.87,2.242c-2.357,2.16-4.549,4.451-6.939,6.684a36.276,36.276,0,0,0-3.745,4.64c-1.33,1.749-2.57,3.572-3.786,5.412-.723,1.158-1.47,2.291-2.135,3.482-.517.9-1.043,1.782-1.527,2.7s-.977,1.815-1.4,2.751c-.682,1.437-1.158,2.948-1.757,4.4-.123.328-.222.649-.361.977-.509,1.191-.821,1.495-1.552,1.486a3.147,3.147,0,0,1-.485,0c-.517-.09-.69-.739-.452-1.692a31.2,31.2,0,0,1,1.347-4.2c.567-1.38,1.215-2.751,1.913-4.106,1.026-2,2.16-3.983,3.342-5.912Z" transform="translate(-29.649 -35.278)" fill="#231f20"/>
    <path id="Path_551" data-name="Path 551" d="M152.723,309.659c-6.2-1.8-12.4-3.589-18.624-5.288-2.266-.624-4.558-1.158-6.832-1.766q-6-1.642-12.03-3.12c-4-.977-8.056-1.831-12.121-2.685-3.6-.755-7.259-1.453-10.84-2.258-1.158-.255-2.308-.534-3.457-.821s-2.283-.649-3.416-1.018a53.374,53.374,0,0,1-6.569-2.644c-1.33-.649-1.01-.87.279-.772a43.905,43.905,0,0,1,6.167,1.026c1.158.263,2.3.542,3.465.772s2.3.55,3.457.821c2.308.526,4.64,1.018,6.98,1.486,4.681.953,9.427,1.831,14.157,3.03,5.641,1.47,11.5,2.767,17.245,4.287,6.3,1.642,12.572,3.424,18.83,5.2l11.554,3.285c5.839,1.642,11.677,3.367,17.491,4.927,4.525,1.207,9.033,2.217,13.492,3.285.994.23,1.971.435,2.964.682,3.687.92,4.812,1.4,5.428,2.316a2.957,2.957,0,0,1,.394.616c.222.632-1.4.7-4.106.189-8.154-1.577-16.588-3.827-25.029-6.159l-18.813-5.321Z" transform="translate(-0.524 -36.468)" fill="#231f20"/>
    <path id="Path_552" data-name="Path 552" d="M244.115,236.424l.14-9.657v-3.523l.205-12.416v-5.5c0-2.34-.049-4.7.172-7.046.131-1.453,1.182.435,1.2,3.12,0,4.771,0,9.542-.214,14.362-.107,2.882,0,5.88-.057,8.828l-.09,9.731c0,2-.041,3.991-.066,5.986,0,3.022-.066,6.06-.09,9.033,0,2.332,0,4.623.057,6.931V257.8c0,1.905-.32,2.464-.6,2.891a1.867,1.867,0,0,1-.189.255c-.1.09-.181-.066-.271-.411a9.092,9.092,0,0,1-.246-1.585c-.164-4.106-.107-8.45-.082-12.81,0-3.235.057-6.487.09-9.739Z" transform="translate(-30.204 -20.108)" fill="#231f20"/>
    <path id="Path_553" data-name="Path 553" d="M242,232.765l.066-10.4c0-1.265-.066-2.529-.057-3.794l.156-13.385v-9.747a20.275,20.275,0,0,1,.37-3.868c.287-.994.714-.509,1.1.148a6.569,6.569,0,0,1,.879,3.285c0,2.537.074,5.108,0,7.678s-.1,5.157-.214,7.752c-.131,3.112,0,6.339.049,9.517v26.713c0,2.513.172,4.985.181,7.5V255.8c-.057,2.094-.632,2.759-1.2,3.112a1.428,1.428,0,0,1-.37.189c-.172,0-.279-.172-.378-.526-.049-.189-.115-.419-.181-.69a6.832,6.832,0,0,1-.14-.969c-.213-4.336-.222-9.033-.246-13.705V232.732Z" transform="translate(-29.855 -18.896)" fill="#231f20"/>
    <path id="Path_554" data-name="Path 554" d="M175.738,206.746l-16.924,5.921-6.142,2.225-21.72,7.727c-3.2,1.158-6.413,2.357-9.575,3.556l-6.11,2.316c-2.037.755-4.106,1.47-6.159,2.143-1.289.419-1.224.09-.255-.591a27.3,27.3,0,0,1,5.141-2.7c8.294-3.178,16.6-6.274,25.071-9.189,5.058-1.741,10.265-3.736,15.413-5.6l17.015-6.077,10.486-3.687,15.9-5.518c4.106-1.429,8.072-2.907,12.129-4.3l2.661-.92c3.367-1.084,4.492-1.265,5.346-1.018a2.645,2.645,0,0,1,.575.181c.427.271-.821.977-3.285,1.815l-22.467,7.818-17.072,5.945Z" transform="translate(-5.916 -18.884)" fill="#231f20"/>
    <path id="Path_555" data-name="Path 555" d="M285.229,217.284l-7.136-1.724-2.611-.583-9.181-2.168q-2.045-.468-4.106-.87c-1.749-.337-3.5-.7-5.247-.985-.542-.09-.468-.156,0-.189a11.364,11.364,0,0,1,2.381.082c3.621.5,7.21,1.092,10.782,1.9,2.135.509,4.377.92,6.569,1.4l7.226,1.593,4.467.969c2.242.493,4.492,1.018,6.725,1.47,1.733.353,3.457.624,5.173.961q.567.1,1.133.222c1.4.328,1.831.517,2.061.9a1.067,1.067,0,0,1,.156.255c.09.263-.534.345-1.585.23-1.577-.164-3.162-.419-4.771-.714s-3.211-.682-4.829-1.051Z" transform="translate(-32.46 -22.426)" fill="#231f20"/>
    <path id="Path_556" data-name="Path 556" d="M281.1,227.935l-3.1-.78-1.133-.255-4-.985c-.591-.14-1.191-.263-1.782-.378a19.355,19.355,0,0,1-2.275-.5c-.46-.148.287-.706,1.158-.534,1.552.312,3.1.657,4.64,1.092.92.255,1.905.427,2.858.641l3.137.747,1.93.476,2.915.723c.755.172,1.5.3,2.258.46l.493.1c.608.148.821.255.821.517a1.48,1.48,0,0,1,.049.181c0,.189-.279.271-.739.2-1.355-.205-2.743-.55-4.106-.9l-3.129-.78Z" transform="translate(-34.624 -24.882)" fill="#231f20"/>
    <path id="Path_557" data-name="Path 557" d="M375.245,136.4a11.2,11.2,0,0,1-1.642,2.373,11.892,11.892,0,0,1-2.242,1.831,15,15,0,0,1-5.042,1.88,33.876,33.876,0,0,1-3.58.567,48.36,48.36,0,0,0-5.822.747,13.821,13.821,0,0,0-5.108,2.086,9.164,9.164,0,0,0-3.038,3.662,7.456,7.456,0,0,0-.632,2.784,4.607,4.607,0,0,0,.624,2.521c.287.493-.09.985-1.043.969a2.077,2.077,0,0,1-.821-.172,2.546,2.546,0,0,1-.87-.517,3.572,3.572,0,0,1-1.232-2.184,6.34,6.34,0,0,1,0-2.365,10.47,10.47,0,0,1,.632-2.11,12.12,12.12,0,0,1,2.275-3.556,14.05,14.05,0,0,1,7.013-3.868,75.554,75.554,0,0,1,8.828-1.47c2.964-.32,5.863-1.117,7.6-3.211a7.9,7.9,0,0,0,1.306-2.168,10.669,10.669,0,0,0,.435-1.248,5.746,5.746,0,0,0,.189-1.182,8.05,8.05,0,0,0-3.6-6.569,8.557,8.557,0,0,0-5.576-1.577,7.785,7.785,0,0,0-1.125.238,6.109,6.109,0,0,1-1.478.287,2.168,2.168,0,0,1-1.158-.394,6.41,6.41,0,0,1-.583-.32c-.279-.2-.361-.509-.238-.994a1.774,1.774,0,0,1,.427-.755,4,4,0,0,1,.887-.764,7.719,7.719,0,0,1,3.761-1.059,10.208,10.208,0,0,1,3.835.591,13.476,13.476,0,0,1,6.118,4.533,10.93,10.93,0,0,1,2.258,5.584,9.189,9.189,0,0,1-.271,3.2,14.338,14.338,0,0,1-1.035,2.669Z" transform="translate(-48.217 -6.173)" fill="#231f20"/>
    <path id="Path_558" data-name="Path 558" d="M345.613,170.641a2.685,2.685,0,0,0,1.1,3.227,2.874,2.874,0,0,0,3.285-.575,3.531,3.531,0,0,0,.714-3.958,2.258,2.258,0,0,0-1.922-1.306,2.759,2.759,0,0,0-2.127,1.018,1.579,1.579,0,0,0,2.234,2.234,1.973,1.973,0,0,1,.222-.23c-.14.1-.14.107,0,0a.936.936,0,0,1-.9,0,.821.821,0,0,1-.328-.312c.057.115.066.107,0,0s-.057-.131,0,0v.123c0,.181,0,.148-.074.222.107-.23.115-.271.041-.123l-.041.074c-.1.131-.066.1.09-.115l-.115.123c-.123.107-.082.074.131-.1l-.131.082c-.148.074-.09.049.172-.066l-.205.057c.3,0,.378-.041.214,0h-.131c.312.049.386.057.23,0s-.082,0,.205.082c-.23-.115.287.279.123.1.172.246.222.3.131.164.107.279.14.337.082.189s0-.1,0,.189a.665.665,0,0,1,0-.181c-.074.526,0,0,.041-.09a1.578,1.578,0,0,0-3.047-.821Z" transform="translate(-48.352 -14.789)" fill="#231f20"/>
    <path id="Path_559" data-name="Path 559" d="M171.639,99.963a7.884,7.884,0,0,0,.821,1.774,8.328,8.328,0,0,0,1.322,1.486,11.611,11.611,0,0,0,3.868,2.02,33.916,33.916,0,0,0,3.449.821,51.619,51.619,0,0,1,6.569,1.872,18.829,18.829,0,0,1,6.093,3.613,16.973,16.973,0,0,1,2.151,2.381,14.363,14.363,0,0,1,1.577,2.792,9.3,9.3,0,0,1,.821,4.2,5.453,5.453,0,0,1-2.151,3.925c-.821.534-1.01-.148-1.059-1.059a3.279,3.279,0,0,0-.057-.731v-.37a.785.785,0,0,0-.066-.378,10.374,10.374,0,0,1-.2-1.355,8.959,8.959,0,0,0-2-5.231,14.2,14.2,0,0,0-4.993-4.106c-2.464-1.322-5.6-1.708-8.688-2.381a21.1,21.1,0,0,1-5.231-1.823,11.677,11.677,0,0,1-4.385-3.8,10.938,10.938,0,0,1-1.5-3.235,15.322,15.322,0,0,1-.4-1.692c-.041-.3-.082-.616-.107-.928a8.731,8.731,0,0,1,0-.928,9.756,9.756,0,0,1,1.807-5.091,14.83,14.83,0,0,1,3.712-3.662,13.533,13.533,0,0,1,7.662-2.751,8.828,8.828,0,0,1,1.946.214,4.007,4.007,0,0,1,2.283,1.322,1.552,1.552,0,0,1,.328.714,2.045,2.045,0,0,1-.082.764,3.441,3.441,0,0,1-.2.657c-.337.608-1.38.591-2.464.378a8.721,8.721,0,0,0-4.927.6,11.644,11.644,0,0,0-4.467,3.038,7.218,7.218,0,0,0-1.774,3.285,4.656,4.656,0,0,0-.074,1.642,10.454,10.454,0,0,0,.509,2Z" transform="translate(-16.524 0)" fill="#231f20"/>
    <path id="Path_560" data-name="Path 560" d="M199.838,141.471c.074.345-.041-.361,0,.115,0,.3.131-.394,0,0,.123-.263.156-.337.09-.23s0,.049.156-.2c-.123.115-.066.074.181-.131q-.222.123.222-.074c-.378.123.37,0,.1,0s.443.09.148,0,.279.156,0,0l-.148-.09c.214.172.271.214.172.131l-.1-.1c-.115-.123-.082-.082.09.131a1.124,1.124,0,0,1-.107-.164c-.074-.156-.057-.115.049.131l-.1-.345c.1.386,0-.107,0-.23v.082c-.107.222-.115.255,0,.09s-.214.222-.271.255a1,1,0,0,1-.953.049c-.156-.14-.164-.131,0,0a2.4,2.4,0,0,1,.23.263,1.683,1.683,0,0,0,2.381,0,1.741,1.741,0,0,0,0-2.381,2.874,2.874,0,0,0-2.25-1.158,2.463,2.463,0,0,0-2.086,1.363,3.8,3.8,0,0,0,.616,4.254,3.079,3.079,0,0,0,3.153.887c1.56-.526,1.971-2.135,1.642-3.589a1.692,1.692,0,0,0-2.069-1.174,1.716,1.716,0,0,0-1.174,2.069Z" transform="translate(-21.853 -9.351)" fill="#231f20"/>
    <g id="Group_185" data-name="Group 185" transform="translate(214.009 96.038)" opacity="0.3">
      <path id="Path_561" data-name="Path 561" d="M244.713,99.437c-.2-.386.156-.723.821-.994a1.643,1.643,0,0,1,.977,0,4.05,4.05,0,0,1,.493.616c.058.123.476,2.127.673,2.792a10.979,10.979,0,0,1,.345,1.979c.156,1.355.378,2.7.591,4.048a4.3,4.3,0,0,1,.049.92,10.675,10.675,0,0,0,.378,3.1,1.01,1.01,0,0,0,.189.493,15.265,15.265,0,0,1,.821,3.367,25.654,25.654,0,0,0,.123,2.759c0,.131.082.255,0,.4a.907.907,0,0,0,0,.87,10.765,10.765,0,0,1,.156,1.166,2.462,2.462,0,0,1-.14.649c-.049.2-.452.246-.517.205s-.3.074-.452.14a1.135,1.135,0,0,1-.164.066,7.036,7.036,0,0,1-.821-1,7.562,7.562,0,0,1-.821-1.232s-.3-.821-.616-1.716-.6-1.766-.673-1.946a1.643,1.643,0,0,1-.057-.608c0-.1-.821-2.718-.821-2.825A4.041,4.041,0,0,1,245.14,111a.665.665,0,0,0,0-.337,21.072,21.072,0,0,1-.312-2.874,12.88,12.88,0,0,0-.2-1.47,1.512,1.512,0,0,1,0-.271,1.567,1.567,0,0,0,0-.337c-.172-1.158-.148-2.332-.361-3.5,0-.271.181-1.577.131-1.889C244.36,100.176,244.787,99.593,244.713,99.437Z" transform="translate(-244.27 -98.369)" fill="#231f20"/>
    </g>
    <path id="Path_562" data-name="Path 562" d="M299.457,147.158c-.049.328-.443.3-1.051.049a1.782,1.782,0,0,1-.657-.583,3.543,3.543,0,0,1-.049-.632c0-.115.706-1.445.9-1.922a6.57,6.57,0,0,1,.764-1.248c.575-.821,1.117-1.642,1.642-2.464a2.849,2.849,0,0,1,.452-.493,7.014,7.014,0,0,0,1.421-1.807.583.583,0,0,0,.131-.361,8.211,8.211,0,0,1,1.4-2.143c.583-.419,1.092-.887,1.642-1.322.082-.057.123-.156.271-.164a.747.747,0,0,0,.583-.337,5.821,5.821,0,0,1,.673-.583,1.979,1.979,0,0,1,.468-.181c.148-.049.345.189.345.246s.181.164.287.23a.4.4,0,0,1,.115.074,6.9,6.9,0,0,1-.181.928c-.1.468-.2.953-.238,1.035s-.074.156-.172.37-.246.5-.386.821c-.279.583-.575,1.182-.641,1.306a.994.994,0,0,1-.3.312c-.041.049-.936,1.766-.994,1.823-.255.312-.4.7-.821.887-.082,0-.115.107-.156.181a13.558,13.558,0,0,1-1.306,1.642c-.23.271-.411.583-.624.862,0,.057-.107.082-.156.123a.71.71,0,0,0-.181.172c-.484.69-1.092,1.281-1.527,2.012-.1.172-.9.723-1.018.92S299.474,147.035,299.457,147.158Z" transform="translate(-39.815 -8.518)" fill="#231f20"/>
    <g id="Group_186" data-name="Group 186" transform="translate(121.112 149.899)" opacity="0.3">
      <path id="Path_563" data-name="Path 563" d="M131.362,165.528c-.32-.123-.263-.509,0-1.051.082-.181.484-.534.608-.517a3.286,3.286,0,0,1,.649.115c.115,0,1.478,1.1,1.963,1.453a7.908,7.908,0,0,1,1.24,1.158l2.332,2.529a3.383,3.383,0,0,1,.435.624,9.5,9.5,0,0,0,1.577,2.078.7.7,0,0,0,.353.271,9.238,9.238,0,0,1,1.889,2.193c.3.723.665,1.4,1,2.1.049.1.148.164.107.32-.082.353.1.509.222.706a5.207,5.207,0,0,1,.452.879,1.7,1.7,0,0,1,0,.583c0,.181-.394.378-.46.37-.2,0-.287.181-.419.3l-.148.115a10.1,10.1,0,0,1-1.93-1.125l-.977-1.051c-.5-.526-1.018-1.068-1.141-1.174a1.2,1.2,0,0,1-.238-.427c0-.057-1.544-1.642-1.585-1.692a2.907,2.907,0,0,1-.673-1.166.468.468,0,0,0-.14-.23,20.023,20.023,0,0,1-1.339-1.88c-.214-.328-.493-.608-.731-.92a.723.723,0,0,1-.09-.2,1.109,1.109,0,0,0-.131-.238c-.608-.7-1.1-1.495-1.774-2.135-.156-.148-.616-1.1-.821-1.265S131.494,165.578,131.362,165.528Z" transform="translate(-131.143 -163.959)" fill="#231f20"/>
    </g>
    <path id="Path_564" data-name="Path 564" d="M136.226,322.31l-4.36-1c-.534-.131-1.068-.214-1.642-.345-1.856-.476-3.712-.985-5.551-1.5-.821-.222-1.642-.427-2.464-.624a18.889,18.889,0,0,1-3.137-.87c-.624-.263.526-1.248,1.733-.985,2.151.484,4.27,1.035,6.389,1.724,1.265.411,2.628.641,3.95.936l4.377.953,2.7.558c1.371.263,2.743.558,4.106.821,1.068.181,2.127.287,3.186.452a3.483,3.483,0,0,1,.706.1c.821.181,1.109.353,1.182.821a1.594,1.594,0,0,1,.049.328c0,.353-.419.542-1.051.485a57.55,57.55,0,0,1-5.814-.911l-4.36-.9Z" transform="translate(-7.841 -41.417)" fill="#231f20"/>
    <path id="Path_565" data-name="Path 565" d="M130.744,337.153l-2.11-.468c-.255-.049-.517-.082-.78-.14-.9-.2-1.815-.427-2.718-.657-.4-.1-.821-.189-1.215-.271a5.363,5.363,0,0,1-1.536-.468c-.3-.164.411-.879.953-.714.994.271,2.012.517,3.047.821.616.189,1.281.255,1.93.386l2.135.435,1.322.279,1.987.46c.517.115,1.035.189,1.552.312a.964.964,0,0,1,.337.082c.419.14.526.255.517.534v.181c0,.205-.263.3-.567.255-.9-.131-1.815-.328-2.751-.55l-2.1-.468Z" transform="translate(-8.452 -44.542)" fill="#231f20"/>
  </g>
</svg>
