<svg xmlns="http://www.w3.org/2000/svg" width="43.61" height="52.09" viewBox="0 0 43.61 52.09">
  <path id="Path_127" data-name="Path 127" d="M160.514,39.2a16.161,16.161,0,0,0-8.461,2.2c-2.2,1.37-3.653,3.336-3.653,5.584V77.451c0,2.247,1.455,4.214,3.653,5.584a17.4,17.4,0,0,0,16.922,0,8.4,8.4,0,0,0,2.915-2.915.578.578,0,0,0,.076-.057,6.023,6.023,0,0,1,3.691-.889,7.532,7.532,0,0,1,1.212.095c.077,4.942,1.823,8.047,4.5,9.8,2.744,1.8,6.349,2.215,10.032,2.215a.606.606,0,0,0,.606-.606V59.791a.606.606,0,0,0-.606-.606,18.331,18.331,0,0,1-8.479-1.893V52.5c0-3.948-3.365-6.644-7.269-6.644a7.563,7.563,0,0,0-3.085.454,7.1,7.1,0,0,0-3.6-4.921,16.162,16.162,0,0,0-8.461-2.2Zm0,1.211a15.031,15.031,0,0,1,7.817,2.006c1.962,1.223,3.085,2.836,3.085,4.562V74.4A9.353,9.353,0,0,0,168.5,71.98a17.8,17.8,0,0,0-15.975,0,9.354,9.354,0,0,0-2.915,2.423V46.977c0-1.725,1.123-3.339,3.085-4.562a15.03,15.03,0,0,1,7.817-2.006Zm15.142,6.663c3.365,0,6.057,2.162,6.057,5.433V80.858a7.453,7.453,0,0,0-6.057-2.9,9.246,9.246,0,0,0-3.123.435,5.173,5.173,0,0,0,.095-.946V47.64a5.551,5.551,0,0,1,3.028-.568Zm7.269,11.584A19.911,19.911,0,0,0,190.8,60.34V90.019a18.524,18.524,0,0,1-7.874-1.476ZM160.514,71.3a15.529,15.529,0,0,1,7.4,1.742,6.336,6.336,0,0,1,3.464,4.07.628.628,0,0,0,.038.113v.227c0,1.725-1.123,3.339-3.085,4.562a16.231,16.231,0,0,1-15.634,0c-1.962-1.223-3.085-2.836-3.085-4.562v-.208a.631.631,0,0,0,.038-.132,6.336,6.336,0,0,1,3.464-4.07,15.528,15.528,0,0,1,7.4-1.742Zm0,2.423a13.245,13.245,0,0,0-5.394,1.022,5.408,5.408,0,0,0-1.741,1.211,2.335,2.335,0,0,0,0,3.407,5.413,5.413,0,0,0,1.741,1.211,14.748,14.748,0,0,0,10.789,0,5.412,5.412,0,0,0,1.742-1.211,2.335,2.335,0,0,0,0-3.407,5.4,5.4,0,0,0-1.742-1.211A13.244,13.244,0,0,0,160.514,73.722Zm0,1.212a12.15,12.15,0,0,1,4.884.927,4.319,4.319,0,0,1,1.363.908,1.158,1.158,0,0,1,0,1.779,4.318,4.318,0,0,1-1.363.909,13.321,13.321,0,0,1-9.767,0,4.322,4.322,0,0,1-1.363-.909,1.159,1.159,0,0,1,0-1.779,4.32,4.32,0,0,1,1.363-.908A12.148,12.148,0,0,1,160.514,74.933ZM178.1,79.589a5.236,5.236,0,0,1,3.6,4.562.606.606,0,0,0,.019.114V87.8c-2.1-1.526-3.484-3.992-3.615-8.215Z" transform="translate(-148.4 -39.197)" fill="#d05335"/>
</svg>
