<svg width="17" height="17" viewBox="0 0 17 17" fill="none" xmlns="http://www.w3.org/2000/svg">
<path d="M8.49999 0C3.80562 0 0 3.78081 0 8.50001C0 13.2192 3.80562 17.0001 8.49999 17.0001C12.5751 17.0001 16.9911 13.7641 17 8.44731V6.80001H8.49999V10.2H13.2547C12.5507 12.1737 10.7154 13.6 8.49999 13.6C5.68337 13.6 3.4 11.3169 3.4 8.50001C3.4 5.68312 5.68337 3.40001 8.49999 3.40001C9.6945 3.40001 10.8026 3.80038 11.6582 4.49738C11.9366 4.21943 13.6 2.55003 14.1387 2.11993C12.6397 0.776918 10.6797 0 8.49999 0Z" fill="white"/>
</svg>
