<svg width="51" height="53" viewBox="0 0 51 53" fill="none" xmlns="http://www.w3.org/2000/svg">
<path d="M51 0.610415C51 0.277414 50.7302 0.00756836 50.3972 0.00756836H0.578377C0.262242 0.020486 0.00997935 0.275264 0.000287877 0.591399C-0.0094036 0.907534 0.22671 1.17774 0.541412 1.20968C0.454932 4.15212 0.203745 16.6343 1.84292 24.8734C1.63982 24.8497 1.43851 24.9312 1.30897 25.0891C1.11519 25.3309 1.13242 25.679 1.34916 25.9004C1.51423 26.0608 1.71015 26.186 1.92473 26.2686C0.460995 31.1796 0.0479826 48.4469 0.782514 50.0719C0.92174 50.288 1.13202 50.4491 1.37675 50.5277C2.16871 50.8305 3.00768 50.9916 3.85557 51.0031C4.61164 51.0121 5.35733 50.8251 6.02003 50.4606C6.80516 50.8689 7.68108 51.0706 8.56562 51.0469C9.0479 51.0537 9.52834 50.9909 9.99271 50.861C10.3361 50.7695 10.649 50.588 10.8988 50.335C11.6803 50.6683 12.5182 50.8506 13.3679 50.8725C13.8832 50.8983 14.395 50.7742 14.8413 50.5151C15.1783 50.3073 15.3771 49.9342 15.3609 49.5383C14.9159 42.199 13.4788 34.9534 11.0886 27.9994C11.2827 27.975 11.4524 27.8573 11.5439 27.6847C11.6354 27.5117 11.6369 27.305 11.5479 27.131C14.4086 24.7936 22.7275 17.1364 25.4457 5.25949C25.459 5.19634 25.5146 5.15112 25.5792 5.15112C25.6438 5.15112 25.6994 5.19634 25.7127 5.25949C28.4327 17.1364 36.7518 24.794 39.6106 27.131C39.5216 27.305 39.523 27.5117 39.6145 27.6847C39.706 27.8573 39.8757 27.975 40.0699 27.9994C37.6796 34.9529 36.2421 42.1976 35.7968 49.5365C35.7807 49.9319 35.9795 50.3055 36.3164 50.5133C36.7624 50.7724 37.2745 50.8965 37.7898 50.8703C38.6395 50.8488 39.477 50.6665 40.2589 50.3331C40.5087 50.5861 40.8216 50.7677 41.165 50.8592C41.6293 50.9891 42.1098 51.0515 42.5921 51.0447C43.4766 51.0687 44.3525 50.8667 45.1377 50.4584C45.8001 50.8233 46.5461 51.0099 47.3021 51.0009C48.1501 50.9898 48.989 50.8287 49.7806 50.5255C50.0257 50.4472 50.2356 50.2861 50.3752 50.0697C51.1108 48.4442 50.6967 31.1773 49.2341 26.2664C49.4487 26.1835 49.6446 26.0583 49.8097 25.8982C50.0264 25.6768 50.0436 25.3284 49.8498 25.0869C49.7203 24.9286 49.519 24.8472 49.3162 24.8709C50.9641 16.5976 50.7017 4.042 50.6163 1.16854C50.8463 1.07847 50.9977 0.857074 50.9988 0.609836L51 0.610415ZM14.1366 49.2598C14.1484 49.4371 14.026 49.5953 13.8516 49.6283C13.0123 49.7241 12.1626 49.5885 11.3943 49.2365C11.2924 49.1959 11.2228 49.1001 11.216 48.9907C11.1457 47.7379 10.939 44.4356 10.5062 40.093C10.4728 39.7618 10.1775 39.5199 9.84595 39.5533C9.51438 39.5866 9.27288 39.8823 9.30625 40.2135C9.76772 44.8411 9.96975 48.2658 10.0243 49.2792C10.0311 49.4271 9.94355 49.5627 9.80647 49.618C8.81069 49.9302 7.7381 49.8921 6.76712 49.51C6.67489 49.4665 6.61317 49.3765 6.60636 49.2749C6.54715 48.4417 6.49978 46.321 6.47251 45.0952L6.45637 44.3933C6.44847 44.0603 6.17253 43.7969 5.83953 43.8045C5.50653 43.8124 5.24278 44.0887 5.25067 44.4217L5.26682 45.1218C5.31275 47.1736 5.3472 48.4744 5.39528 49.2078C5.40497 49.3398 5.33284 49.4644 5.21335 49.5214C4.16841 50.0008 3.03731 49.787 2.00175 49.4633C1.89876 49.4314 1.82376 49.3431 1.80833 49.2365C1.39962 46.4825 1.69674 31.5429 3.00612 26.8542C3.02012 26.8047 3.05349 26.7627 3.09906 26.738C3.14428 26.7132 3.19774 26.7078 3.24726 26.7233C3.47189 26.7875 3.71482 26.8532 3.97068 26.9188V26.9192C4.22007 26.9845 4.3959 27.2077 4.40093 27.4657C4.43071 28.6083 4.37724 29.9786 4.33131 31.1298C4.29794 31.9706 4.26887 32.6972 4.28323 33.1264C4.29363 33.4518 4.56061 33.7102 4.88607 33.7098C5.00162 33.7001 5.11394 33.6657 5.21512 33.609C5.49107 33.408 5.48354 33.1202 5.48604 32.7786C5.48927 32.3767 5.51188 31.8101 5.53664 31.1775C5.58365 29.9998 5.63748 28.5999 5.60554 27.4086C5.60482 27.3821 5.61666 27.3566 5.63747 27.3397C5.65793 27.3232 5.6852 27.3168 5.71104 27.3229C5.95684 27.3745 6.20193 27.4244 6.44378 27.4711V27.4714C6.81052 27.5385 7.108 27.8062 7.21349 28.1636C7.97315 30.7595 8.47807 33.4231 8.72132 36.1165C8.75182 36.4248 9.0109 36.6594 9.32057 36.6598C9.46734 36.676 9.61374 36.6257 9.7196 36.5227C9.88898 36.2834 9.95105 35.9845 9.89077 35.6974C9.63636 33.0603 9.13542 30.453 8.39479 27.9092C8.38834 27.8859 8.39408 27.8604 8.41022 27.8421C8.42637 27.8235 8.45077 27.8145 8.47517 27.8177C8.82576 27.8683 9.15409 27.9092 9.45626 27.9412C9.66905 27.9634 9.84991 28.1062 9.92167 28.3075C12.2587 35.0713 13.6765 42.1181 14.1366 49.2595L14.1366 49.2598ZM10.2604 26.6185C10.1237 26.7258 9.95112 26.7771 9.77816 26.762C9.54815 26.7408 9.29839 26.7125 9.03142 26.678C9.00415 26.6755 8.98047 26.6572 8.97114 26.6318C8.96181 26.6059 8.96791 26.5769 8.98728 26.5575C9.72828 25.8193 10.4176 25.0314 11.0506 24.1985C11.15 24.0718 11.1949 23.9107 11.1748 23.7506C11.1547 23.5909 11.0714 23.4456 10.9437 23.3477C10.8159 23.2493 10.6541 23.2066 10.4944 23.2285C10.3347 23.2508 10.1905 23.3358 10.0939 23.4646C9.3429 24.4683 8.49463 25.3958 7.56204 26.2338C7.42711 26.3494 7.24662 26.3974 7.07223 26.3637C6.72272 26.2995 6.36532 26.2288 6.00433 26.1531C5.97813 26.1481 5.95589 26.1315 5.94333 26.1082C5.93077 26.0849 5.92969 26.0569 5.9401 26.0325C6.79162 24.178 7.72241 20.4124 8.21479 17.3167V17.3163C8.26718 16.9877 8.04291 16.6787 7.71386 16.6263C7.38517 16.5743 7.07621 16.7985 7.02382 17.1272C6.48341 20.5269 5.60427 23.7586 4.95012 25.309C4.80981 25.6306 4.45564 25.8014 4.11654 25.7109C3.81475 25.6306 3.53809 25.5538 3.29193 25.4784V25.4781C3.232 25.4601 3.18679 25.411 3.17423 25.3496C1.41268 17.345 1.66751 4.11195 1.74789 1.21278H24.9055C23.2922 15.8703 12.4453 24.9325 10.2608 26.6182L10.2604 26.6185ZM49.3515 49.235C49.3361 49.3416 49.2607 49.4298 49.1581 49.4618C48.1226 49.7858 46.9933 49.9997 45.9465 49.5199C45.827 49.4629 45.7545 49.3383 45.7646 49.2059C45.812 48.4725 45.8475 47.1716 45.893 45.1199L45.9092 44.4198C45.9171 44.0868 45.6533 43.8108 45.3203 43.803C44.9873 43.7951 44.7114 44.0588 44.7035 44.3918L44.6874 45.0937C44.6601 46.3195 44.6127 48.4402 44.5535 49.2734V49.2731C44.5467 49.375 44.485 49.4647 44.3927 49.5081C43.4218 49.8906 42.3492 49.9287 41.3534 49.6165C41.216 49.5612 41.1288 49.4252 41.1356 49.2777C41.1901 48.2644 41.3925 44.8397 41.8536 40.212C41.887 39.8805 41.6451 39.5848 41.3139 39.5518C40.9824 39.5184 40.687 39.7599 40.6537 40.0915C40.2209 44.432 40.0142 47.7365 39.9439 48.9892V48.9888C39.9371 49.0986 39.8674 49.1944 39.7655 49.235C38.9973 49.587 38.1476 49.7223 37.3082 49.6268C37.1338 49.5934 37.0115 49.4355 37.0233 49.2583C37.484 42.1167 38.9022 35.0692 41.2403 28.3063C41.3117 28.1047 41.493 27.9622 41.7057 27.9396C42.0079 27.908 42.3362 27.8667 42.6868 27.8161V27.8165C42.7109 27.8129 42.7353 27.8222 42.7514 27.8405C42.7676 27.8592 42.7737 27.8843 42.7672 27.908C42.0262 30.4515 41.5252 33.0591 41.2709 35.6958C41.2106 35.9829 41.2727 36.2822 41.442 36.5215C41.5479 36.6241 41.6943 36.6744 41.8411 36.6586C42.1507 36.6582 42.4098 36.4232 42.4403 36.1149C42.6836 33.4215 43.1889 30.7583 43.9482 28.1624C44.0536 27.8057 44.35 27.538 44.7161 27.4699C44.9572 27.4232 45.2026 27.3733 45.4488 27.3217H45.4485C45.4746 27.3156 45.5019 27.3217 45.5224 27.3385C45.5432 27.3554 45.555 27.3805 45.5543 27.4071C45.522 28.5988 45.5758 29.9986 45.6232 31.1759C45.648 31.8085 45.6706 32.3744 45.6738 32.7771C45.6763 33.1187 45.6684 33.4065 45.9447 33.6074V33.6078C46.0459 33.6641 46.1582 33.6986 46.2738 33.7086C46.5992 33.7086 46.8662 33.4502 46.8766 33.1251C46.8906 32.6952 46.8619 31.9693 46.8285 31.1286C46.7826 29.9775 46.7291 28.6071 46.7589 27.4645V27.4641C46.7639 27.2065 46.9398 26.9833 47.1892 26.9176C47.4472 26.8516 47.6901 26.7863 47.9147 26.722C47.9639 26.7066 48.0174 26.712 48.0629 26.7364C48.1085 26.7612 48.1419 26.8031 48.1559 26.853C49.4634 31.5431 49.7606 46.4822 49.3515 49.2353L49.3515 49.235ZM47.9851 25.3499C47.9722 25.4112 47.9269 25.4604 47.8674 25.4787C47.6209 25.5544 47.3449 25.6323 47.0428 25.7112H47.0424C46.7037 25.8016 46.3495 25.6308 46.2088 25.3093C45.5547 23.7599 44.6756 20.5268 44.1351 17.1275C44.0831 16.7988 43.7742 16.5745 43.4451 16.6269C43.1164 16.6789 42.8921 16.9879 42.9445 17.317C43.4368 20.4116 44.3677 24.1786 45.2192 26.0328C45.2296 26.0572 45.2285 26.0852 45.216 26.1085C45.2034 26.1318 45.1808 26.1483 45.155 26.1533C44.7933 26.229 44.437 26.2997 44.0871 26.364C43.9123 26.3977 43.7322 26.35 43.5973 26.2341C42.6643 25.3962 41.8163 24.4689 41.0654 23.4649C40.9688 23.3361 40.8246 23.251 40.6649 23.2291C40.5052 23.2069 40.3434 23.2499 40.2156 23.3479C40.0875 23.4459 40.0043 23.5912 39.9842 23.7512C39.9645 23.9109 40.009 24.0724 40.1087 24.1991C40.7417 25.0316 41.4311 25.8196 42.172 26.5577C42.1914 26.5775 42.1975 26.6062 42.1878 26.632C42.1785 26.6578 42.1552 26.6758 42.1279 26.6783C41.8609 26.7127 41.6112 26.7411 41.3812 26.7623C41.2078 26.7777 41.0356 26.7264 40.8989 26.6187C38.7153 24.9329 27.8691 15.8699 26.2533 1.21236H49.4127C49.4931 4.11107 49.7478 17.3443 47.986 25.3492L47.9851 25.3499Z" fill="#D05335"/>
<path d="M5.11096 36.0051C4.77832 36.0051 4.50812 36.275 4.50812 36.608C4.50812 37.4118 4.91611 40.7397 4.91397 41.7925H4.91432C4.91432 42.1251 5.18417 42.3953 5.51717 42.3953C5.84981 42.3953 6.12002 42.1251 6.12002 41.7925C6.12217 40.6672 5.76477 37.4165 5.71417 36.608H5.71381C5.70627 36.2782 5.44073 36.0127 5.11096 36.0051Z" fill="#D05335"/>
<path d="M8.90874 7.9066C8.75013 7.88364 8.58901 7.9249 8.46091 8.02107C8.33281 8.11689 8.24812 8.26042 8.22551 8.41902C8.18102 8.7348 7.88534 13.0609 7.57602 14.3912C7.50102 14.7152 7.70269 15.0392 8.02671 15.1146C8.07157 15.125 8.1175 15.1304 8.16379 15.1304C8.44404 15.13 8.68697 14.937 8.75049 14.6639C9.0817 13.2393 9.38097 8.86003 9.41936 8.58738C9.46565 8.25869 9.23743 7.95434 8.90874 7.9066Z" fill="#D05335"/>
<path d="M15.3142 14.7132C14.997 14.6117 14.6579 14.7864 14.5564 15.1036C13.8627 17.1989 12.9194 19.203 11.7456 21.0722C11.5701 21.355 11.6573 21.7267 11.9401 21.9022C12.2228 22.0777 12.5946 21.9908 12.77 21.7081C13.9955 19.7549 14.9804 17.6607 15.7039 15.4718C15.7531 15.3193 15.7395 15.1539 15.6663 15.0118C15.5931 14.8693 15.4664 14.762 15.3142 14.7132Z" fill="#D05335"/>
<path d="M46.0486 36.0051C45.7188 36.0127 45.4533 36.2782 45.4458 36.608C45.3952 37.4179 45.0378 40.6672 45.0399 41.7925H45.0396C45.0396 42.1251 45.3098 42.3953 45.6424 42.3953C45.9754 42.3953 46.2452 42.1251 46.2452 41.7925C46.2452 40.7408 46.6511 37.4143 46.6511 36.608H46.6515C46.6515 36.275 46.3812 36.0051 46.0486 36.0051Z" fill="#D05335"/>
<path d="M42.9319 8.419C42.8802 8.09425 42.5777 7.87069 42.2522 7.91662C41.9264 7.96291 41.6978 8.26147 41.7384 8.58765C41.7764 8.86037 42.076 13.2397 42.4072 14.6642L42.4069 14.6645C42.4704 14.9372 42.7137 15.1303 42.9936 15.1306C43.0399 15.1306 43.0858 15.1253 43.1306 15.1149C43.455 15.0395 43.6567 14.7155 43.5813 14.3914C43.272 13.0609 42.9764 8.73482 42.9319 8.419Z" fill="#D05335"/>
<path d="M36.6033 15.1038C36.5574 14.9481 36.4505 14.8178 36.3069 14.7421C36.1638 14.6664 35.9958 14.6517 35.8415 14.7012C35.6872 14.7507 35.5591 14.8605 35.4866 15.0055C35.4138 15.1504 35.4027 15.3184 35.4558 15.472C36.1792 17.6609 37.1642 19.755 38.3897 21.7082C38.5652 21.991 38.9369 22.0778 39.2197 21.9024C39.5024 21.7269 39.5896 21.3551 39.4142 21.0724C38.2404 19.2031 37.297 17.1991 36.6033 15.1038Z" fill="#D05335"/>
<path d="M9.09444 46.0766C9.21501 46.0834 9.3287 46.0411 9.41527 45.9668C9.50185 45.8925 9.56107 45.7863 9.57241 45.6658C9.59509 45.425 9.41768 45.2183 9.17616 45.2043L6.55299 45.0527C6.31167 45.0389 6.09771 45.2226 6.07502 45.4634C6.05234 45.7043 6.22975 45.911 6.47127 45.925L9.09444 46.0766Z" fill="#D05335"/>
<path d="M14.3404 46.3798C14.461 46.3866 14.5749 46.3441 14.6615 46.2698C14.7482 46.1957 14.8075 46.0895 14.8188 45.9691C14.8415 45.7282 14.6641 45.5216 14.4226 45.5075L11.7994 45.3559C11.5581 45.3421 11.3441 45.5258 11.3214 45.7667C11.2987 46.0075 11.4761 46.2142 11.7177 46.2282L14.3404 46.3798Z" fill="#D05335"/>
<path d="M3.84809 45.7731C3.96886 45.7801 4.08278 45.7377 4.16912 45.6636C4.25569 45.5892 4.31491 45.483 4.32625 45.3626C4.34894 45.1218 4.17153 44.9151 3.93001 44.9011L1.30684 44.7495C1.06551 44.7357 0.851554 44.9194 0.828869 45.1602C0.806184 45.4011 0.983596 45.6077 1.22511 45.6218L3.84809 45.7731Z" fill="#D05335"/>
<path d="M45.161 45.8623C45.281 45.8493 45.3863 45.789 45.4596 45.7016C45.5328 45.6141 45.5739 45.4997 45.5654 45.379C45.5485 45.1377 45.3397 44.9628 45.0992 44.9884L42.4864 45.2671C42.2461 45.2929 42.065 45.509 42.0819 45.7504C42.0989 45.9917 42.3077 46.1666 42.5482 46.141L45.161 45.8623Z" fill="#D05335"/>
<path d="M50.3861 45.305C50.5061 45.292 50.6116 45.2315 50.6848 45.144C50.7584 45.0567 50.7994 44.9423 50.791 44.8216C50.774 44.5803 50.5653 44.4054 50.3247 44.431L47.712 44.7097C47.4716 44.7355 47.2905 44.9517 47.3075 45.193C47.3244 45.4343 47.5332 45.6092 47.7738 45.5837L50.3861 45.305Z" fill="#D05335"/>
<path d="M39.9355 46.4195C40.0558 46.4067 40.1613 46.3462 40.2343 46.259C40.3076 46.1715 40.3487 46.0571 40.3402 45.9364C40.3233 45.6951 40.1145 45.5202 39.8739 45.5457L37.2612 45.8245C37.0209 45.8503 36.8398 46.0664 36.8567 46.3077C36.8737 46.5491 37.0824 46.724 37.323 46.6984L39.9355 46.4195Z" fill="#D05335"/>
</svg>
