<svg xmlns="http://www.w3.org/2000/svg" xmlns:xlink="http://www.w3.org/1999/xlink" width="100" height="100" viewBox="0 0 100 100">
  <defs>
    <clipPath id="clip-path">
      <rect id="Rectangle_591" data-name="Rectangle 591" width="100" height="100" fill="#fff"/>
    </clipPath>
  </defs>
  <g id="Mask_Group_30" data-name="Mask Group 30" clip-path="url(#clip-path)">
    <path id="instagram" d="M45.489,54.015A23.354,23.354,0,1,0,68.842,77.368,23.317,23.317,0,0,0,45.489,54.015Zm0,38.536A15.183,15.183,0,1,1,60.672,77.368,15.21,15.21,0,0,1,45.489,92.551ZM75.245,53.06A5.447,5.447,0,1,1,69.8,47.612,5.434,5.434,0,0,1,75.245,53.06Zm15.467,5.528c-.346-7.3-2.012-13.76-7.358-19.085-5.325-5.325-11.789-6.992-19.085-7.358-7.52-.427-30.061-.427-37.581,0-7.276.346-13.74,2.012-19.085,7.337S.611,51.271.245,58.568c-.427,7.52-.427,30.061,0,37.581.346,7.3,2.012,13.76,7.358,19.085s11.789,6.992,19.085,7.358c7.52.427,30.061.427,37.581,0,7.3-.346,13.76-2.012,19.085-7.358,5.325-5.325,6.992-11.789,7.358-19.085.427-7.52.427-30.04,0-37.561ZM81,104.218a15.371,15.371,0,0,1-8.658,8.658c-6,2.378-20.223,1.829-26.849,1.829s-20.874.528-26.849-1.829a15.371,15.371,0,0,1-8.658-8.658c-2.378-6-1.829-20.223-1.829-26.849S7.623,56.495,9.981,50.519a15.371,15.371,0,0,1,8.658-8.658c6-2.378,20.223-1.829,26.849-1.829s20.874-.528,26.849,1.829A15.371,15.371,0,0,1,81,50.519c2.378,6,1.829,20.223,1.829,26.849S83.375,98.242,81,104.218Z" transform="translate(4.646 -27.504)" fill="#fff"/>
  </g>
</svg>
