<svg width="41" height="53" viewBox="0 0 41 53" fill="none" xmlns="http://www.w3.org/2000/svg">
<path d="M38.6957 0.0207622H2.30268C1.69223 0.0215708 1.10689 0.256065 0.675127 0.673316C0.24376 1.09015 0.000661873 1.65578 0.000244141 2.24604V46.3496C0.000662515 46.9395 0.243749 47.5051 0.675127 47.9223C1.10691 48.3392 1.69226 48.5741 2.30268 48.5745H3.9223V51.5154C3.9223 51.8849 4.23108 52.1845 4.61349 52.1862H8.7665C8.95102 52.187 9.128 52.1162 9.25854 51.9905C9.38909 51.8647 9.4623 51.6937 9.4623 51.5154V48.5745H31.5357V51.5154C31.5357 51.6937 31.6089 51.8647 31.7394 51.9905C31.87 52.1162 32.047 52.187 32.2315 52.1862H36.3845C36.5686 52.1862 36.7452 52.1154 36.8753 51.9897C37.0054 51.8639 37.0782 51.6933 37.0782 51.5154V48.5745H38.6978H38.6974C39.3083 48.5741 39.8936 48.3392 40.3249 47.9223C40.7567 47.5051 40.9994 46.9395 41.0002 46.3496V2.24605C40.9994 1.65536 40.7563 1.08972 40.3241 0.672498C39.8919 0.255279 39.3061 0.020752 38.6953 0.020752L38.6957 0.0207622ZM8.07273 50.8458H5.30756V48.5748H8.07273V50.8458ZM35.6912 50.8458H32.9261V48.5748H35.6912V50.8458ZM39.6113 46.3498H39.6109C39.6104 46.8378 39.2008 47.2337 38.6958 47.2341H2.30279C1.79779 47.2337 1.38816 46.8378 1.38775 46.3498V2.24628C1.38816 1.75787 1.79778 1.36205 2.30279 1.36165H38.6958C39.2008 1.36206 39.6104 1.75787 39.6109 2.24628L39.6113 46.3498ZM20.4995 8.96361C21.1966 8.96361 21.8652 8.69636 22.3584 8.22009C22.8513 7.74381 23.1283 7.0977 23.1283 6.4238C23.1287 5.75022 22.8517 5.10413 22.3588 4.62781C21.8655 4.15154 21.1969 3.88389 20.4999 3.88389C19.8029 3.88389 19.1343 4.15154 18.6413 4.62822C18.1485 5.1045 17.8715 5.7506 17.8715 6.4242C17.8723 7.09777 18.1497 7.74303 18.6422 8.21894C19.1346 8.69521 19.8029 8.9628 20.4995 8.96361ZM20.4995 5.22498C21.0016 5.22498 21.4543 5.51689 21.6463 5.96486C21.8388 6.41324 21.7325 6.92914 21.3777 7.272C21.0229 7.61526 20.489 7.71795 20.0255 7.53237C19.5615 7.34679 19.2589 6.90934 19.2589 6.42417C19.2598 5.76232 19.8146 5.22623 20.4995 5.22498ZM34.7324 4.69534H30.0362C29.6182 4.69574 29.217 4.85626 28.9216 5.1421C28.6258 5.42754 28.4593 5.81487 28.4589 6.21915V7.56831C28.4593 7.97261 28.6258 8.35994 28.9212 8.64577C29.217 8.93161 29.6183 9.09253 30.0362 9.09293H34.7311C35.1495 9.09253 35.5503 8.93161 35.8461 8.64577C36.1419 8.35993 36.308 7.9726 36.3085 7.56831V6.21915C36.308 5.81525 36.1419 5.42792 35.8465 5.14251C35.5507 4.85667 35.1503 4.69615 34.7324 4.69534ZM34.9223 7.56837C34.9211 7.66945 34.837 7.75111 34.7324 7.75232H30.0362C29.932 7.75111 29.8475 7.66944 29.8463 7.56837V6.21921C29.8479 6.11854 29.932 6.03727 30.0362 6.03606H34.7311C34.8353 6.03728 34.9198 6.11854 34.9211 6.21921L34.9223 7.56837ZM5.57292 6.89399C5.5725 6.71568 5.64572 6.54507 5.77584 6.41893C5.90596 6.29319 6.08253 6.22244 6.26704 6.22284H11.3175H11.3171C11.6924 6.23336 11.9907 6.53012 11.9907 6.89279C11.9907 7.25585 11.6924 7.55262 11.3171 7.56313H6.26662H6.26704C5.8842 7.56313 5.57334 7.26393 5.57292 6.89399ZM20.4999 16.2501C17.4782 16.2534 14.5816 17.4145 12.4448 19.4793C10.3085 21.5437 9.10682 24.3431 9.1035 27.2626C9.1035 27.597 9.11982 27.9273 9.15036 28.2548L9.14994 28.2552C9.15078 28.2697 9.15204 28.2847 9.15413 28.2997C9.4332 31.1476 10.8478 33.7792 13.0992 35.6371C15.3507 37.4949 18.2614 38.4333 21.2162 38.2537C24.1709 38.0738 26.9374 36.7901 28.9299 34.674C30.9224 32.5579 31.9842 29.7758 31.8913 26.9165C31.798 24.0569 30.557 21.3448 28.4311 19.354C26.3047 17.3632 23.4605 16.2501 20.4999 16.2501ZM20.4999 36.9341C18.084 36.9309 15.7506 36.0847 13.9288 34.5512C12.1071 33.0177 10.9201 30.8999 10.5858 28.5876C13.7568 27.0092 16.7418 27.0747 19.6965 28.7866C21.3074 29.7606 23.1647 30.2861 25.0646 30.3064C26.9202 30.2769 28.7395 29.8018 30.3578 28.9233C29.9499 31.1648 28.7382 33.1956 26.9357 34.66C25.1333 36.1241 22.8546 36.9286 20.4999 36.9322V36.9341ZM30.5026 27.5821C30.3131 27.515 30.103 27.5308 29.9265 27.6258C26.6039 29.4173 23.4915 29.4225 20.4116 27.6375V27.6371C17.4246 25.8027 13.6615 25.6143 10.4942 27.141C10.5587 23.7137 12.4955 20.5754 15.5857 18.8924C18.6757 17.2088 22.4571 17.2319 25.5249 18.9526C28.5931 20.6733 30.4888 23.835 30.5084 27.2627C30.5084 27.3679 30.506 27.475 30.5026 27.5821ZM20.4999 12.2937C16.392 12.2937 12.4527 13.8705 9.5478 16.6773C6.64285 19.484 5.01112 23.2906 5.01112 27.2604C5.0107 31.2296 6.6421 35.0365 9.54662 37.8436C12.4511 40.6507 16.3905 42.2279 20.4976 42.2283C24.6055 42.2287 28.5452 40.6522 31.4497 37.846C34.3546 35.0397 35.9868 31.2331 35.9872 27.2638C35.9835 23.2956 34.3505 19.4906 31.4467 16.6848C28.543 13.8786 24.6059 12.2997 20.4989 12.2953L20.4999 12.2937ZM20.4999 40.8843C16.7598 40.8843 13.1729 39.4482 10.5281 36.8926C7.88373 34.337 6.39799 30.8704 6.39885 27.2563C6.39927 23.6422 7.88544 20.1761 10.5305 17.6208C13.1756 15.0659 16.7631 13.6311 20.5035 13.6319C24.2436 13.6327 27.8301 15.0697 30.474 17.6261C33.1179 20.1825 34.6024 23.649 34.6011 27.2631C34.5952 30.8748 33.1079 34.3373 30.4644 36.8905C27.8209 39.4442 24.2373 40.8803 20.4998 40.8843H20.4999ZM23.5199 21.7166C23.6542 21.8411 23.7312 22.013 23.7328 22.1929C23.7345 22.3732 23.6613 22.5463 23.5295 22.6736C23.3977 22.8006 23.2186 22.8713 23.0324 22.8697C22.8458 22.8677 22.6684 22.7933 22.5391 22.6635L22.4864 22.613C22.2237 22.3498 22.2274 21.9317 22.4956 21.673C22.7634 21.4146 23.196 21.411 23.4684 21.6653L23.5199 21.7166ZM17.645 23.0217C17.9162 23.2837 17.9157 23.7082 17.645 23.9698C17.3739 24.2314 16.9346 24.2314 16.6639 23.9694L16.6112 23.9184C16.3626 23.6532 16.3735 23.2461 16.6363 22.9938C16.8986 22.7415 17.3199 22.733 17.5932 22.9744L17.645 23.0217ZM26.1336 26.1947H26.134C26.3967 26.4579 26.393 26.8759 26.1248 27.1347C25.857 27.393 25.424 27.3967 25.152 27.1424L25.0997 27.0914V27.091C24.829 26.8294 24.829 26.4049 25.1001 26.1433C25.3712 25.8817 25.8102 25.8817 26.0813 26.1433L26.1336 26.1947Z" fill="#D05335"/>
</svg>
