<svg xmlns="http://www.w3.org/2000/svg" width="98.18" height="87.027" viewBox="0 0 98.18 87.027">
  <path id="favorite_FILL0_wght400_GRAD0_opsz24" d="M129.09-766.973c-3.559,0-7.118-3.328-7.118-3.328q-12.4-11.168-20.5-19.268a135.774,135.774,0,0,1-12.886-14.543A46.2,46.2,0,0,1,81.9-815.955,33.015,33.015,0,0,1,80-827a26.15,26.15,0,0,1,7.732-19.268A26.151,26.151,0,0,1,107-854a28.321,28.321,0,0,1,12.15,2.7,29.107,29.107,0,0,1,9.941,7.609,29.107,29.107,0,0,1,9.941-7.609,28.321,28.321,0,0,1,12.15-2.7,26.151,26.151,0,0,1,19.268,7.732A26.15,26.15,0,0,1,178.18-827a33.015,33.015,0,0,1-1.9,11.045,46.2,46.2,0,0,1-6.689,11.843A135.773,135.773,0,0,1,156.7-789.569q-8.1,8.1-20.5,19.268S132.649-766.973,129.09-766.973Zm0-10.2q11.782-10.554,19.391-18.1a152.947,152.947,0,0,0,12.027-13.132,41.038,41.038,0,0,0,6.136-9.941A23.449,23.449,0,0,0,168.362-827a16.651,16.651,0,0,0-4.909-12.273,16.651,16.651,0,0,0-12.273-4.909A18.951,18.951,0,0,0,140.5-840.93a16.727,16.727,0,0,0-6.75,8.284h-9.327a16.728,16.728,0,0,0-6.75-8.284A18.951,18.951,0,0,0,107-844.182a16.651,16.651,0,0,0-12.273,4.909A16.651,16.651,0,0,0,89.818-827a23.448,23.448,0,0,0,1.718,8.652,41.038,41.038,0,0,0,6.136,9.941A152.945,152.945,0,0,0,109.7-795.276Q117.309-787.728,129.09-777.174ZM129.09-810.678Z" transform="translate(-80 854)" fill="#2b2b2b"/>
</svg>
