<svg xmlns="http://www.w3.org/2000/svg" xmlns:xlink="http://www.w3.org/1999/xlink" width="100" height="100" viewBox="0 0 100 100">
  <defs>
    <clipPath id="clip-path">
      <rect id="Rectangle_11" data-name="Rectangle 11" width="100" height="100" fill="#fff"/>
    </clipPath>
  </defs>
  <g id="Mask_Group_12" data-name="Mask Group 12" clip-path="url(#clip-path)">
    <path id="phone" d="M86,67.489C82.13,59.345,75.5,54.021,66.019,51.63a4.67,4.67,0,0,0-4.079.918l-7.895,6.425a4.671,4.671,0,0,1-5.4.363A61.227,61.227,0,0,1,28.468,39.053a4.682,4.682,0,0,1,.389-5.407l6.457-7.87A4.678,4.678,0,0,0,36.25,21.7C33.905,12.2,28.617,5.538,20.5,1.622a4.6,4.6,0,0,0-4.141.082A90.749,90.749,0,0,0,4.635,9.113a4.734,4.734,0,0,0-1.85,4.57C5.412,29.476,13.9,46.1,27.714,59.991S58.1,82.455,73.869,85.158a4.73,4.73,0,0,0,4.575-1.83,90.751,90.751,0,0,0,7.459-11.7,4.61,4.61,0,0,0,.1-4.145Z" transform="translate(5.219 6.803)" fill="#fff"/>
  </g>
</svg>
