<svg width="56" height="54" viewBox="0 0 56 54" fill="none" xmlns="http://www.w3.org/2000/svg">
<path d="M11.7572 45.4154C12.6223 45.4127 13.4819 45.2777 14.3039 45.016V48.8328C14.3039 49.0696 14.5022 49.2612 14.7473 49.2612C14.9924 49.2612 15.1908 49.0696 15.1908 48.8328V45.016C17.0857 45.6108 19.1387 45.5255 20.9739 44.7762C22.809 44.0266 24.303 42.663 25.1812 40.9356C25.2948 40.7134 25.2968 40.4533 25.1863 40.2296C25.0786 40.0104 24.8727 39.8509 24.6281 39.7966C23.4719 39.5047 22.2814 39.3609 21.0864 39.3682C21.5718 38.3557 21.9064 37.2825 22.0802 36.1798C22.1266 35.9373 22.0537 35.6879 21.8831 35.5047C21.7104 35.3181 21.4582 35.2198 21.2001 35.2381C20.0197 35.32 18.8771 35.6738 17.8674 36.2697C17.7724 34.2975 16.9183 32.4307 15.4728 31.0353C15.0725 30.649 14.4239 30.649 14.0236 31.0353C12.578 32.4307 11.724 34.2975 11.629 36.2697C10.6193 35.6738 9.47628 35.32 8.29594 35.2381C8.03977 35.2194 7.78913 35.3165 7.6169 35.5009C7.44467 35.6853 7.37063 35.9362 7.41616 36.1806C7.58878 37.2833 7.92217 38.357 8.406 39.3693C7.21106 39.3625 6.02048 39.5063 4.86467 39.7977C4.61958 39.852 4.41409 40.0115 4.30639 40.2311C4.19553 40.4549 4.19751 40.7153 4.31154 40.9372C4.99414 42.2823 6.05403 43.415 7.3702 44.2067C8.68667 44.9985 10.2067 45.4172 11.7572 45.4154ZM8.42375 40.2318C8.7401 40.2705 9.05131 40.1289 9.22235 39.8685C9.393 39.6084 9.393 39.276 9.22196 39.0159C8.75593 38.0972 8.44473 37.1123 8.29981 36.0987C9.34271 36.1817 10.35 36.5064 11.2357 37.0446C11.486 37.1995 11.8031 37.2132 12.066 37.0798C12.3293 36.9463 12.4984 36.6869 12.5087 36.3997C12.5724 34.6093 13.3378 32.9088 14.6499 31.6423C14.7038 31.5903 14.7909 31.5903 14.8447 31.6423C16.1568 32.9088 16.9218 34.6097 16.9851 36.4005C16.9954 36.6873 17.1641 36.947 17.4274 37.0802C17.6907 37.2136 18.0079 37.2003 18.2581 37.045C19.147 36.5072 20.1534 36.1767 21.1971 36.0799C21.053 37.1008 20.7402 38.093 20.2714 39.0186C20.1008 39.2787 20.1008 39.6107 20.2714 39.8708C20.4425 40.1309 20.7533 40.2724 21.0697 40.2346C21.9542 40.1244 23.61 40.453 24.3539 40.617C23.5383 42.1857 22.1529 43.4088 20.4626 44.0533C18.7723 44.6974 16.8952 44.7177 15.1906 44.1096V39.4164C15.1906 39.18 14.9923 38.988 14.7472 38.988C14.5021 38.988 14.3037 39.18 14.3037 39.4164V44.1096C12.5964 44.7181 10.7169 44.6986 9.02345 44.0552C7.33002 43.4115 5.94067 42.1884 5.12026 40.6189C5.85473 40.4564 7.5296 40.1225 8.4236 40.2323L8.42375 40.2318Z" fill="#D05335" stroke="#D05335" stroke-width="0.5"/>
<path d="M4.56148 14.7196H6.62944L5.26107 16.0419L5.26068 16.0423C5.17515 16.1222 5.12645 16.2316 5.12527 16.3468C5.12408 16.4615 5.1712 16.5721 5.25513 16.6531C5.33907 16.7346 5.45349 16.7797 5.57267 16.7786C5.69146 16.7778 5.80509 16.7308 5.88784 16.6482L7.88343 14.7204H11.4877C11.5629 15.244 11.7768 15.7401 12.1085 16.1608L9.55477 18.6272H6.73725C6.49255 18.6272 6.29379 18.8188 6.29379 19.0555C6.29379 19.2923 6.49255 19.4839 6.73725 19.4839H8.66786L7.20878 20.8937C7.12325 20.9737 7.07455 21.0831 7.07337 21.1982C7.07258 21.313 7.1193 21.4235 7.20323 21.5046C7.28757 21.5861 7.40159 21.6312 7.52077 21.63C7.63956 21.6293 7.75319 21.5822 7.83594 21.4996L9.29939 20.0859V21.9555C9.29939 22.1923 9.49775 22.3839 9.74284 22.3839C9.98754 22.3839 10.1863 22.1923 10.1863 21.9555V19.2291L12.7357 16.7663C13.1713 17.0861 13.6844 17.2926 14.2264 17.366V20.8513L12.2333 22.7741C12.065 22.942 12.0674 23.2094 12.2384 23.3746C12.4095 23.5398 12.6862 23.5421 12.86 23.3796L14.2245 22.0611V24.0554H14.2249C14.2249 24.2918 14.4232 24.4838 14.6683 24.4838C14.913 24.4838 15.1118 24.2918 15.1118 24.0554V22.0573L16.4805 23.3796C16.6543 23.5421 16.9311 23.5398 17.1022 23.3746C17.2732 23.2094 17.2756 22.942 17.1077 22.7741L15.1121 20.8463V17.3642C15.6542 17.2911 16.1677 17.0846 16.6032 16.7644L19.1555 19.23V21.9514C19.1555 22.1882 19.3539 22.3798 19.5989 22.3798C19.8436 22.3798 20.0424 22.1882 20.0424 21.9514V20.0883L21.503 21.4993V21.4997C21.6772 21.6619 21.9536 21.6596 22.1246 21.4943C22.2957 21.3291 22.298 21.0617 22.1302 20.8938L20.6667 19.4801H22.6025C22.8472 19.4801 23.046 19.2881 23.046 19.0517C23.046 18.815 22.8472 18.6233 22.6025 18.6233H19.7794L17.2307 16.1605C17.5621 15.7398 17.7759 15.2437 17.8515 14.7197H21.4569L23.4489 16.6439V16.6443C23.6227 16.8065 23.8994 16.8042 24.0705 16.639C24.2415 16.4737 24.2439 16.2064 24.0756 16.0385L22.7108 14.72H24.7752V14.7196C25.0199 14.7196 25.2187 14.528 25.2187 14.2912C25.2187 14.0549 25.0199 13.8629 24.7752 13.8629H22.7069L24.0756 12.541C24.2439 12.3731 24.2415 12.1057 24.0705 11.9405C23.8995 11.7752 23.6227 11.7729 23.4489 11.9351L21.4533 13.8629H17.8514C17.7754 13.3397 17.5616 12.8436 17.2306 12.4228L19.782 9.95729H22.5996C22.8443 9.95729 23.043 9.76567 23.043 9.5289C23.043 9.29252 22.8443 9.10052 22.5996 9.10052H20.6685L22.1292 7.68953H22.1296C22.2974 7.52163 22.2951 7.25426 22.124 7.08903C21.953 6.92379 21.6762 6.9215 21.5024 7.08367L20.0389 8.4974V6.62777C20.0389 6.39101 19.8406 6.19939 19.5955 6.19939C19.3504 6.19939 19.152 6.39101 19.152 6.62777V9.35456L16.603 11.8159C16.1675 11.4958 15.6536 11.2892 15.1115 11.2162V7.73404L17.1034 5.80977V5.80939C17.2674 5.64109 17.263 5.37718 17.0935 5.21348C16.9245 5.04977 16.6513 5.04557 16.4767 5.20392L15.1118 6.52237V4.52848C15.1118 4.29172 14.9131 4.1001 14.6684 4.1001C14.4233 4.1001 14.2249 4.29172 14.2249 4.52848V6.52658L12.8566 5.20431L12.8562 5.20393C12.7738 5.12131 12.6602 5.07426 12.541 5.07312C12.4222 5.07197 12.3078 5.1171 12.2239 5.19857C12.1395 5.27966 12.0928 5.39019 12.094 5.50532C12.0948 5.62007 12.1439 5.72985 12.2294 5.8094L14.225 7.73719V11.2186C13.6829 11.2917 13.1694 11.4982 12.7335 11.8184L10.1797 9.35204V6.63259C10.1797 6.39583 9.98132 6.20421 9.73623 6.20421C9.49114 6.20421 9.29278 6.39583 9.29278 6.63259V8.49723L7.8337 7.08389C7.65829 6.93281 7.39064 6.94046 7.22474 7.10149C7.05845 7.26213 7.05132 7.52069 7.20851 7.68975L8.67195 9.10348H6.73465C6.48956 9.10348 6.29119 9.29548 6.29119 9.53187C6.29119 9.76863 6.48956 9.96025 6.73465 9.96025H9.55886L12.1079 12.4231C11.7773 12.8442 11.5642 13.3399 11.489 13.8631H7.87967L5.88773 11.9393V11.9396C5.71272 11.784 5.4419 11.7889 5.27362 11.9515C5.10535 12.1137 5.09941 12.3753 5.26056 12.5444L6.62538 13.8624H4.56137C4.31628 13.8624 4.11792 14.0544 4.11792 14.2908C4.11792 14.5276 4.31628 14.7192 4.56137 14.7192L4.56148 14.7196ZM14.6647 12.043H14.6718H14.6714C15.2875 12.0441 15.8778 12.2813 16.3134 12.702C16.7489 13.1228 16.9944 13.693 16.9964 14.2882V14.2954C16.9944 14.8902 16.7489 15.4605 16.3134 15.8812C15.8774 16.3019 15.2871 16.5391 14.671 16.5402H14.6651H14.6655C14.049 16.5391 13.4587 16.3019 13.0227 15.8812C12.5872 15.4601 12.3417 14.8898 12.3405 14.2943V14.2885V14.2889C12.3417 13.6938 12.5872 13.1235 13.0227 12.7024C13.4583 12.2816 14.0486 12.0445 14.6647 12.043Z" fill="#D05335" stroke="#D05335" stroke-width="0.2"/>
<path d="M36.5621 19.1227C37.7919 20.0915 39.3242 20.6304 40.9107 20.6519V23.3388C40.9107 23.5756 41.1091 23.7672 41.3542 23.7672C41.5993 23.7672 41.7976 23.5756 41.7976 23.3388V20.6483C43.3735 20.5994 44.8927 20.0681 46.1359 19.131C46.1462 19.123 46.1553 19.1142 46.1648 19.1054C48.8331 16.5278 48.8331 13.1971 46.1767 10.6314C44.6935 9.09415 43.476 7.33664 42.5705 5.42569C42.3456 4.97092 41.8673 4.68367 41.3455 4.69055C40.8276 4.69476 40.3604 4.99233 40.1533 5.45094C39.3368 7.3986 38.107 9.15915 36.5435 10.6195C33.8753 13.1971 33.8753 16.5275 36.5621 19.1227ZM37.1731 11.2227H37.1735C38.815 9.69015 40.1066 7.84235 40.9645 5.79863C41.0323 5.6464 41.1867 5.5481 41.3581 5.54734H41.3637C41.5379 5.54581 41.6966 5.64296 41.7703 5.79558C42.7166 7.78907 43.9896 9.62276 45.5397 11.2258C47.8571 13.4644 47.8614 16.2456 45.5535 18.4865H45.5531C44.4718 19.2874 43.1593 19.7434 41.7976 19.7911V12.6493C41.7976 12.4125 41.5993 12.2209 41.3542 12.2209C41.1091 12.2209 40.9107 12.4125 40.9107 12.6493V19.7953C39.549 19.778 38.2326 19.3214 37.1707 18.4979C34.8481 16.256 34.8481 13.4685 37.1735 11.2225L37.1731 11.2227Z" fill="#D05335" stroke="#D05335" stroke-width="0.5"/>
<path d="M41.3544 34.7463C39.9113 34.7463 38.527 35.3002 37.5067 36.2863C36.486 37.2719 35.9126 38.6092 35.9126 40.0033C35.9126 41.3974 36.4859 42.7347 37.5067 43.7203C38.527 44.7064 39.9113 45.2603 41.3544 45.2603C42.7976 45.2603 44.1819 44.7064 45.2022 43.7203C46.2229 42.7347 46.7963 41.3974 46.7963 40.0033C46.7947 38.6096 46.2206 37.2735 45.2007 36.2878C44.1804 35.3026 42.7973 34.7479 41.3545 34.7464L41.3544 34.7463ZM41.3544 44.403V44.4034C40.1464 44.4034 38.9879 43.9398 38.1339 43.1144C37.2795 42.2894 36.7996 41.1703 36.7996 40.0033C36.7996 38.8363 37.2795 37.7171 38.1339 36.8922C38.988 36.0668 40.1464 35.6032 41.3544 35.6032C42.5625 35.6032 43.721 36.0668 44.575 36.8922C45.4294 37.7172 45.9093 38.8363 45.9093 40.0033C45.9077 41.1699 45.4274 42.2883 44.5738 43.1133C43.7197 43.938 42.562 44.4019 41.3543 44.4035L41.3544 44.403Z" fill="#D05335" stroke="#D05335" stroke-width="0.5"/>
<path d="M41.3546 33.6499C41.4722 33.6499 41.585 33.6048 41.6682 33.5245C41.7513 33.4441 41.798 33.3351 41.798 33.2215V31.508C41.798 31.2716 41.5997 31.0796 41.3546 31.0796C41.1095 31.0796 40.9111 31.2716 40.9111 31.508V33.2215C40.9111 33.3351 40.9579 33.4441 41.041 33.5245C41.1241 33.6048 41.237 33.6499 41.3546 33.6499Z" fill="#D05335" stroke="#D05335" stroke-width="0.5"/>
<path d="M36.0777 35.51C36.1589 35.598 36.2741 35.6496 36.3961 35.653C36.5176 35.6561 36.6356 35.611 36.7219 35.5276C36.8082 35.4442 36.8549 35.3302 36.8518 35.2128C36.8482 35.095 36.7948 34.9837 36.7037 34.9053L35.4494 33.6936C35.3666 33.6106 35.253 33.5635 35.1342 33.5628C35.0154 33.5616 34.901 33.6068 34.8166 33.6882C34.7327 33.7693 34.686 33.8798 34.6868 33.9946C34.688 34.1097 34.7367 34.2191 34.8222 34.2991L36.0777 35.51Z" fill="#D05335" stroke="#D05335" stroke-width="0.5"/>
<path d="M34.3332 39.5754H32.5594C32.3147 39.5754 32.116 39.7671 32.116 40.0038C32.116 40.2406 32.3147 40.4322 32.5594 40.4322H34.3332C34.5783 40.4322 34.7767 40.2406 34.7767 40.0038C34.7767 39.7671 34.5783 39.5754 34.3332 39.5754Z" fill="#D05335" stroke="#D05335" stroke-width="0.5"/>
<path d="M36.0775 44.4968L34.8232 45.7085C34.7373 45.7885 34.6886 45.8982 34.6878 46.013C34.6866 46.1277 34.7333 46.2383 34.8176 46.3197C34.9016 46.4008 35.016 46.446 35.1348 46.4452C35.254 46.4441 35.3672 46.397 35.4499 46.3144L36.7047 45.1023C36.7902 45.0227 36.8389 44.9129 36.8401 44.7978C36.8409 44.6831 36.7942 44.5725 36.7102 44.4914C36.6259 44.41 36.5115 44.3648 36.3927 44.366C36.2735 44.3668 36.1603 44.4138 36.0775 44.4968Z" fill="#D05335" stroke="#D05335" stroke-width="0.5"/>
<path d="M41.3546 46.3572C41.1095 46.3572 40.9111 46.5488 40.9111 46.7856V48.4991C40.9111 48.7355 41.1095 48.9275 41.3546 48.9275C41.5997 48.9275 41.798 48.7355 41.798 48.4991V46.7856C41.798 46.672 41.7513 46.563 41.6682 46.4826C41.585 46.4023 41.4722 46.3572 41.3546 46.3572Z" fill="#D05335" stroke="#D05335" stroke-width="0.5"/>
<path d="M46.6312 44.4968C46.5485 44.4138 46.4352 44.3668 46.3161 44.366C46.1973 44.3648 46.0829 44.41 45.9985 44.4914C45.9146 44.5725 45.8679 44.6831 45.8687 44.7978C45.8699 44.9129 45.9185 45.0227 46.0041 45.1023L47.2588 46.3144C47.3416 46.397 47.4548 46.4441 47.574 46.4452C47.6928 46.446 47.8072 46.4008 47.8911 46.3197C47.9755 46.2383 48.0222 46.1277 48.021 46.013C48.0202 45.8982 47.9715 45.7885 47.8856 45.7085L46.6312 44.4968Z" fill="#D05335" stroke="#D05335" stroke-width="0.5"/>
<path d="M50.1496 39.5754H48.3758C48.1311 39.5754 47.9324 39.7671 47.9324 40.0038C47.9324 40.2406 48.1311 40.4322 48.3758 40.4322H50.1496C50.3947 40.4322 50.5931 40.2406 50.5931 40.0038C50.5931 39.7671 50.3947 39.5754 50.1496 39.5754Z" fill="#D05335" stroke="#D05335" stroke-width="0.5"/>
<path d="M46.3212 35.6365C46.4388 35.6365 46.5516 35.5914 46.6348 35.5107L47.8891 34.2989C47.9747 34.219 48.0237 34.1092 48.0245 33.9945C48.0257 33.8797 47.979 33.7692 47.8947 33.6877C47.8107 33.6066 47.6963 33.5615 47.5775 33.5623C47.4583 33.5634 47.3447 33.6105 47.2624 33.6931L46.0057 34.906C45.8786 35.0284 45.841 35.2127 45.9095 35.3726C45.978 35.5329 46.1395 35.6373 46.3189 35.6373L46.3212 35.6365Z" fill="#D05335" stroke="#D05335" stroke-width="0.5"/>
<path d="M4.06048 1.97713H4.10396H27.5075V26.6236H1.9872V4.01863C1.98798 3.47825 2.21019 2.95979 2.60682 2.57661L4.06048 1.97713ZM4.06048 1.97713C3.51391 1.98879 2.99319 2.20336 2.60682 2.5766L4.06048 1.97713ZM4.10437 53.384H4.10446H51.9973H51.9974C52.846 53.3832 53.6597 53.0572 54.2608 52.4766C54.8619 51.8959 55.2007 51.1083 55.2016 50.2854V50.2853V4.01951V4.01941C55.2007 3.19656 54.8619 2.40894 54.2608 1.82818L54.1913 1.9001L54.2608 1.82817C53.6598 1.2476 52.8461 0.921539 51.9974 0.920752H51.9973L4.10446 0.920752L4.10437 0.920752C3.25579 0.921541 2.44211 1.2476 1.84104 1.82817L1.84104 1.82817C1.23993 2.40886 0.901062 3.19648 0.900244 4.01941V4.01951L0.900244 50.2853L0.900244 50.2854C0.901064 51.1082 1.23993 51.8958 1.84103 52.4766C2.44203 53.0572 3.2557 53.3832 4.10437 53.384ZM53.4945 51.7278C53.1081 52.1011 52.5873 52.3156 52.0406 52.3273H51.9973H28.5938V27.6808H54.1141V50.2857C54.1133 50.8261 53.8911 51.3446 53.4945 51.7278ZM53.4955 2.5776C53.8817 2.95068 54.1026 3.45211 54.1146 3.97712V4.01907V26.6241H28.5944V1.97762H51.9978C52.5604 1.97838 53.0987 2.19433 53.4955 2.5776ZM1.98669 27.6803H27.5069V52.3268H4.10358C3.54097 52.326 3.00259 52.1101 2.60579 51.7268C2.20917 51.3437 1.98696 50.8252 1.98618 50.2848L1.98669 27.6803Z" fill="#D05335" stroke="#D05335" stroke-width="0.2"/>
</svg>
