<svg xmlns="http://www.w3.org/2000/svg" width="93.855" height="39.054" viewBox="0 0 93.855 39.054">
  <g id="Stripe_Logo__revised_2016" data-name="Stripe_Logo,_revised_2016" transform="translate(-54 -36)">
    <path id="Path_523" data-name="Path 523" d="M359.071,79.54c0-6.674-3.233-11.94-9.412-11.94-6.2,0-9.959,5.266-9.959,11.888,0,7.847,4.432,11.81,10.793,11.81a14.537,14.537,0,0,0,7.222-1.695V84.39a13.844,13.844,0,0,1-6.387,1.434c-2.529,0-4.771-.886-5.058-3.963h12.749C359.018,81.522,359.071,80.166,359.071,79.54Zm-12.879-2.477c0-2.946,1.8-4.171,3.441-4.171,1.59,0,3.285,1.225,3.285,4.171Z" transform="translate(-211.216 -23.362)" fill="#635bff" fill-rule="evenodd"/>
    <path id="Path_524" data-name="Path 524" d="M269.384,67.6a7.365,7.365,0,0,0-5.11,2.034l-.339-1.616H258.2v30.4l6.518-1.382.026-7.378a7.342,7.342,0,0,0,4.615,1.642c4.667,0,8.916-3.754,8.916-12.019C278.248,71.719,273.947,67.6,269.384,67.6ZM267.82,85.563a3.9,3.9,0,0,1-3.076-1.225l-.026-9.672a3.88,3.88,0,0,1,3.1-1.277c2.372,0,4.015,2.659,4.015,6.075C271.835,82.956,270.219,85.563,267.82,85.563Z" transform="translate(-150.963 -23.362)" fill="#635bff" fill-rule="evenodd"/>
    <path id="Path_525" data-name="Path 525" d="M223.8,42.7l6.544-1.408V36L223.8,37.382Z" transform="translate(-125.532)" fill="#635bff" fill-rule="evenodd"/>
    <rect id="Rectangle_80" data-name="Rectangle 80" width="6.544" height="22.812" transform="translate(98.268 44.682)" fill="#635bff"/>
    <path id="Path_526" data-name="Path 526" d="M179.748,70.465l-.417-1.929H173.7V91.348h6.518V75.888a4.6,4.6,0,0,1,4.953-1.356v-6A4.425,4.425,0,0,0,179.748,70.465Z" transform="translate(-88.493 -23.854)" fill="#635bff" fill-rule="evenodd"/>
    <path id="Path_527" data-name="Path 527" d="M128.787,47.6l-6.361,1.356L122.4,69.838a6.551,6.551,0,0,0,6.752,6.7,10.069,10.069,0,0,0,4.562-.86V70.386c-.834.339-4.953,1.538-4.953-2.32V58.81h4.953V53.257h-4.953Z" transform="translate(-50.568 -8.576)" fill="#635bff" fill-rule="evenodd"/>
    <path id="Path_528" data-name="Path 528" d="M60.6,74.665c0-1.017.834-1.408,2.216-1.408a14.542,14.542,0,0,1,6.466,1.669V68.8a17.193,17.193,0,0,0-6.466-1.2C57.52,67.6,54,70.364,54,74.978c0,7.2,9.907,6.048,9.907,9.151,0,1.2-1.043,1.59-2.5,1.59a16.228,16.228,0,0,1-7.117-2.086v6.2A18.072,18.072,0,0,0,61.4,91.324c5.423,0,9.151-2.685,9.151-7.352C70.529,76.2,60.6,77.585,60.6,74.665Z" transform="translate(0 -23.362)" fill="#635bff" fill-rule="evenodd"/>
  </g>
</svg>
