<svg width="52" height="52" viewBox="0 0 52 52" fill="none" xmlns="http://www.w3.org/2000/svg">
<mask id="path-1-inside-1_314_3850" fill="white">
<path d="M29.9371 0.000178641H19.084C18.6489 0.000178641 18.2961 0.352569 18.2961 0.788061V4.65971H14.0701C12.6129 4.65971 11.4276 5.88389 11.4276 7.38805V30.5538L0.419885 36.3725C0.0351819 36.5756 -0.111779 37.0526 0.0913473 37.4373C0.23292 37.7043 0.506059 37.8566 0.78882 37.8566C0.912695 37.8566 1.03888 37.8274 1.15622 37.7651L11.4272 32.3357V44.6119C11.4272 46.116 12.6125 47.3402 14.0698 47.3402H18.2958V51.2118C18.2958 51.6473 18.6486 51.9997 19.0837 51.9997H29.9368C30.3719 51.9997 30.7247 51.6473 30.7247 51.2118V47.3402H34.9507C36.4079 47.3402 37.5932 46.116 37.5932 44.6119V18.5152L40.7413 16.8498C40.9779 17.0718 41.2572 17.2453 41.5761 17.3442C41.7881 17.4104 42.0051 17.4434 42.2217 17.4434C42.574 17.4434 42.9257 17.3565 43.2531 17.1834L45.3578 16.0223C46.5588 17.0187 50.1763 20.2768 50.4129 23.5565C50.506 24.8475 50.057 25.974 49.0402 26.9996C43.5543 32.5356 44.1894 43.3019 44.219 43.7579C44.2463 44.1741 44.593 44.4942 45.0046 44.4942C45.0219 44.4942 45.0392 44.4934 45.0565 44.4927C45.4909 44.4642 45.8198 44.0895 45.7917 43.6548C45.7848 43.5509 45.1677 33.1464 50.1597 28.1098C51.4966 26.7611 52.1106 25.1906 51.9844 23.4441C51.7301 19.9172 48.47 16.6432 46.8339 15.2087L48.6074 14.2304C49.6688 13.6679 50.0809 12.3452 49.5261 11.2819C49.256 10.7649 48.8013 10.3848 48.2454 10.2125C47.6895 10.0386 47.0978 10.0947 46.5808 10.3671C46.5766 10.3694 46.5723 10.3709 46.5685 10.3733L41.2149 13.327C40.4224 13.7456 39.9927 14.5881 40.0558 15.4306L37.5936 16.7332L37.5932 7.38787C37.5932 5.88371 36.408 4.65953 34.9507 4.65953H31.9273C31.9188 4.65992 31.9119 4.65569 31.9034 4.65646C31.8988 4.65646 31.8953 4.65915 31.8907 4.65953H30.7247V0.787882C30.7247 0.35239 30.3719 0 29.9368 0L29.9371 0.000178641ZM19.8719 1.57594H29.1487V4.65587H19.8719V1.57594ZM29.1487 50.4246H19.8719V47.3447H29.1487V50.4246ZM41.9636 14.7139L47.3222 11.7577C47.4642 11.6839 47.6246 11.6685 47.7773 11.717C47.9297 11.7647 48.0547 11.8693 48.129 12.0117C48.2844 12.3094 48.1682 12.6803 47.8581 12.8442L45.0474 14.3949C45.0455 14.3961 45.044 14.3968 45.0421 14.3976L42.5041 15.798C42.361 15.8741 42.1979 15.8888 42.044 15.8411C41.8916 15.7933 41.7666 15.6887 41.6924 15.5464C41.5369 15.2486 41.6532 14.8778 41.9636 14.7139ZM31.5419 28.7933C30.4532 28.8884 29.3337 28.9515 28.2049 28.9857C28.2303 19.5261 27.9156 9.16454 27.8195 6.23559H31.1702C31.2637 9.06901 31.5784 19.3656 31.5419 28.7936L31.5419 28.7933ZM13.0031 35.7069C15.0359 35.9377 20.2175 36.4571 25.7392 36.4571C29.2777 36.4571 32.9478 36.2393 36.0171 35.5988V39.8395C28.3583 41.5414 16.0236 40.3107 13.0031 39.9687V35.7069ZM36.0171 33.9895C28.3583 35.6918 16.0236 34.4608 13.0031 34.1188V29.8573C15.0359 30.0882 20.2179 30.6075 25.7392 30.6075C29.2777 30.6075 32.9478 30.3898 36.0171 29.7492V33.9895ZM26.6291 29.0156C25.4996 29.0268 24.3758 29.0152 23.2822 28.9864C23.3172 19.5225 23.0063 9.16425 22.9109 6.23529H26.2425C26.3363 9.08329 26.6549 19.5131 26.6291 29.0149L26.6291 29.0156ZM21.3339 6.23499C21.4266 9.07412 21.7402 19.4478 21.7063 28.9319C20.5237 28.8834 19.3965 28.8192 18.3582 28.748C18.3936 19.3673 18.0831 9.14255 17.9874 6.23526L21.3339 6.23499ZM14.0698 6.23499H16.4104C16.5035 9.04684 16.8159 19.2469 16.7828 28.6305C15.0882 28.4936 13.756 28.3535 13.0027 28.2681L13.0031 7.38729C13.0031 6.75176 13.4816 6.23472 14.0699 6.23472L14.0698 6.23499ZM34.9507 45.765H14.0698C13.4816 45.765 13.0031 45.248 13.0031 44.6124V41.5571C15.0359 41.788 20.2179 42.3073 25.7392 42.3073C29.2777 42.3073 32.9478 42.0896 36.0171 41.449V44.6125C36.0171 45.248 35.5385 45.765 34.9503 45.765L34.9507 45.765ZM36.0175 7.38825V28.1401C35.1084 28.3421 34.1366 28.5052 33.1187 28.631C33.1506 19.2822 32.8428 9.13581 32.747 6.2364H34.9507C35.5389 6.2364 36.0174 6.75345 36.0174 7.38898L36.0175 7.38825Z"/>
</mask>
<path d="M29.9371 0.000178641H19.084C18.6489 0.000178641 18.2961 0.352569 18.2961 0.788061V4.65971H14.0701C12.6129 4.65971 11.4276 5.88389 11.4276 7.38805V30.5538L0.419885 36.3725C0.0351819 36.5756 -0.111779 37.0526 0.0913473 37.4373C0.23292 37.7043 0.506059 37.8566 0.78882 37.8566C0.912695 37.8566 1.03888 37.8274 1.15622 37.7651L11.4272 32.3357V44.6119C11.4272 46.116 12.6125 47.3402 14.0698 47.3402H18.2958V51.2118C18.2958 51.6473 18.6486 51.9997 19.0837 51.9997H29.9368C30.3719 51.9997 30.7247 51.6473 30.7247 51.2118V47.3402H34.9507C36.4079 47.3402 37.5932 46.116 37.5932 44.6119V18.5152L40.7413 16.8498C40.9779 17.0718 41.2572 17.2453 41.5761 17.3442C41.7881 17.4104 42.0051 17.4434 42.2217 17.4434C42.574 17.4434 42.9257 17.3565 43.2531 17.1834L45.3578 16.0223C46.5588 17.0187 50.1763 20.2768 50.4129 23.5565C50.506 24.8475 50.057 25.974 49.0402 26.9996C43.5543 32.5356 44.1894 43.3019 44.219 43.7579C44.2463 44.1741 44.593 44.4942 45.0046 44.4942C45.0219 44.4942 45.0392 44.4934 45.0565 44.4927C45.4909 44.4642 45.8198 44.0895 45.7917 43.6548C45.7848 43.5509 45.1677 33.1464 50.1597 28.1098C51.4966 26.7611 52.1106 25.1906 51.9844 23.4441C51.7301 19.9172 48.47 16.6432 46.8339 15.2087L48.6074 14.2304C49.6688 13.6679 50.0809 12.3452 49.5261 11.2819C49.256 10.7649 48.8013 10.3848 48.2454 10.2125C47.6895 10.0386 47.0978 10.0947 46.5808 10.3671C46.5766 10.3694 46.5723 10.3709 46.5685 10.3733L41.2149 13.327C40.4224 13.7456 39.9927 14.5881 40.0558 15.4306L37.5936 16.7332L37.5932 7.38787C37.5932 5.88371 36.408 4.65953 34.9507 4.65953H31.9273C31.9188 4.65992 31.9119 4.65569 31.9034 4.65646C31.8988 4.65646 31.8953 4.65915 31.8907 4.65953H30.7247V0.787882C30.7247 0.35239 30.3719 0 29.9368 0L29.9371 0.000178641ZM19.8719 1.57594H29.1487V4.65587H19.8719V1.57594ZM29.1487 50.4246H19.8719V47.3447H29.1487V50.4246ZM41.9636 14.7139L47.3222 11.7577C47.4642 11.6839 47.6246 11.6685 47.7773 11.717C47.9297 11.7647 48.0547 11.8693 48.129 12.0117C48.2844 12.3094 48.1682 12.6803 47.8581 12.8442L45.0474 14.3949C45.0455 14.3961 45.044 14.3968 45.0421 14.3976L42.5041 15.798C42.361 15.8741 42.1979 15.8888 42.044 15.8411C41.8916 15.7933 41.7666 15.6887 41.6924 15.5464C41.5369 15.2486 41.6532 14.8778 41.9636 14.7139ZM31.5419 28.7933C30.4532 28.8884 29.3337 28.9515 28.2049 28.9857C28.2303 19.5261 27.9156 9.16454 27.8195 6.23559H31.1702C31.2637 9.06901 31.5784 19.3656 31.5419 28.7936L31.5419 28.7933ZM13.0031 35.7069C15.0359 35.9377 20.2175 36.4571 25.7392 36.4571C29.2777 36.4571 32.9478 36.2393 36.0171 35.5988V39.8395C28.3583 41.5414 16.0236 40.3107 13.0031 39.9687V35.7069ZM36.0171 33.9895C28.3583 35.6918 16.0236 34.4608 13.0031 34.1188V29.8573C15.0359 30.0882 20.2179 30.6075 25.7392 30.6075C29.2777 30.6075 32.9478 30.3898 36.0171 29.7492V33.9895ZM26.6291 29.0156C25.4996 29.0268 24.3758 29.0152 23.2822 28.9864C23.3172 19.5225 23.0063 9.16425 22.9109 6.23529H26.2425C26.3363 9.08329 26.6549 19.5131 26.6291 29.0149L26.6291 29.0156ZM21.3339 6.23499C21.4266 9.07412 21.7402 19.4478 21.7063 28.9319C20.5237 28.8834 19.3965 28.8192 18.3582 28.748C18.3936 19.3673 18.0831 9.14255 17.9874 6.23526L21.3339 6.23499ZM14.0698 6.23499H16.4104C16.5035 9.04684 16.8159 19.2469 16.7828 28.6305C15.0882 28.4936 13.756 28.3535 13.0027 28.2681L13.0031 7.38729C13.0031 6.75176 13.4816 6.23472 14.0699 6.23472L14.0698 6.23499ZM34.9507 45.765H14.0698C13.4816 45.765 13.0031 45.248 13.0031 44.6124V41.5571C15.0359 41.788 20.2179 42.3073 25.7392 42.3073C29.2777 42.3073 32.9478 42.0896 36.0171 41.449V44.6125C36.0171 45.248 35.5385 45.765 34.9503 45.765L34.9507 45.765ZM36.0175 7.38825V28.1401C35.1084 28.3421 34.1366 28.5052 33.1187 28.631C33.1506 19.2822 32.8428 9.13581 32.747 6.2364H34.9507C35.5389 6.2364 36.0174 6.75345 36.0174 7.38898L36.0175 7.38825Z" fill="#D05335" stroke="white" stroke-width="0.4" mask="url(#path-1-inside-1_314_3850)"/>
</svg>
