<svg xmlns="http://www.w3.org/2000/svg" xmlns:xlink="http://www.w3.org/1999/xlink" width="100" height="100" viewBox="0 0 100 100">
  <defs>
    <clipPath id="clip-path">
      <rect id="Rectangle_589" data-name="Rectangle 589" width="100" height="100" fill="#fff"/>
    </clipPath>
  </defs>
  <g id="Mask_Group_29" data-name="Mask Group 29" clip-path="url(#clip-path)">
    <path id="twitter" d="M89.721,68.323c.063.888.063,1.777.063,2.665,0,27.094-20.622,58.312-58.312,58.312A57.917,57.917,0,0,1,0,120.1a42.4,42.4,0,0,0,4.949.254A41.045,41.045,0,0,0,30.393,111.6,20.531,20.531,0,0,1,11.231,97.384,25.844,25.844,0,0,0,15.1,97.7,21.676,21.676,0,0,0,20.5,97,20.5,20.5,0,0,1,4.061,76.889v-.254a20.64,20.64,0,0,0,9.264,2.6A20.526,20.526,0,0,1,6.98,51.826,58.256,58.256,0,0,0,49.238,73.272a23.136,23.136,0,0,1-.508-4.7A20.515,20.515,0,0,1,84.2,54.554,40.351,40.351,0,0,0,97.208,49.6,20.44,20.44,0,0,1,88.2,60.9,41.086,41.086,0,0,0,100,57.727a44.056,44.056,0,0,1-10.279,10.6Z" transform="translate(0 -39.082)" fill="#fff"/>
  </g>
</svg>
