<svg xmlns="http://www.w3.org/2000/svg" xmlns:xlink="http://www.w3.org/1999/xlink" width="512" height="512" viewBox="0 0 512 512">
  <defs>
    <clipPath id="clip-path">
      <circle id="Ellipse_15" data-name="Ellipse 15" cx="256" cy="256" r="256" transform="translate(3577 339)" fill="#fff" opacity="0.603"/>
    </clipPath>
  </defs>
  <g id="Group_334" data-name="Group 334" transform="translate(-3577 -339)">
    <circle id="Ellipse_14" data-name="Ellipse 14" cx="256" cy="256" r="256" transform="translate(3577 339)" fill="#ddd"/>
    <g id="Mask_Group_26" data-name="Mask Group 26" clip-path="url(#clip-path)">
      <g id="noun-user-989667" transform="translate(3553.921 362.997)">
        <g id="Group_335" data-name="Group 335" transform="translate(56.975 59.542)">
          <path id="Path_1117" data-name="Path 1117" d="M44.153,444.552q8.611,11.424,18.233,21.885c50.821,55.262,122.023,89.734,200.8,89.734s149.975-34.472,200.79-89.728q9.616-10.457,18.233-21.878C519.878,394.581,6.489,394.574,44.153,444.552Zm446.887-7.306c5.485-1.652-81.984-62.765-102.1-72.179-12.524-5.864-26.692-9.414-34.183-15.376l-34.189-34.622L338,264.954c20.852-6.255,30.18-57.555,16.75-58.839,4.6-26.348,9.048-62.266,2.532-86.392-7.764-34.179-46.974-60.181-94.22-60.181-49.363,0-89.981,28.387-95.1,64.839-4.859,23.917-.676,57.034,3.643,81.74-13.43,1.283-3.748,52.715,17.091,58.969l17.091,49.991-49.942,42.011c-7.5,5.961-110,48.6-111.695,68.359C24.046,434.867,567.3,449.31,491.041,437.246Z" transform="translate(-42.177 -59.542)" fill="#f4f4f4"/>
        </g>
      </g>
    </g>
  </g>
</svg>
