<svg xmlns="http://www.w3.org/2000/svg" width="583.566" height="170.659" viewBox="0 0 583.566 170.659">
  <g id="FB_Cover" transform="translate(-0.071 -0.478)">
    <path id="Path_118" data-name="Path 118" d="M168.32.586H.071V170.978H168.32Z" transform="translate(0 0.159)" fill="#fff"/>
    <path id="Path_119" data-name="Path 119" d="M168.4.544H.155V170.936H168.4Z" transform="translate(0.313 0)" fill="none" stroke="#000" stroke-width="0.13"/>
    <path id="Path_120" data-name="Path 120" d="M384.591.544V74.159h37.09V62.981h-26.05V42.789h20.136V31.611H395.631V11.621h26.05V.544Zm-45.939,0V74.159h37.09V62.981H349.687V.544ZM281.971,74.209V.544h22.821a19.95,19.95,0,0,1,14.717,6.143,20.517,20.517,0,0,1,6.118,14.955A20.624,20.624,0,0,1,320.7,35.287a21.637,21.637,0,0,1,9.148,17.523,20.738,20.738,0,0,1-6.213,15.106,20.12,20.12,0,0,1-14.867,6.294Zm11.038-11.178H308.82a9.627,9.627,0,0,0,7.06-2.971,9.864,9.864,0,0,0,2.884-7.2,9.995,9.995,0,0,0-9.944-10.071H293.009Zm0-31.42h11.783a9.253,9.253,0,0,0,6.911-2.92,9.412,9.412,0,0,0,2.884-7,9.491,9.491,0,0,0-2.884-7,9.177,9.177,0,0,0-6.911-2.92H293.009ZM258.355,17.462V45.81h-17.75ZM255.869.544l-45.99,73.615h13.076l10.739-17.221H258.4V74.159h11.087V.544Zm-54.244.1H190.588V74.209h11.038ZM144.6.544V74.159h37.09V62.981H155.635V.544Zm-45.94,0V74.159h37.09V62.981H109.7V42.789h20.136V31.611H109.7V11.621h26.053V.544ZM75.637,41.48a21.155,21.155,0,0,0,9.2-7.7,20.5,20.5,0,0,0,3.63-11.833A20.55,20.55,0,0,0,82.25,6.888,20.118,20.118,0,0,0,67.384.594H40.536V74.209H51.573V43.192H64l15.91,31.017h12.43ZM51.573,32.014V11.722H67.384a9.628,9.628,0,0,1,7.06,2.971,9.945,9.945,0,0,1,2.884,7.2,9.716,9.716,0,0,1-2.884,7.1,9.628,9.628,0,0,1-7.06,2.971H51.573Z" transform="translate(151.75 0)" fill="#fff" fill-rule="evenodd"/>
    <path id="Path_121" data-name="Path 121" d="M407.2,95.614a12.859,12.859,0,0,1-1.392-.05,27.973,27.973,0,0,1-13.324-3.927,20.752,20.752,0,0,1-9.4-10.926l10.389-3.827a10.451,10.451,0,0,0,5.22,5.488,18.579,18.579,0,0,0,7.605,2.014,15.25,15.25,0,0,0,10.541-3.122,8.943,8.943,0,0,0,3.681-6.6c.2-4.733-4.674-8.459-14.569-11.279-15.562-4.431-23.067-11.934-22.621-22.508q.449-11.1,9.4-16.616c4.527-2.82,9.994-4.079,16.36-3.726,7.752.352,13.918,3.071,18.592,8.157l-8.052,7.6c-2.636-2.87-6.318-4.431-11.039-4.632a19.938,19.938,0,0,0-8.5,1.309,8.82,8.82,0,0,0-5.719,8.409q-.292,6.949,14.569,11.178c8.949,2.518,15.263,6.294,18.991,11.229a17.39,17.39,0,0,1,3.634,11.38c-.252,5.841-2.888,10.775-7.809,14.8A25.136,25.136,0,0,1,407.2,95.614Zm-77.163-74.37V94.859h37.09V83.68H341.07V63.489h20.136V52.361H341.07V32.371h26.055V21.193h-37.09ZM273.752,94.859H262.714V21.243h26.848a20.118,20.118,0,0,1,14.866,6.294,20.55,20.55,0,0,1,6.215,15.055,20.631,20.631,0,0,1-6.215,15.055,20.215,20.215,0,0,1-14.866,6.193H273.752Zm0-42.2h15.811a9.995,9.995,0,0,0,9.944-10.07,9.945,9.945,0,0,0-2.884-7.2,9.71,9.71,0,0,0-7.06-2.971H273.752Zm-45.244-14.5V66.51h-17.75Zm-2.486-16.918-45.99,73.615h13.076l10.739-17.221h24.71V94.859h11.087V21.243ZM150.3,62.13a21.155,21.155,0,0,0,9.2-7.7,20.5,20.5,0,0,0,3.63-11.833,20.55,20.55,0,0,0-6.215-15.055,20.118,20.118,0,0,0-14.866-6.294H115.2V94.859h11.038V63.842h12.43l15.91,31.017h12.48Zm-24.014-9.466V32.371H142.1a9.629,9.629,0,0,1,7.06,2.971,9.945,9.945,0,0,1,2.883,7.2,9.994,9.994,0,0,1-9.944,10.07H126.285Zm-85.666,42.2V21.243H59.711a34.811,34.811,0,0,1,25.7,10.826A35.809,35.809,0,0,1,96.006,58.1a35.777,35.777,0,0,1-10.59,25.982,34.811,34.811,0,0,1-25.7,10.826H40.619ZM51.607,83.781h8.1A24.289,24.289,0,0,0,77.66,76.228,24.867,24.867,0,0,0,85.068,58.1,25.063,25.063,0,0,0,77.66,39.924a24.289,24.289,0,0,0-17.949-7.553h-8.1Z" transform="translate(152.063 74.768)" fill="#fff" fill-rule="evenodd"/>
    <path id="Path_122" data-name="Path 122" d="M18.993,25.3,2.636,8.234l63.64-.05c9.794,0,17.352,13.041,17.6,21.652.2,7.7-.945,16.062-5.469,22.508a18.413,18.413,0,0,1-8.4,6.848c-.995.4-7.756,3.172-8.353,1.662L74.281,91.769h31.174c1.293,0,3.729-2.266,4.674-3.021a44.184,44.184,0,0,0,8.949-8.862c9.844-13.092,10.689-35.75.746-49.194-6.066-8.207-18.3-5.589-27.246-5.539l-8.2-17.069,35.5-.151a2.033,2.033,0,0,1,1.044.2c6.414,3.172,12.331,10.725,16.358,16.415,9.844,13.948,11.634,32.276,6.066,48.288-5.071,14.552-18.695,35.7-35.947,35.649l-45.045-.05L35.3,46.1l20.335.3c5.021.1,8.254-4.431,8.9-9.063.895-6.244-2.387-10.423-8.2-12.135H18.993Z" transform="translate(9.617 27.707)" fill="#102a83" fill-rule="evenodd"/>
  </g>
</svg>
