<svg xmlns="http://www.w3.org/2000/svg" width="477.042" height="319.364" viewBox="0 0 477.042 319.364">
  <g id="Group_187" data-name="Group 187" transform="translate(-44.734)">
    <path id="Path_570" data-name="Path 570" d="M95.111,37.753h23.718l9.027,20.439H103.68Z" transform="translate(92.793 36.833)" fill="#e2e2e2"/>
    <path id="Path_571" data-name="Path 571" d="M105.412,58.6h23.105l8.722,19.371H113.826Z" transform="translate(102.844 57.17)" fill="#e2e2e2"/>
    <path id="Path_604" data-name="Path 604" d="M105.412,58.6h23.105l8.722,19.371H113.826Z" transform="translate(120.844 100.645)" fill="#e2e2e2"/>
    <path id="Path_572" data-name="Path 572" d="M92.144,37.179c-.612.305-.153,2.9,1.224,7.321.765,2.135,1.683,4.881,2.754,7.931.612,1.525,1.224,3.051,1.836,4.728.765,1.83,1.071,2.746,2.754,6.864,4.131,0,8.569.153,13.16.153,4.131,0,8.414,0,12.852.153H135.6l-3.367-7.474c-1.683-3.813-3.366-7.474-5.05-11.134-1.837-3.966-3.521-7.779-5.2-11.287-1.683,0-3.214,0-4.9.153a17.642,17.642,0,0,0-2.908.153c-1.988,0-3.825.153-5.508.153-3.366.153-6.426.305-8.875.61-4.9.458-7.651.915-7.651,1.678,0,.61,2.754,1.22,7.8,1.678,2.448.153,5.508.458,8.876.61,1.683,0,3.519.153,5.508.153a18.564,18.564,0,0,1,2.908.153h1.377v.153l.3.61a16.812,16.812,0,0,0,1.073,2.44c.765,1.678,1.377,3.356,2.142,5.034,1.377,3.356,2.908,6.864,4.437,10.372-4.437,0-8.568.153-12.7.153-1.989,0-3.979,0-5.968.153h-3.825a34.291,34.291,0,0,1-1.683-3.661c-.765-1.678-1.53-3.2-2.142-4.576-1.377-2.9-2.6-5.338-3.673-7.474C94.133,39.161,92.756,37.026,92.144,37.179Z" transform="translate(89.639 33.594)" fill="#231b1b"/>
    <path id="Path_573" data-name="Path 573" d="M101.981,57.483c-.612.305-.154,2.9,1.223,7.321.767,2.135,1.683,4.881,2.756,7.931.61,1.525,1.223,3.051,1.835,4.728.765,1.83,1.071,2.746,2.754,6.864,4.131,0,8.568.153,13.16.153,4.131,0,8.416,0,12.853.152h8.875l-3.366-7.474c-1.683-3.813-3.367-7.474-5.05-11.134-1.835-3.966-3.519-7.779-5.2-11.287-1.683,0-3.214,0-4.9.153a17.618,17.618,0,0,0-2.906.153c-1.989,0-3.825.153-5.508.153-3.366.153-6.427.305-8.877.61-4.9.305-7.65.915-7.65,1.678,0,.61,2.754,1.22,7.8,1.678,2.448.153,5.508.458,8.875.61,1.683,0,3.519.153,5.508.153a18.589,18.589,0,0,1,2.908.153h1.377v.153l.306.61a17.013,17.013,0,0,0,1.071,2.44c.765,1.678,1.377,3.356,2.142,5.034,1.377,3.356,2.908,6.864,4.437,10.372-4.437,0-8.568.153-12.7.153-1.989,0-3.979,0-5.968.153h-3.825a34.659,34.659,0,0,1-1.683-3.661c-.765-1.678-1.529-3.2-2.142-4.576-1.377-2.9-2.6-5.338-3.673-7.474C104.122,59.466,102.593,57.178,101.981,57.483Z" transform="translate(99.236 53.404)" fill="#231b1b"/>
    <path id="Path_603" data-name="Path 603" d="M101.981,57.483c-.612.305-.154,2.9,1.223,7.321.767,2.135,1.683,4.881,2.756,7.931.61,1.525,1.223,3.051,1.835,4.728.765,1.83,1.071,2.746,2.754,6.864,4.131,0,8.568.153,13.16.153,4.131,0,8.416,0,12.853.152h8.875l-3.366-7.474c-1.683-3.813-3.367-7.474-5.05-11.134-1.835-3.966-3.519-7.779-5.2-11.287-1.683,0-3.214,0-4.9.153a17.618,17.618,0,0,0-2.906.153c-1.989,0-3.825.153-5.508.153-3.366.153-6.427.305-8.877.61-4.9.305-7.65.915-7.65,1.678,0,.61,2.754,1.22,7.8,1.678,2.448.153,5.508.458,8.875.61,1.683,0,3.519.153,5.508.153a18.589,18.589,0,0,1,2.908.153h1.377v.153l.306.61a17.013,17.013,0,0,0,1.071,2.44c.765,1.678,1.377,3.356,2.142,5.034,1.377,3.356,2.908,6.864,4.437,10.372-4.437,0-8.568.153-12.7.153-1.989,0-3.979,0-5.968.153h-3.825a34.659,34.659,0,0,1-1.683-3.661c-.765-1.678-1.529-3.2-2.142-4.576-1.377-2.9-2.6-5.338-3.673-7.474C104.122,59.466,102.593,57.178,101.981,57.483Z" transform="translate(117.236 96.878)" fill="#231b1b"/>
    <path id="Path_574" data-name="Path 574" d="M149.516,38.952c0-1.983-6.885-2.746-16.066-2.9H130.7c-9.029.153-16.068.915-16.068,2.9,0,1.83,6.887,2.746,16.068,2.9h2.754C142.477,41.7,149.516,40.783,149.516,38.952Z" transform="translate(111.835 35.176)" fill="#231b1b"/>
    <path id="Path_575" data-name="Path 575" d="M229.8,41.473c0-.458-1.377-1.068-3.825-1.678a73.543,73.543,0,0,0-11.17-1.373c-9.487-.458-22.8.61-37.49,2.746-1.529.153-2.906.458-4.437.61-1.377.153-2.906.458-4.437.61-14.537,2.288-27.39,3.966-36.723,4.576-4.591.305-8.264.61-10.864.763s-3.979.61-4.133,1.068c0,.458,1.379.915,3.979,1.373a62.554,62.554,0,0,0,11.17,1.068c9.487.305,22.8-.915,37.49-3.051,1.529-.153,2.906-.458,4.437-.61,1.377-.153,2.908-.458,4.437-.61,14.537-2.288,27.39-3.813,36.723-4.271,4.591-.153,8.416-.458,10.864-.458S229.8,41.93,229.8,41.473Z" transform="translate(113.875 37.384)" fill="#231b1b"/>
    <path id="Path_576" data-name="Path 576" d="M143.71,56.31c-.458-1.983-4.9-1.525-10.558-1.068a1.147,1.147,0,0,0-.765.153h-.767c-5.508.61-9.945,1.068-10.1,3.051-.154,1.83,4.437,3.2,10.558,2.9a2543.226,2543.226,0,0,1,1.835-.305C140.038,60.276,144.323,57.988,143.71,56.31Z" transform="translate(118.56 53.51)" fill="#231b1b"/>
    <path id="Path_606" data-name="Path 606" d="M143.71,56.31c-.458-1.983-4.9-1.525-10.558-1.068a1.147,1.147,0,0,0-.765.153h-.767c-5.508.61-9.945,1.068-10.1,3.051-.154,1.83,4.437,3.2,10.558,2.9a2543.226,2543.226,0,0,1,1.835-.305C140.038,60.276,144.323,57.988,143.71,56.31Z" transform="translate(136.56 96.984)" fill="#231b1b"/>
    <path id="Path_577" data-name="Path 577" d="M235.725,60.43c.154-.915-5.2-2.9-14.535-3.813a116.487,116.487,0,0,0-16.526-.153c-6.275.458-13.16,1.22-20.2,2.44-1.377.305-2.906.458-4.283.763s-2.756.458-4.285.763c-7.039,1.373-13.772,2.746-19.739,3.966s-11.324,2.135-15.762,2.9c-8.875,1.373-14.383,1.983-14.383,3.051,0,.915,5.66,1.678,14.841,1.22,4.591-.305,10.1-.915,16.22-1.83s12.854-2.135,19.893-3.508c1.377-.305,2.754-.458,4.285-.763,1.377-.305,2.754-.458,4.283-.763,7.039-1.22,13.62-2.288,19.741-2.9a159.162,159.162,0,0,1,15.914-.915C229.911,60.735,235.421,61.345,235.725,60.43Z" transform="translate(122.944 54.881)" fill="#231b1b"/>
    <path id="Path_605" data-name="Path 605" d="M235.725,60.43c.154-.915-5.2-2.9-14.535-3.813a116.487,116.487,0,0,0-16.526-.153c-6.275.458-13.16,1.22-20.2,2.44-1.377.305-2.906.458-4.283.763s-2.756.458-4.285.763c-7.039,1.373-13.772,2.746-19.739,3.966s-11.324,2.135-15.762,2.9c-8.875,1.373-14.383,1.983-14.383,3.051,0,.915,5.66,1.678,14.841,1.22,4.591-.305,10.1-.915,16.22-1.83s12.854-2.135,19.893-3.508c1.377-.305,2.754-.458,4.285-.763,1.377-.305,2.754-.458,4.283-.763,7.039-1.22,13.62-2.288,19.741-2.9a159.162,159.162,0,0,1,15.914-.915C229.911,60.735,235.421,61.345,235.725,60.43Z" transform="translate(140.944 98.355)" fill="#231b1b"/>
    <path id="Path_578" data-name="Path 578" d="M161.949,139.236c.152-.915-5.51-2.136-12.853-1.067-.306,0-.767.152-1.073.152s-.765.152-1.071.152c-7.343,1.525-12.087,4.73-11.629,5.492.458.915,5.356-1.373,12.241-2.594.306,0,.612-.152,1.071-.152.306,0,.612-.152,1.071-.152C156.439,139.847,161.949,140.151,161.949,139.236Z" transform="translate(131.996 134.397)" fill="#393637"/>
    <path id="Path_579" data-name="Path 579" d="M138.708,16.569c.152-1.068-3.06-2.135-8.416-3.508a185.64,185.64,0,0,0-21.729-4.576c-.918-.153-1.836-.153-2.6-.305-.918,0-1.836-.153-2.754-.153a57.587,57.587,0,0,0-12.7.458,49.3,49.3,0,0,0-9.946,2.593c-5.509,2.288-7.957,4.881-7.5,5.644s3.519-.458,8.722-1.525a65.4,65.4,0,0,1,9.181-1.373,74.889,74.889,0,0,1,11.629.153c.918,0,1.683.153,2.448.153.765.153,1.683.153,2.448.305,8.416.915,16.067,2.441,21.575,2.9C135.188,17.636,138.554,17.331,138.708,16.569Z" transform="translate(71.231 7.683)" fill="#393637"/>
    <path id="Path_580" data-name="Path 580" d="M198.452,13.485c-.154-1.983-16.22-1.373-37.031-.763a19.577,19.577,0,0,0-3.06.153H155.3c-20.809.61-36.877.763-36.877,2.9,0,1.83,16.068,3.355,37.031,3.05a19.577,19.577,0,0,0,3.06-.153,19.577,19.577,0,0,0,3.06-.153C182.538,17.6,198.6,15.163,198.452,13.485Z" transform="translate(115.538 11.835)" fill="#393637"/>
    <path id="Path_581" data-name="Path 581" d="M195.13,7.262c-.767-1.83-6.581-.153-13.924,1.678-.306.153-.767.153-1.073.305s-.765.153-1.071.305c-7.5,1.83-13.312,3.051-13.16,5.033.154,1.83,6.427,2.441,14.537.61.46-.153.767-.153,1.225-.305s.765-.153,1.225-.305C190.539,12.448,195.895,8.787,195.13,7.262Z" transform="translate(161.858 6.313)" fill="#393637"/>
    <path id="Path_582" data-name="Path 582" d="M222.306,129.674c1.837-.763-7.191-23.337-16.985-53.385-.458-1.525-1.071-3.051-1.529-4.423-.46-1.525-.919-3.051-1.377-4.423-9.793-30.048-15.914-53.537-17.9-53.08-1.683.305,2.6,24.557,12.241,54.91.458,1.525.919,3.051,1.531,4.576.458,1.525.917,3.05,1.529,4.576C210.065,108.32,220.776,130.437,222.306,129.674Z" transform="translate(179.667 14.007)" fill="#393637"/>
    <path id="Path_583" data-name="Path 583" d="M361.2,258.2c0-.458-5.814-.152-16.066.458-10.406.456-25.4.763-44.223.915-9.333,0-19.739.152-30.909.152-5.508,0-11.322.152-17.291.152s-12.089.152-18.516.306a144.737,144.737,0,0,0-19.584,2.136,80.5,80.5,0,0,0-10.1,2.44c-1.683.456-3.367,1.067-5.05,1.677l-2.448,1.067c-.46.154-.767.306-1.225.458l-1.071.458h-.154l-.61-.763c-1.073-1.221-2.3-2.594-3.366-3.967-2.3-2.744-4.591-5.338-6.733-8.082-4.437-5.492-8.722-11.441-12.853-17.39q-5.05-7.32-9.641-14.641c-1.529-2.442-3.06-4.882-4.589-7.474-1.531-2.442-3.06-5.034-4.437-7.628-14.537-25.472-26.166-50.791-36.265-73.822S98.009,90.725,91.582,73.184c-6.427-17.693-11.17-31.878-14.537-41.792-3.366-9.762-5.2-15.253-5.662-15.1S72,21.935,74.75,32c2.6,10.067,6.886,24.557,12.854,42.4s13.771,38.895,23.564,62.231c9.946,23.184,21.423,48.655,36.112,74.586,1.529,2.594,2.906,5.186,4.437,7.78s3.06,5.032,4.591,7.626c3.06,5.032,6.427,9.914,9.791,14.948,4.285,6.1,8.57,12.049,13.16,17.692,2.3,2.9,4.591,5.492,6.887,8.236,1.223,1.373,2.294,2.594,3.519,3.967l2.754,3.2.458.458c.154.152.306.456.46.3l1.223-.61,2.3-1.067,1.225-.61c.306-.152.765-.3,1.071-.458l2.3-.915c1.529-.61,3.06-1.067,4.589-1.525a95.819,95.819,0,0,1,9.487-2.288,133.9,133.9,0,0,1,18.974-2.136c6.275-.3,12.4-.456,18.209-.61,5.968-.152,11.783-.3,17.291-.456,11.17-.306,21.422-.61,30.909-.763,18.822-.458,33.971-1.373,44.375-2.594C355.688,259.878,361.35,258.659,361.2,258.2Z" transform="translate(69.544 15.892)" fill="#393637"/>
    <path id="Path_584" data-name="Path 584" d="M112.983,37.3c0,.458,1.073.763,2.908.915a23.88,23.88,0,0,0,7.8-1.068,17.2,17.2,0,0,0,5.2-2.746,13.08,13.08,0,0,0,4.133-5.949c1.529-4.881.61-10.524-1.989-15.405a12.325,12.325,0,0,0-1.837-2.746,32.148,32.148,0,0,0-2.142-2.593A23.741,23.741,0,0,0,113.289.85a35.2,35.2,0,0,0-11.782.915,38.4,38.4,0,0,0-7.192,2.44c-1.53.763-2.448,1.373-2.3,1.83s1.071.61,2.907.458c1.683,0,4.285-.458,7.345-.61a38.769,38.769,0,0,1,10.252.153,17.161,17.161,0,0,1,5.356,1.83,21.533,21.533,0,0,1,4.9,3.661,22.836,22.836,0,0,1,1.683,1.983c.46.763.919,1.373,1.377,2.135a15.791,15.791,0,0,1,1.989,11.135c-.765,3.2-3.212,5.186-5.662,6.406-2.6,1.22-4.9,1.983-6.579,2.593S112.983,36.847,112.983,37.3Z" transform="translate(89.763 0.676)" fill="#393637"/>
    <path id="Path_585" data-name="Path 585" d="M169.986,33.709c0,.458.765,1.068,2.448,1.068a8.131,8.131,0,0,0,6.121-3.661,2.448,2.448,0,0,0,.612-1.068c.154-.305.306-.763.458-1.068a11.452,11.452,0,0,0,.767-2.441A17.048,17.048,0,0,0,180.7,20.9a21.947,21.947,0,0,0-5.05-11.44,23.5,23.5,0,0,0-1.837-1.983c-.61-.61-1.377-1.22-1.99-1.83a14.31,14.31,0,0,0-2.754-1.83c-.917-.458-1.835-.915-2.906-1.373a28.186,28.186,0,0,0-5.51-1.678A40.543,40.543,0,0,0,151.47,0c-5.2.305-8.262,1.22-8.262,2.135s3.214,1.373,7.956,2.135a46.754,46.754,0,0,1,8.264,1.678c1.529.458,3.06,1.068,4.589,1.678a16.633,16.633,0,0,1,2.3,1.22c.612.458,1.377.915,1.989,1.373.458.458,1.071.915,1.531,1.373s.917,1.068,1.377,1.525a19.62,19.62,0,0,1,4.283,8.542,11.686,11.686,0,0,1,.154,3.966c-.154.61-.154,1.22-.306,1.678a6.546,6.546,0,0,1-.154.763c-.152.305-.152.458-.306.61a7.3,7.3,0,0,1-3.212,3.508C170.75,32.946,169.986,33.251,169.986,33.709Z" transform="translate(139.719)" fill="#393637"/>
    <path id="Path_586" data-name="Path 586" d="M74.913,20.459l-4.9,30.353S121.43,253.979,193.959,279.451c71.917-20.134,117.056-11.439,131.747-8.847,14.843,2.746,21.576,3.965,21.576,3.965s29.838-16.319,15.147-20.438c-14.689-3.965-154.392,8.543-154.392,8.543l-12.854,5.032-9.947-11.439S94.04,111.823,74.913,20.459Z" transform="translate(68.31 19.961)" fill="#221f20" fill-rule="evenodd"/>
    <path id="Path_587" data-name="Path 587" d="M287.961,161.461c.152-.915-7.191-3.05-19.586-5.8-6.121-1.373-13.466-3.2-22.034-4.728a194.4,194.4,0,0,0-28.155-2.594c-1.989,0-3.979-.152-6.121,0h-6.121a251.66,251.66,0,0,0-50.189,7.017,104.449,104.449,0,0,0-14.385,4.423c-3.366,1.219-5.05,2.134-4.9,2.592s2.142.3,5.508-.152c3.519-.61,8.416-1.525,14.689-2.594,12.4-2.136,29.838-4.88,49.579-5.338,1.988,0,3.977,0,5.966-.152h5.968a212.309,212.309,0,0,1,27.39,2.136c8.262,1.067,15.608,2.592,22.034,3.509C280,161.613,287.807,162.375,287.961,161.461Z" transform="translate(133.14 144.662)" fill="#393637"/>
    <path id="Path_588" data-name="Path 588" d="M194.947,266.215c.154-.61-2.906-1.831-7.956-5.034a99.309,99.309,0,0,1-19.434-16.015A202.414,202.414,0,0,1,144.3,215.119a414.9,414.9,0,0,1-23.106-41.641c-1.53-3.05-2.907-6.1-4.437-9.151-1.377-3.052-2.907-6.1-4.284-9.305C98.547,123.754,88.3,95.079,81.1,74.641c-7.192-20.591-11.17-33.1-12.241-32.793-.918.305,1.836,13.27,8.11,34.166a711.468,711.468,0,0,0,29.991,81.449c1.377,3.2,2.907,6.255,4.285,9.457,1.377,3.05,2.907,6.253,4.437,9.3a369.286,369.286,0,0,0,23.871,42.1c8.262,12.2,16.678,22.574,24.788,30.2,7.956,7.626,15.608,12.66,21.27,15.254C191.429,266.063,194.8,266.674,194.947,266.215Z" transform="translate(67.016 40.822)" fill="#393637"/>
    <path id="Path_589" data-name="Path 589" d="M286.257,167.56c.152-.915-7.191-3.05-19.586-5.8-6.121-1.373-13.466-3.355-22.034-4.728a194.678,194.678,0,0,0-28.155-2.594c-1.989,0-3.979-.152-6.121,0h-6.12a251.658,251.658,0,0,0-50.189,7.017,104.445,104.445,0,0,0-14.385,4.423c-3.367,1.219-5.05,2.136-4.9,2.592s2.142.306,5.508-.152c3.519-.61,8.416-1.525,14.689-2.594,12.4-2.134,29.84-4.88,49.579-5.338,1.989,0,3.977,0,5.966-.152h5.968a212.308,212.308,0,0,1,27.39,2.136c8.262,1.067,15.608,2.592,22.034,3.509C278.453,167.864,286.1,168.474,286.257,167.56Z" transform="translate(131.478 150.613)" fill="#393637"/>
    <path id="Path_590" data-name="Path 590" d="M193.243,272.314c.154-.61-2.906-1.829-7.956-5.032a99.392,99.392,0,0,1-19.434-16.017A202.309,202.309,0,0,1,142.6,221.218a414.413,414.413,0,0,1-23.106-41.641c-1.53-3.05-2.907-6.1-4.437-9.151-1.377-3.05-2.907-6.1-4.285-9.305C96.843,129.854,86.591,101.179,79.4,80.74c-7.192-20.591-11.17-33.1-12.241-32.793-.918.305,1.836,13.27,8.11,34.166a711.578,711.578,0,0,0,29.991,81.45c1.377,3.2,2.907,6.253,4.284,9.455,1.377,3.05,2.907,6.255,4.437,9.305a369.229,369.229,0,0,0,23.871,42.1c8.262,12.2,16.678,22.574,24.788,30.2,7.956,7.626,15.608,12.66,21.27,15.252C189.877,272.162,193.243,272.772,193.243,272.314Z" transform="translate(65.354 46.773)" fill="#393637"/>
    <path id="Path_601" data-name="Path 601" d="M82.434,76.928c.1-1.983-16.447-4.271-37.938-5.034H38.039C16.447,71.59,0,73.268,0,75.25c0,1.83,16.547,1.83,37.938,2.44h3.229a22.888,22.888,0,0,1,3.229.153C65.887,78.149,82.334,78.759,82.434,76.928Z" transform="translate(44.734 58.703)" fill="#1b1b1b"/>
    <path id="Path_611" data-name="Path 611" d="M89.608,76.928c.11-1.983-17.878-4.271-41.239-5.034h-7.02C17.878,71.59,0,73.268,0,75.25c0,1.83,17.988,1.83,41.24,2.44h3.51a27.027,27.027,0,0,1,3.51.153C71.621,78.149,89.5,78.759,89.608,76.928Z" transform="translate(44.734 137.211)" fill="#1b1b1b"/>
    <path id="Path_612" data-name="Path 612" d="M54.348,76.928c.067-1.983-10.843-4.271-25.012-5.034H25.079C10.843,71.59,0,73.268,0,75.25c0,1.83,10.91,1.83,25.012,2.44h2.129a10.008,10.008,0,0,1,2.129.153C43.439,78.149,54.282,78.759,54.348,76.928Z" transform="translate(127.169 213.178)" fill="#1b1b1b"/>
    <path id="Path_602" data-name="Path 602" d="M324.57,71.495c.5-2.175-21.594-5.689-51.381-6.86-1.49,0-2.98-.167-4.468-.167a39.856,39.856,0,0,1-4.468-.167c-29.539-.669-52.128,1.506-51.881,3.681.25,2.008,22.588,1.841,51.631,2.844a33.561,33.561,0,0,1,4.221.167c1.49,0,2.977.167,4.218.167C301.735,71.829,324.073,73.5,324.57,71.495Z" transform="translate(197.197 11.277)" fill="#1b1b1b"/>
    <path id="Path_566" data-name="Path 566" d="M286.208,124.34c7.191,20.9,1.223,41.641-12.089,51.25-13.618,9.914-35.652,8.847-53.4-6.559-25.553-22.117-32.286-63.3-3.977-80.382C243.516,72.634,276.108,94.9,286.208,124.34Z" transform="translate(193.499 81.266)" fill="#e2e2e2"/>
    <path id="Path_567" data-name="Path 567" d="M244.125,80.11c0-.305-.765-.61-2.6-1.22a39.979,39.979,0,0,0-7.956-1.068,42.588,42.588,0,0,0-12.853,1.83,39.607,39.607,0,0,0-14.843,9,38.223,38.223,0,0,0-10.712,18.456,54.542,54.542,0,0,0-.3,24.405,78.8,78.8,0,0,0,9.791,25.014,75.508,75.508,0,0,0,19.586,21.811l1.225.917,1.377.763c.919.608,1.683,1.067,2.6,1.677,1.835.915,3.519,1.982,5.508,2.746a61.168,61.168,0,0,0,11.629,3.813c10.1,2.134,20.657,1.371,29.532-2.746a37.627,37.627,0,0,0,11.783-8.084,41.851,41.851,0,0,0,7.958-10.983,46.994,46.994,0,0,0,4.131-12.049,45.62,45.62,0,0,0,.917-11.9,51.261,51.261,0,0,0-1.529-10.981,58.887,58.887,0,0,0-3.214-9.61,72.67,72.67,0,0,0-8.72-14.643,66.291,66.291,0,0,0-8.722-9.3c-5.2-4.576-8.722-6.406-8.875-6.1-.306.458,2.6,2.745,7.191,7.779a84.645,84.645,0,0,1,7.652,9.609,66.233,66.233,0,0,1,7.5,14.338,51.707,51.707,0,0,1,2.754,9,53.266,53.266,0,0,1,1.223,10.068,42.763,42.763,0,0,1-1.071,10.676A40.659,40.659,0,0,1,291.254,164c-3.673,6.863-9.487,13.118-17.291,16.321a42.992,42.992,0,0,1-26.013,2.136,46.1,46.1,0,0,1-10.4-3.357c-1.683-.609-3.214-1.677-4.9-2.44l-2.3-1.525-1.223-.763-1.071-.763a70.5,70.5,0,0,1-18.209-19.982,74.986,74.986,0,0,1-9.487-23.184,51.408,51.408,0,0,1-.154-22.116,37.769,37.769,0,0,1,3.521-9.3c.765-1.373,1.683-2.746,2.448-3.966a20.833,20.833,0,0,1,2.908-3.355,40.227,40.227,0,0,1,13.006-8.847,37.578,37.578,0,0,1,11.783-2.593,43.5,43.5,0,0,1,7.8,0C243.054,80.415,244.125,80.415,244.125,80.11Z" transform="translate(188.911 75.926)" fill="#231b1b"/>
    <path id="Path_568" data-name="Path 568" d="M220.894,96.069c-1.835.763.612,8.389,3.673,18.3.152.456.306.915.458,1.525.154.456.306.915.46,1.525,3.212,9.762,5.2,17.388,7.191,17.081,1.835-.3,1.529-8.541-1.531-18.761-.152-.456-.306-1.067-.458-1.525s-.306-1.067-.458-1.525C226.708,102.476,222.577,95.307,220.894,96.069Z" transform="translate(214.896 93.675)" fill="#231b1b"/>
    <path id="Path_569" data-name="Path 569" d="M254.765,105.812c-.306-1.984-8.875-1.525-19.739-.152-.612.152-1.071.152-1.683.3-.612,0-1.071.152-1.683.152-11.018,1.679-19.28,3.661-18.974,5.644.306,1.829,8.875,1.525,19.739.152.612-.152,1.071-.152,1.683-.3.612,0,1.071-.154,1.683-.154C246.655,109.778,254.919,107.642,254.765,105.812Z" transform="translate(207.496 101.93)" fill="#231b1b"/>
  </g>
</svg>
