<?xml version="1.0" encoding="utf-8"?>
<!-- Generator: Adobe Illustrator 25.3.1, SVG Export Plug-In . SVG Version: 6.00 Build 0)  -->
<svg version="1.1" id="Layer_1" xmlns="http://www.w3.org/2000/svg" xmlns:xlink="http://www.w3.org/1999/xlink" x="0px" y="0px"
	 viewBox="0 0 300 70.2" style="enable-background:new 0 0 300 70.2;" xml:space="preserve">
<style type="text/css">
	.st0{fill:#FFFFFF;}
	.st1{fill:none;}
	.st2{enable-background:new    ;}
</style>
<g>
	<path d="M68.1,68.4H3.8c-0.6,0-1.1-0.5-1.1-1.1V2.9c0-0.6,0.5-1.1,1.1-1.1h64.3c0.6,0,1.1,0.5,1.1,1.1v64.3
		C69.3,67.9,68.8,68.4,68.1,68.4z"/>
	<path class="st0" d="M54.8,17.4c0,0.5-8.4,0.9-18.8,0.9s-18.9-0.4-18.9-0.9c0-0.5,8.4-0.9,18.8-0.9S54.8,16.9,54.8,17.4z"/>
	<path class="st0" d="M55.1,24.3c0,1.1-8.6,1.9-19.1,1.9s-19.1-0.8-19.1-1.9c0-1,8.6-1.9,19.1-1.9S55.1,23.3,55.1,24.3z"/>
	<path class="st0" d="M55.5,34.1c0,2.2-8.7,3.9-19.5,3.9s-19.5-1.8-19.5-3.9c0-2.2,8.7-3.9,19.5-3.9S55.5,31.9,55.5,34.1z"/>
	<path class="st0" d="M55.5,47.8c0,3.2-8.7,5.8-19.5,5.8S16.5,51,16.5,47.8S25.2,42,36,42S55.5,44.5,55.5,47.8z"/>
	<rect x="87.4" y="11.4" class="st1" width="209.9" height="47.4"/>
	<g class="st2">
		<path d="M90.6,56.8V15h18.3v5.9h-9.8v11h7.6v5.9h-7.6v13.1h9.9v5.9H90.6z"/>
		<path d="M112.9,22.1v-5.9h7.9v5.9H112.9z M112.9,56.8V26.9h7.8v29.9H112.9z"/>
		<path d="M126.1,56.8V14.9h7.8v23.6l7.4-11.5h8.6l-7.6,12.1l7.6,17.7h-8.4l-5.3-14.4l-2.3,3v11.4H126.1z"/>
		<path d="M158.6,57.3c-1.3,0-2.6-0.4-3.6-1.1c-1-0.7-1.9-1.7-2.4-2.7c-0.5-1-0.7-2.2-0.7-3.4c0-0.7,0.1-1.6,0.2-2.2
			c0.1-0.7,0.3-1.3,0.5-1.9c0.2-0.5,0.5-1.1,0.9-1.6c0.4-0.5,0.8-0.9,1.1-1.3c0.3-0.4,0.8-0.7,1.5-1.1c0.6-0.4,1-0.7,1.5-0.9
			c0.4-0.2,0.9-0.5,1.7-0.8c0.6-0.3,1.2-0.5,1.6-0.7c0.4-0.2,0.9-0.4,1.7-0.6c0.7-0.3,1.2-0.4,1.6-0.6v-2.8c0-1-0.1-1.9-0.4-2.4
			c-0.3-0.5-0.8-0.8-1.6-0.8c-1.3,0-2.1,0.9-2.1,2.8l-0.1,2.1l-7.4-0.3c0-0.3,0-0.7,0.1-1c0.2-3.2,1.1-5.5,2.9-7.1
			c1.8-1.6,4.1-2.3,7.4-2.3c2.9,0,5.2,0.8,6.6,2.4c1.5,1.7,2.3,3.8,2.3,6.6v13.8c0,2.3,0.2,4.8,0.5,7.5h-7c-0.4-2.2-0.6-3.6-0.7-4.3
			c-0.4,1.3-1.1,2.5-2.1,3.4C161.4,56.8,160.2,57.3,158.6,57.3z M161.5,51.6c0.4,0,0.9-0.2,1.5-0.5c0.5-0.3,0.8-0.7,1.1-1.1v-8.2
			c-1.3,0.7-2.6,1.7-3.5,2.8c-0.9,1.1-1.5,2.4-1.5,3.6c0,1,0.2,1.8,0.6,2.4C160.2,51.4,160.8,51.6,161.5,51.6z"/>
		<path d="M186.2,57.3c-3.3,0-5.8-0.9-7.6-2.7s-2.5-4.5-2.5-7.9v-9.6c0-3.4,0.8-6,2.5-7.9c1.7-1.9,4.1-2.7,7.5-2.7
			c3.4,0,5.8,0.9,7.4,2.7c1.6,1.8,2.3,4.6,2.3,8.1v5h-11.9v4.9c0,1.5,0.1,2.6,0.4,3.3c0.3,0.7,0.9,1.1,1.8,1.1
			c1.6,0,2.3-1.1,2.3-3.3v-2.8h7.3v2.4c0,3-0.8,5.4-2.5,7C191.6,56.5,189.3,57.3,186.2,57.3z M183.9,38.6h4.6v-2.9
			c0-1.2-0.2-2.2-0.5-2.8c-0.4-0.5-0.9-0.8-1.8-0.8s-1.3,0.3-1.8,0.9c-0.3,0.6-0.5,1.8-0.5,3.3V38.6z"/>
		<path d="M214.3,57.3c-2,0-4-0.9-6-2.7v2.2h-7.8V15h7.8v14.2c2-1.8,3.9-2.7,6.1-2.7c0,0,0.1,0,0.2,0c1.2,0,2.3,0.3,3.1,0.9
			c0.9,0.6,1.6,1.3,2,2.3c0.4,0.9,0.8,2,1,2.9c0.2,1,0.3,2.1,0.3,3.2v11.4c0,3-0.5,5.4-1.7,7.3C218.3,56.4,216.6,57.3,214.3,57.3z
			 M211,52C211,52,211.1,52,211,52c0.8,0,1.5-0.4,1.8-1.1c0.3-0.8,0.5-1.9,0.5-3.2V35.3c0-2.6-0.7-3.8-2.2-3.8H211
			c-0.7,0-1.7,0.4-2.6,1v18.7C209.2,51.7,210.1,52,211,52z"/>
		<path d="M232,57.3c-1.3,0-2.6-0.4-3.6-1.1c-1-0.7-1.9-1.7-2.4-2.7c-0.5-1-0.7-2.2-0.7-3.4c0-0.7,0.1-1.6,0.2-2.2
			c0.1-0.6,0.3-1.3,0.5-1.9c0.2-0.5,0.5-1.1,0.9-1.6c0.4-0.5,0.8-0.9,1.1-1.3c0.3-0.4,0.8-0.7,1.5-1.1c0.6-0.4,1-0.7,1.5-0.9
			c0.4-0.2,0.9-0.5,1.7-0.8c0.6-0.3,1.2-0.5,1.6-0.7s0.9-0.4,1.7-0.6c0.7-0.3,1.2-0.4,1.6-0.6v-2.8c0-1-0.1-1.9-0.4-2.4
			c-0.3-0.5-0.8-0.8-1.6-0.8c-1.3,0-2.1,0.9-2.1,2.8l-0.1,2.1l-7.4-0.3c0-0.3,0-0.7,0.1-1c0.2-3.2,1.1-5.5,2.9-7.1
			c1.8-1.6,4.1-2.3,7.4-2.3c2.9,0,5.2,0.8,6.6,2.4c1.5,1.7,2.3,3.8,2.3,6.6v13.8c0,2.3,0.2,4.8,0.5,7.5h-7c-0.4-2.2-0.6-3.6-0.7-4.3
			c-0.4,1.3-1.1,2.5-2.1,3.4C234.7,56.8,233.4,57.3,232,57.3z M234.9,51.6c0.4,0,0.9-0.2,1.5-0.5c0.5-0.3,0.8-0.7,1.1-1.1v-8.2
			c-1.3,0.7-2.6,1.7-3.5,2.8c-0.9,1.1-1.5,2.4-1.5,3.6c0,1,0.2,1.8,0.6,2.4C233.5,51.4,234.1,51.6,234.9,51.6z"/>
		<path d="M250,56.8V26.9h7.8v2.9c2.4-2.3,4.9-3.4,7.3-3.4c1.8,0,3,0.6,3.9,1.9c0.8,1.2,1.3,2.9,1.3,4.8v23.8h-7.8V34.5
			c0-0.8-0.1-1.5-0.4-1.9c-0.2-0.4-0.7-0.6-1.5-0.6c-0.8,0-1.8,0.4-2.9,1.1v23.7H250z"/>
		<path d="M281.4,57.3c-1.3,0-2.6-0.4-3.6-1.1c-1-0.7-1.9-1.7-2.4-2.7c-0.5-1-0.7-2.2-0.7-3.4c0-0.7,0.1-1.6,0.2-2.2
			c0.1-0.7,0.3-1.3,0.5-1.9c0.2-0.5,0.5-1.1,0.9-1.6c0.4-0.5,0.8-0.9,1.1-1.3c0.3-0.4,0.8-0.7,1.5-1.1c0.6-0.4,1-0.7,1.5-0.9
			c0.4-0.2,0.9-0.5,1.7-0.8c0.6-0.3,1.2-0.5,1.6-0.7c0.3-0.2,0.9-0.4,1.7-0.6c0.7-0.3,1.2-0.4,1.6-0.6v-2.8c0-1-0.1-1.9-0.4-2.4
			c-0.3-0.5-0.8-0.8-1.6-0.8c-1.3,0-2.1,0.9-2.1,2.8l-0.1,2.1l-7.4-0.3c0-0.3,0-0.7,0.1-1c0.2-3.2,1.1-5.5,2.9-7.1
			c1.8-1.6,4.1-2.3,7.4-2.3c2.9,0,5.2,0.8,6.6,2.4c1.5,1.7,2.3,3.8,2.3,6.6v13.8c0,2.3,0.2,4.8,0.5,7.5h-7c-0.4-2.2-0.6-3.6-0.7-4.3
			c-0.4,1.3-1.1,2.5-2.1,3.4C284.2,56.8,283,57.3,281.4,57.3z M284.4,51.6c0.4,0,0.9-0.2,1.5-0.5c0.5-0.3,0.8-0.7,1.1-1.1v-8.2
			c-1.3,0.7-2.6,1.7-3.5,2.8c-0.9,1.1-1.5,2.4-1.5,3.6c0,1,0.2,1.8,0.6,2.4C283.1,51.4,283.6,51.6,284.4,51.6z"/>
	</g>
</g>
</svg>
