<svg xmlns="http://www.w3.org/2000/svg" xmlns:xlink="http://www.w3.org/1999/xlink" width="16" height="19" viewBox="0 0 16 19">
  <defs>
    <clipPath id="clip-path">
      <rect id="Rectangle_14" data-name="Rectangle 14" width="16" height="19" fill="#fff"/>
    </clipPath>
  </defs>
  <g id="apple-icon" clip-path="url(#clip-path)">
    <path id="Path_132" data-name="Path 132" d="M10.244.19A3.951,3.951,0,0,0,8.2,3.154c0,.532.293.57,1.229.19A3.841,3.841,0,0,0,11.512.228C11.512-.038,10.829-.057,10.244.19Z" fill="#fff"/>
    <path id="Path_133" data-name="Path 133" d="M3.9,3.781A5.6,5.6,0,0,0,.332,7.239c-1,2.983.39,8.208,2.79,10.621,1.21,1.216,1.893,1.349,3.8.76a3.762,3.762,0,0,1,3.278.114c1.288.437,2.224.152,3.376-1.007A12.722,12.722,0,0,0,16,13.433a2.633,2.633,0,0,0-.858-.988,3.34,3.34,0,0,1-1.483-2.831,3.715,3.715,0,0,1,1.464-2.888l.683-.551L15.4,5.6c-1.4-1.881-3.629-2.451-6.146-1.6l-1.19.418-1.21-.418A4.658,4.658,0,0,0,3.9,3.781Z" fill="#fff"/>
  </g>
</svg>
