<svg xmlns="http://www.w3.org/2000/svg" xmlns:xlink="http://www.w3.org/1999/xlink" width="625.094" height="625.921" viewBox="0 0 625.094 625.921">
  <defs>
    <clipPath id="clip-path">
      <path id="Path_4" data-name="Path 4" d="M13,323.375c0,172.843,139.917,312.931,312.547,312.931S638.094,496.163,638.094,323.375c0-134.786-105.221-230.177-114.23-238.006-45.435-39.742-94.626-57.28-99.579-59.022a298.616,298.616,0,0,0-98.738-15.953c-119.625.793-200.149,72.5-219.451,90.683-6.533,6.1-11.235,11.1-12.323,12.289C25.374,186.309,13,282.69,13,323.375Z" transform="translate(-13 -10.384)"/>
    </clipPath>
  </defs>
  <g id="Group_7" data-name="Group 7" transform="translate(-444.453 -121.491)">
    <g id="Group_6" data-name="Group 6" transform="translate(28.379 28.929)">
      <g id="Group_5" data-name="Group 5" transform="translate(416.074 92.562)">
        <g id="Group_1" data-name="Group 1" transform="translate(0 0)" clip-path="url(#clip-path)">
          <path id="Rectangle_1" data-name="Rectangle 1" d="M0,0H727.84V728.735H0Z" transform="translate(-51.374 -51.377)" fill="#fffcf6"/>
          <path id="Path_2" data-name="Path 2" d="M364.574,389.279a275.52,275.52,0,0,1-31.668-18.04,230.17,230.17,0,0,1-24.6-18.8,203.064,203.064,0,0,1-18.52-18.523,191.15,191.15,0,0,1-13.43-17.221c-8.211-11.857-13.7-22.632-19.517-34.04-8.257-16.2-16.8-32.953-33.845-53.22A254.6,254.6,0,0,0,172.5,183.579l.8-1.159a256.008,256.008,0,0,1,50.771,46.112c17.152,20.39,25.728,37.216,34.021,53.487,5.792,11.364,11.263,22.1,19.421,33.878a189.753,189.753,0,0,0,13.331,17.095,201.646,201.646,0,0,0,18.392,18.394,228.76,228.76,0,0,0,24.45,18.679,274.1,274.1,0,0,0,31.506,17.948Z" transform="translate(-93.761 -97.461)" fill="#d3d3d3"/>
          <path id="Path_3" data-name="Path 3" d="M857.361,58.681a113.212,113.212,0,0,1-11.374-.569,109.782,109.782,0,0,1-29.51-7.2A110.851,110.851,0,0,1,790.1,35.976a115.34,115.34,0,0,1-18.272-17.5A115.049,115.049,0,0,1,755.481-7.117l1.238-.567A113.671,113.671,0,0,0,772.868,17.6a113.974,113.974,0,0,0,18.056,17.292A109.486,109.486,0,0,0,816.98,49.647a108.419,108.419,0,0,0,29.144,7.11,114.447,114.447,0,0,0,25.144-.277,114.456,114.456,0,0,0,29.238-7.425l.514,1.261a116.348,116.348,0,0,1-29.589,7.516A117.717,117.717,0,0,1,857.361,58.681Z" transform="translate(-388.318 -1.41)" fill="#d3d3d3"/>
          <circle id="Ellipse_1" data-name="Ellipse 1" cx="6" cy="6" r="6" transform="translate(361.547 142.509)" fill="#d05335"/>
        </g>
        <path id="Ellipse_2" data-name="Ellipse 2" d="M13.394-4.086a17.48,17.48,0,1,1-17.48,17.48A17.5,17.5,0,0,1,13.394-4.086Zm0,26.787a9.307,9.307,0,1,0-9.307-9.307A9.318,9.318,0,0,0,13.394,22.7Z" transform="translate(242.587 152.413)" fill="#fff"/>
        <path id="Ellipse_3" data-name="Ellipse 3" d="M9.474-2.886A12.36,12.36,0,1,1-2.886,9.474,12.374,12.374,0,0,1,9.474-2.886Zm0,18.949A6.588,6.588,0,1,0,2.886,9.474,6.6,6.6,0,0,0,9.474,16.063Z" transform="translate(133.173 400.667)" fill="#fff"/>
      </g>
    </g>
    <g id="Group_4" data-name="Group 4" transform="translate(1097 145)">
      <g id="Group_3" data-name="Group 3" transform="translate(-492 63)">
        <g id="_91.Office" data-name="91.Office" transform="translate(0)">
          <path id="Path_74" data-name="Path 74" d="M101.433,291.491c3.286,12.741,14.7,8.6,16.094,7.376-3.078-8.328-5.512-15.691-7.638-20.788h0C102.6,278.818,100.1,286.328,101.433,291.491Z" transform="translate(106.705 -165.369)" fill="#221f1f"/>
          <path id="Path_75" data-name="Path 75" d="M163.072,301.887a8.323,8.323,0,0,0,4.5,1.308c10.441,0,12.452-15.081,5.1-19.614C168.953,289.152,165.942,295.677,163.072,301.887Z" transform="translate(5.61 -167.181)" fill="#221f1f"/>
          <path id="Path_76" data-name="Path 76" d="M170.339,223.055a8.548,8.548,0,0,1-8.469-8.825S166.665,219.487,170.339,223.055Z" transform="translate(13.136 -144.335)" fill="#221f1f"/>
          <path id="Path_77" data-name="Path 77" d="M147.518,198.125a20.211,20.211,0,0,0,6.451,9.16l3.038,2.488a38.705,38.705,0,0,1,8.791,10.4,22.472,22.472,0,0,1,2.186,5.606,20.835,20.835,0,0,1,.221,7.571c-.1.771.322.8.858.181a5.714,5.714,0,0,0,.791-1.341,7.269,7.269,0,0,0,.376-2.153,20.9,20.9,0,0,0-1.837-8.228,29.2,29.2,0,0,0-4.412-7.054,47.657,47.657,0,0,0-7.121-7.115,33.38,33.38,0,0,1-4.023-3.521,17.435,17.435,0,0,1-2.924-4.372,23.645,23.645,0,0,1-1.951-6.243,33.53,33.53,0,0,1-.463-4.989V186l.067-1.254.121-1.341v-.228a1.341,1.341,0,0,0-.074-.624.489.489,0,0,0-.228-.194,1.147,1.147,0,0,0-.288-.134c-.194-.074-.49-.168-.59-.215l-.4-.188a3.815,3.815,0,0,1-1.341-1.019,1.6,1.6,0,0,1-.443-1.294,2.716,2.716,0,0,1,.671-1.341,9.649,9.649,0,0,1,1.153-1.046c.785-.624,1.341-.992,1.73-1.341a1.925,1.925,0,0,0,.63-.872.741.741,0,0,1,.074-.215c.027-.074.047-.148,0-.181s-.06,0-.067,0h0l-.1-.174h-.127l-.268.04a6.25,6.25,0,0,0-1.683.738,11.237,11.237,0,0,0-2.233,1.676,5.226,5.226,0,0,0-.51.57l-.241.308-.215.362a4.223,4.223,0,0,0-.349.811,3.292,3.292,0,0,0,.094,1.945,4.527,4.527,0,0,0,.456.811,5.063,5.063,0,0,0,1.234,1.167,6.833,6.833,0,0,0,1.4.731h.06v.1l-.047.469c-.034.315-.054.637-.074.952,0,.671-.08,1.281-.08,1.925A32.047,32.047,0,0,0,147.4,198.1Z" transform="translate(26.113 -131.195)" fill="#221f1f"/>
          <path id="Line_2" data-name="Line 2" transform="translate(211.129 56.939)"/>
          <path id="Path_78" data-name="Path 78" d="M43.744,136.578c1.5,2.548,9.334,9.388,26.9,13.733,2.186.536,2.991,9.9,4.949,8.51,2.454-1.737,11.815-7.872,14.753,1.026,1.408,4.332-2.81,7.463-6.122,8.141a6.156,6.156,0,0,1-8.972,8.409c-3.748,3.715-4.439,12.841-.221,16.013,9.522,7.2-2.354,26.528,32.865,25.039,10.93-.463,20.211-9.71,24.643-19.715a36.3,36.3,0,0,0-1.475-31.638c-2.267-4.131-7.376-7.832-9.153-12.184-1.945-4.66-.671-29.867-26.447-39-12.07-4.285-27.118-5.365-39.49-2.012C41.042,116.95,41,131.924,43.744,136.578Z" transform="translate(128.15 -110.304)" fill="#221f1f"/>
          <path id="Path_79" data-name="Path 79" d="M130.805,168.373a35.446,35.446,0,0,1,1.616,25.676,33.221,33.221,0,0,1-2.642,6.035,39.153,39.153,0,0,1-3.668,5.492,36.878,36.878,0,0,1-4.593,4.694,27,27,0,0,1-5.452,3.668,20.841,20.841,0,0,1-9.133,2.307,66.38,66.38,0,0,1-9.75-.3,32.523,32.523,0,0,1-6.4-1.341,15.423,15.423,0,0,1-5.532-3.091,13.258,13.258,0,0,1-3.487-5.224,59.015,59.015,0,0,1-1.837-6.391,28.211,28.211,0,0,0-1.06-3.306,12.338,12.338,0,0,0-1.73-3.125,4.848,4.848,0,0,0-.59-.671,7.31,7.31,0,0,0-.637-.671l-.7-.59-.55-.5a6.88,6.88,0,0,1-1.542-2.562,12.258,12.258,0,0,1-.55-3.1,15.978,15.978,0,0,1,.221-3.192,13.935,13.935,0,0,1,.939-3.044,4.83,4.83,0,0,1,.355-.671l.181-.349.221-.322.194-.288a.672.672,0,0,1,.114-.148c.08-.08.154-.208.235-.241l.161.134.208.148.054.04.114.06.241.141a4.836,4.836,0,0,0,.5.241,7.262,7.262,0,0,0,6.337-.275,6.351,6.351,0,0,0,1.71-1.395,6.7,6.7,0,0,0,1.106-1.891,7.289,7.289,0,0,0,.288-4.278,6.9,6.9,0,0,0-.215-.724l-.134-.362-.148-.308a2.682,2.682,0,0,0-.362-.55c.087-.054.262-.067.382-.121l.2-.067.308-.121a11.255,11.255,0,0,0,1.663-.878,8.543,8.543,0,0,0,2.682-2.682,5.908,5.908,0,0,0,.744-3.816,9.761,9.761,0,0,0-.221-.952c-.094-.3-.208-.583-.315-.878a8.993,8.993,0,0,0-.9-1.676,5.881,5.881,0,0,0-3.071-2.347,7.537,7.537,0,0,0-3.8-.134,19.447,19.447,0,0,0-6.619,2.91l-.671.443a.623.623,0,0,1-.275.134.349.349,0,0,1-.255-.141,1.34,1.34,0,0,1-.174-.255,5.916,5.916,0,0,1-.248-.543c-.329-.778-.59-1.636-.865-2.495s-.543-1.73-.892-2.609a9.615,9.615,0,0,0-.671-1.341,4.023,4.023,0,0,0-.516-.671,2.159,2.159,0,0,0-.885-.523,86.892,86.892,0,0,1-13.069-4.365,58.746,58.746,0,0,1-6.136-3.058,33.005,33.005,0,0,1-5.526-3.916c-1.5-1.341-1.911-2.012-2.065-1.851s0,.335.188.785a8.443,8.443,0,0,0,1.153,1.717,25.288,25.288,0,0,0,5.552,4.774,47.611,47.611,0,0,0,9.328,4.694,91.648,91.648,0,0,0,10.059,3.118l.034.034a1.791,1.791,0,0,1,.235.309,6.872,6.872,0,0,1,.5,1.019c.308.764.583,1.6.858,2.461s.543,1.723.932,2.649a7.779,7.779,0,0,0,.349.738c.1.188.241.369.355.557a2.943,2.943,0,0,0,.449.463,1.79,1.79,0,0,0,1.12.456,1.945,1.945,0,0,0,.6-.08,3.751,3.751,0,0,0,.577-.275l.577-.4.369-.241.731-.463q.744-.449,1.509-.845a15.516,15.516,0,0,1,3.125-1.234,6.827,6.827,0,0,1,3.051-.181,4.071,4.071,0,0,1,1.287.51,4.627,4.627,0,0,1,1.046.946,6.323,6.323,0,0,1,.785,1.308,7.268,7.268,0,0,1,.516,1.469,3.816,3.816,0,0,1-.376,2.723,6.216,6.216,0,0,1-2.079,2.213,8.423,8.423,0,0,1-1.408.771l-.188.074-.154.067-.215.074-.892.241c-.6.168-1.187.3-1.764.449l.731.952c.241.329.5.671.738.986a4.022,4.022,0,0,1,.268.483l.1.215.161.443a5.639,5.639,0,0,1,.241,1.9,4.774,4.774,0,0,1-4.969,4.728,5.626,5.626,0,0,1-1.918-.329,5.363,5.363,0,0,1-.858-.416,1.188,1.188,0,0,1-.174-.127l-.194-.154-.4-.315-.818-.711c-.3.315-.6.671-.892,1.006l-.436.51c-.141.161-.262.369-.329.456a10.019,10.019,0,0,0-.825,1.408,13.873,13.873,0,0,0-1.06,3.011,15.155,15.155,0,0,0-.181,6.31,10.105,10.105,0,0,0,1.086,3.138c.141.241.275.5.436.731l.55.671a4.933,4.933,0,0,0,.63.61l.335.3.268.228a10.126,10.126,0,0,1,3.1,4.694c.671,1.857,1.1,3.869,1.636,5.894a22.96,22.96,0,0,0,2.347,5.995,13.9,13.9,0,0,0,4.58,4.694,21.231,21.231,0,0,0,5.981,2.508,49.816,49.816,0,0,0,12.593,1.241c1.153-.04,2.287,0,3.46-.121.59-.06,1.18-.1,1.77-.181l1.737-.342a25.481,25.481,0,0,0,6.531-2.622,29.1,29.1,0,0,0,5.646-4.251,36.673,36.673,0,0,0,4.647-5.19,37.934,37.934,0,0,0,6.136-12.432,36.882,36.882,0,0,0,1.066-13.807,37.861,37.861,0,0,0-1.911-8.335,36.944,36.944,0,0,0-1.663-3.923c-.342-.63-.617-1.274-1.019-1.9a17.544,17.544,0,0,0-1.234-1.784c-1.77-2.246-3.782-4.218-5.5-6.384a16.094,16.094,0,0,1-2.132-3.42,11.039,11.039,0,0,1-.5-1.911c-.127-.671-.241-1.341-.355-2.059a68,68,0,0,0-2.957-12.486,38.048,38.048,0,0,0-6.21-11.286,34.9,34.9,0,0,0-9.784-8.328A49.758,49.758,0,0,0,90.477,112.6,74.8,74.8,0,0,0,71.03,110a66.148,66.148,0,0,0-9.764.671c-.8.107-1.609.262-2.414.416s-1.6.329-2.4.523a23.335,23.335,0,0,0-4.734,1.569,17.837,17.837,0,0,0-6.893,5.539,17.509,17.509,0,0,0-2.977,6.344,18.1,18.1,0,0,0-.516,4.694,10.629,10.629,0,0,0,1.207,5.049,5.754,5.754,0,0,0,.9,1.267c.2.174.235.054.141-.308s-.3-.986-.469-1.9a19.259,19.259,0,0,1,.362-8.436,16,16,0,0,1,4.023-7.128,17.6,17.6,0,0,1,7.075-4.278,52.214,52.214,0,0,1,8.536-1.764,65.749,65.749,0,0,1,8.838-.469,72.461,72.461,0,0,1,17.71,2.374,54.8,54.8,0,0,1,8.456,2.937,36.312,36.312,0,0,1,7.577,4.593,32.939,32.939,0,0,1,8.416,10.059,45.458,45.458,0,0,1,4.453,12.52c.483,2.2.818,4.419,1.2,6.706.1.57.208,1.153.342,1.75.087.308.141.6.262.939a7.321,7.321,0,0,0,.382.912,17.528,17.528,0,0,0,1.925,3.1c1.455,1.9,3.071,3.534,4.526,5.23A23.591,23.591,0,0,1,129.2,165.5a27.642,27.642,0,0,1,1.536,2.87Z" transform="translate(128.451 -109.999)" fill="#221f1f"/>
          <path id="Path_80" data-name="Path 80" d="M126.83,201.829a2.521,2.521,0,0,0-.624,1.341c0,.174.194.4.355.3a3.828,3.828,0,0,0,.892-.671,5.935,5.935,0,0,0,1.106-1.851,7.1,7.1,0,0,0,.463-2.924,6.035,6.035,0,0,0-1.381-3.42,7.585,7.585,0,0,0-3.011-2.159,6.706,6.706,0,0,0-3.722-.443,6.036,6.036,0,0,0-1.589.51,11.643,11.643,0,0,0-1.2.671,7.217,7.217,0,0,0-1.113.878,5.364,5.364,0,0,0-1.381,2.588c-.08.3-.1.624-.194.919a6.409,6.409,0,0,0-.074,1.086,5.89,5.89,0,0,0,.08.925c.047.329.134.671.208,1.013a8.25,8.25,0,0,0,.342.992,6.823,6.823,0,0,0,.436.858,8.079,8.079,0,0,0,.671.979,6.236,6.236,0,0,0,4.432,2.012l.429.034a1.255,1.255,0,0,0,.355-.094,7.044,7.044,0,0,1,1.341-.443,9.845,9.845,0,0,0,1.8-.724,2.9,2.9,0,0,0,.778-.63c.208-.228-.06-.268-.141-.235-.255.121-.134-.094-.168-.168a.154.154,0,0,0-.054-.074,4.156,4.156,0,0,1-.483.208,8.72,8.72,0,0,1-1.167.342c-.892.208-1.857.335-2.012.375h-.235s-.376-.054-.791-.1a4.6,4.6,0,0,1-3.085-2.246l-.416-.671a6.753,6.753,0,0,1-.463-1.925,6.611,6.611,0,0,1,0-1.341c.054-.355.1-.6.107-.637a5.076,5.076,0,0,1,.838-1.858,1.57,1.57,0,0,1,.282-.275,6.478,6.478,0,0,1,3.628-1.375,4.929,4.929,0,0,1,1.938.409c.114.047.235.08.349.121a4.1,4.1,0,0,1,.422.2,5.431,5.431,0,0,1,1.8,1.663,4.433,4.433,0,0,1,.832,2.159c0,.087.04.262.054.483a3.912,3.912,0,0,1,0,.751,6.317,6.317,0,0,1-.087.764c-.054.228-.114.409-.148.51A4.773,4.773,0,0,1,126.83,201.829Z" transform="translate(85.634 -136.984)" fill="#221f1f"/>
          <path id="Path_81" data-name="Path 81" d="M66.825,315.735c-4.54,1.79-7.913,4.607-9.623,7.812-.536,1.013-.08,1.046.711,0a19.981,19.981,0,0,1,6.116-4.875,31.95,31.95,0,0,1,4.607-2.146c1.341-.49,2.857-.986,4.56-1.442s3.567-.838,5.505-1.167a90.606,90.606,0,0,1,11.762-1.147c3.735-.127,7.048-.04,9.267.067a126.027,126.027,0,0,1,12.868,1.341,127.591,127.591,0,0,1,12.687,2.562,108.309,108.309,0,0,1,12.526,3.977c2.012.791,4.023,1.643,6.035,2.575l1.482.671a13.751,13.751,0,0,0,1.7.671,12.069,12.069,0,0,0,3.581.624,12.808,12.808,0,0,0,6.974-1.817,13.186,13.186,0,0,0,2.816-2.313l.6-.671.536-.744c.349-.5.617-.966.919-1.462a116,116,0,0,0,5.881-12.07c.4-.892.8-1.777,1.234-2.629s.892-1.764,1.308-2.682c.865-1.784,1.683-3.581,2.495-5.365a153.513,153.513,0,0,1,9.026-17.931,47.907,47.907,0,0,1,6.035-7.846,26.213,26.213,0,0,1,7.866-5.653,19.689,19.689,0,0,1,6.156-1.717c.208-.04.55-.054.992-.087a15.446,15.446,0,0,1,1.643-.087,28.777,28.777,0,0,1,4.882.362c.469.08.992.141,1.455.241a9.284,9.284,0,0,1,1.4.423,9.7,9.7,0,0,1,2.682,1.562,10.218,10.218,0,0,1,2.186,2.474,13.34,13.34,0,0,1,.8,1.549c.262.563.523,1.127.771,1.71,2.012,4.627,3.8,9.442,5.271,13.318l3.024,8.013c4.191,10.991,8.3,22.055,12.694,33.006.624,1.556,1.261,3.239,1.9,4.634,1.482,3.246,2.837,6.619,4.3,9.965a148.533,148.533,0,0,0,6.659,13.666,33.722,33.722,0,0,0,4.292,6.136c1.636,1.609.932.516.422-.054a4.288,4.288,0,0,1-.617-.818c-.067-.128,0-.128.054-.06a2.479,2.479,0,0,0,.671.523c.161.027.161.06.114-.034s-.315-.382-.791-1.033l-.4-.536-.429-.671c-.3-.476-.671-1-1-1.609a100.731,100.731,0,0,1-4.694-9.207c-3.165-6.974-6.035-14.491-6.632-15.946-.074-.181-1.093-2.783-2.609-6.645s-3.447-9.039-5.4-14.337l-8.764-23.946c-.865-2.36-1.8-4.728-2.729-7.074-.114-.275-.939-2.468-2.213-5.606-.671-1.583-1.341-3.353-2.334-5.3a12.258,12.258,0,0,0-4.875-5.016,11.685,11.685,0,0,0-3.353-1.267c-.577-.114-1.113-.188-1.656-.275a14.913,14.913,0,0,0-1.623-.208l-1.583-.127h-2.273a3.655,3.655,0,0,0-.718.047l-1.341.107c-.872.127-1.69.248-2.414.4s-1.341.329-1.891.49c-1.053.362-1.73.583-1.891.671a27.548,27.548,0,0,0-4.855,2.622,30.511,30.511,0,0,0-4.2,3.5,44.118,44.118,0,0,0-6.558,8.516l-1.093,1.824-1.073,1.851c-2.991,5.365-5.438,10.883-7.973,16.342-.637,1.341-1.281,2.723-1.931,4.077l-1.006,2.012c-.349.671-.671,1.388-.986,2.079-1.254,2.776-2.414,5.539-3.728,8.228-.671,1.341-1.341,2.682-2.132,4.023q-.282.49-.583.966a8.075,8.075,0,0,1-.6.919l-.308.436-.342.4a6.564,6.564,0,0,1-.731.764,10.515,10.515,0,0,1-3.561,2.22,10.949,10.949,0,0,1-4.151.671,10.35,10.35,0,0,1-2.991-.53c-1.167-.389-2.481-1.066-3.762-1.643a109.575,109.575,0,0,0-20.942-6.94q-5.365-1.227-10.843-2.012c-3.634-.523-7.3-.919-10.984-1.127a106.934,106.934,0,0,0-11.541.067,95.625,95.625,0,0,0-11.862,1.422,59.191,59.191,0,0,0-10.883,3.346Z" transform="translate(-4.61 -159.41)" fill="#221f1f"/>
          <path id="Path_82" data-name="Path 82" d="M348.5,348.281c.268-.034.422-.228.516-.523.034-.094-.067-.315-.148-.322a3.661,3.661,0,0,0-.469,0c-.087,0-1.462.409-1.938.536a13.093,13.093,0,0,0-1.341.469c-.9.355-1.79.724-2.682,1.127a5.82,5.82,0,0,0-.57.308c-.637.389-1.294.731-1.945,1.093a1.542,1.542,0,0,1-.335.161,6.408,6.408,0,0,0-1.059.61,9.72,9.72,0,0,0-1.026.771c-.241.235-.476.463-.7.7a9.836,9.836,0,0,0-.671.738.671.671,0,0,0-.168.228,1.414,1.414,0,0,1-.335.49,8.044,8.044,0,0,0-.516.671,2.09,2.09,0,0,0-.181.369c-.054.121.1.168.141.147s.1.067.141.114a.108.108,0,0,0,.047.047,16.655,16.655,0,0,0,1.4-1.08,10.2,10.2,0,0,1,.865-.771,12.819,12.819,0,0,1,1.06-.791,2.754,2.754,0,0,0,.3-.255c.034-.06,1.576-.939,1.65-.959a6.826,6.826,0,0,0,.939-.583.671.671,0,0,1,.188-.114c.577-.275,1.14-.583,1.717-.865.3-.141.6-.262.905-.389l.154-.087a1.159,1.159,0,0,1,.2-.107c.724-.288,1.435-.617,2.179-.858.174-.054.945-.463,1.147-.523S348.4,348.288,348.5,348.281Z" transform="translate(-281.594 -188.215)" fill="#221f1f"/>
          <path id="Path_83" data-name="Path 83" d="M345.125,352.511c.235,0,.369-.2.436-.49,0-.087-.074-.308-.141-.315a2.981,2.981,0,0,0-.416,0c-.081,0-1.274.322-1.683.422a10.248,10.248,0,0,0-1.167.369c-.784.288-1.569.57-2.347.9a3.535,3.535,0,0,0-.5.255c-.557.335-1.133.617-1.71.919a.947.947,0,0,1-.3.134,5.208,5.208,0,0,0-.932.516,9.629,9.629,0,0,0-.9.671l-.6.624-.57.671a.5.5,0,0,0-.134.2,1.093,1.093,0,0,1-.282.449,4.62,4.62,0,0,0-.409.61,1.566,1.566,0,0,0-.114.355.131.131,0,0,0,.161.121c.034-.02.107.054.147.1s.04.034.054.034a4.838,4.838,0,0,0,.543-.443c.268-.235.563-.443.61-.5a9.919,9.919,0,0,1,.738-.671,10.448,10.448,0,0,1,.912-.671,1.594,1.594,0,0,0,.255-.221,16.288,16.288,0,0,1,1.428-.8,5.679,5.679,0,0,0,.811-.49.562.562,0,0,1,.161-.094c.5-.221.992-.476,1.5-.7.255-.121.53-.208.791-.315l.134-.074c.06,0,.114-.067.174-.087.637-.228,1.254-.5,1.911-.671.154-.04.825-.4,1-.449S345.045,352.518,345.125,352.511Z" transform="translate(-277.076 -189.622)" fill="#221f1f"/>
          <path id="Path_84" data-name="Path 84" d="M282.4,354.187a16.764,16.764,0,0,0,2.6-5.418c.141-.543-.255-.671-.61-.094-.671,1.073-1.442,2.132-2.179,3.219-.228.322-2.012,3.179-4.312,6.2a84.376,84.376,0,0,1-6.565,7.738,68.936,68.936,0,0,1-9.227,8.141,23.47,23.47,0,0,1-11.319,4.3,22.953,22.953,0,0,1-11.836-2.233c-.416-.168-.811-.409-1.22-.61s-.8-.409-1.227-.671l-2.515-1.341q-8.65-4.546-17.388-8.925c-.966-.483-1.971-.966-2.883-1.482-.751-.422-5.1-2.582-9.536-4.694s-8.972-4.2-10.018-4.654l-4.023-1.764-1.147.429-.751.262c-.5.168-1.013.329-1.522.476-1.026.3-2.065.557-3.1.791a36.68,36.68,0,0,1-6.323.818c-.791.04-1.623,0-2.347,0a9.686,9.686,0,0,1-1.247-.04,7.058,7.058,0,0,1-1.247-.161,17.576,17.576,0,0,0-2.682-.382,11.863,11.863,0,0,0-7.081,2.609,13.23,13.23,0,0,0-2.562,2.635c-.671.892-.067.583.188.309.778-.771.268,0,.295.114s0,.107.067.087l.443-.436a12.521,12.521,0,0,1,1.18-1.053,13.618,13.618,0,0,1,4.158-2.334,9.015,9.015,0,0,1,2.5-.5,7.886,7.886,0,0,1,2.246.221c.758.161,1.455.349,2.012.422l1.147.154a28.83,28.83,0,0,0,6.035-.054,44.159,44.159,0,0,0,5.21-.865c.872-.208,1.737-.422,2.555-.671.409-.114.8-.235,1.194-.362l.718-.235,6.035,2.857c1.093.53,2.213,1.013,3.353,1.509.262.114,4.07,1.938,7.872,3.809l7.832,3.9c3.031,1.489,6.035,3.071,9.08,4.486.6.275,1.207.61,1.8.925q3.856,2.012,7.665,4.111l1.9,1.046c.671.349,1.341.671,2.012,1.039a17.617,17.617,0,0,0,2.079.892,18.328,18.328,0,0,0,2.146.724,24.369,24.369,0,0,0,9.2.952c.557-.074,1.113-.127,1.656-.248.671-.161,1.388-.275,2.059-.483a27.493,27.493,0,0,0,9.71-4.855,74.646,74.646,0,0,0,7.933-7.182c.577-.583,2.153-2.354,3.641-4.238l1.1-1.395.979-1.341c.624-.818,1.1-1.509,1.381-1.884C280.175,357.969,281.858,354.951,282.4,354.187Z" transform="translate(-100.173 -188.501)" fill="#221f1f"/>
          <path id="Path_85" data-name="Path 85" d="M181.8,347.53c-7.6-5.251-14.424-11.4-19-19.54-.61-1.08,2.273-.7,2.682.04,4.5,7.98,11.152,14.008,18.615,19.158,1.287.892-1.629.8-2.3.342Z" transform="translate(-1.515 -181.59)" fill="#221f1f"/>
          <path id="Path_86" data-name="Path 86" d="M189.556,200a26.048,26.048,0,0,0-.744-4.479c-.114-.416-.429-.349-.456.161l-.08,1.516v1.529a29.2,29.2,0,0,0,1.013,5.867,30.177,30.177,0,0,0,3.165,7.376,33.871,33.871,0,0,0,2.85,4.023,10.339,10.339,0,0,1,.671.9l.3.449.262.476a8.457,8.457,0,0,1,.731,2.012,9.113,9.113,0,0,1-.141,4.412,15.531,15.531,0,0,1-.758,2.226l-.966,2.253-1.925,4.52-1.857,4.553c-.536,1.341-1.1,2.682-1.583,4.064-1.717,4.694-3.46,9.354-5.11,14.082-.275.785-.536,1.6-.845,2.34-.121.308-.5,1.341-.966,2.749s-1.026,3.192-1.6,4.989l-1.489,5.116c-.389,1.489-.671,2.629-.8,3.058-.536,2.112-.972,4.258-1.448,6.384s-.852,4.292-1.153,6.458c-.094.617-.235,1.274-.262,1.844,0,1.341-.282,2.682-.376,4.023a40.6,40.6,0,0,0-.194,5.639,10,10,0,0,0,.1,1.388c.08.456.154.912.235,1.341.141.818.288.335.282.047,0-.838.141-.174.228-.107s.067.047.087,0a4.178,4.178,0,0,0,0-.483c0-.3-.067-.717-.047-1.227s0-1.113,0-1.75.094-1.341.141-2.012.148-1.4.221-2.079.141-1.341.248-1.891c.181-1.153.315-2.012.362-2.307,0-.074.161-1.08.436-2.582s.671-3.48,1.12-5.512.972-4.077,1.435-5.727.8-2.91.919-3.353l.731-2.682c.06-.208.972-3.306,2.012-6.37.248-.771.5-1.542.738-2.267s.49-1.395.671-2.012l.738-2.119c.8-2.454,1.777-4.862,2.528-7.323.154-.483.335-.979.523-1.462l2.394-6.223,2.461-6.189c.825-2.119,1.77-4.184,2.682-6.283.154-.382.308-.758.456-1.14.194-.483.382-.966.583-1.435a11.179,11.179,0,0,0,.563-8.416,9.81,9.81,0,0,0-.946-1.965,16.958,16.958,0,0,0-1.274-1.683,31.582,31.582,0,0,1-2.307-3.212,33.348,33.348,0,0,1-2.012-3.588,25.314,25.314,0,0,1-1.515-3.983c-.114-.375-.349-1.18-.583-1.978a15.136,15.136,0,0,1-.443-1.958Z" transform="translate(-25.044 -138.081)" fill="#221f1f"/>
          <path id="Path_87" data-name="Path 87" d="M184.331,199.717a1.5,1.5,0,0,0,.771.932c.121.06.322-.06.3-.188-.054-.262-.107-.516-.174-.764-.06-.148-.952-2.461-1.173-3.266s-.483-1.536-.671-2.313a23.107,23.107,0,0,1-.838-4.795,5.768,5.768,0,0,0-.067-1.073,4.2,4.2,0,0,1,0-.919v-.215l-.53-.04h0l-.5.114h0l.114.463c.154.63.308,1.247.469,1.878a5.316,5.316,0,0,1,.141.63,16.041,16.041,0,0,0,.577,2.012c.3.932.671,1.857.764,2.065.483,1.019.966,2.045,1.529,3.031a1.5,1.5,0,0,0,.255.409,4.432,4.432,0,0,1,.57.872c.262.409.5.832.8,1.214a4.519,4.519,0,0,0,.483.53c.148.161.208,0,.181-.094-.08-.208.074-.1.134-.114a.1.1,0,0,0,.06,0,3.79,3.79,0,0,0-.188-.409c-.114-.235-.282-.543-.429-.872-.3-.671-.61-1.341-.671-1.475,0,0-.127-.241-.288-.6s-.376-.818-.577-1.3c-.416-.966-.778-2.012-.845-2.22s-.168-.436-.262-.671c0-.047-.275-.825-.5-1.616s-.416-1.589-.436-1.65c-.181-.624-.3-1.274-.536-1.891a2.469,2.469,0,0,1-.1-.382V186.9a.744.744,0,0,0-.671-.557.731.731,0,0,0-.724.443.669.669,0,0,0-.054.208v1.435a17.2,17.2,0,0,0,.134,1.764c.06.583.141,1.194.255,1.777a2.39,2.39,0,0,0,.074.315c.04.134.074.262.1.4a36.477,36.477,0,0,0,1.167,4.057c.1.308.758,1.7.905,2.012C183.882,198.986,184.331,199.523,184.331,199.717Z" transform="translate(-17.037 -135.147)" fill="#221f1f"/>
          <path id="Path_88" data-name="Path 88" d="M183.043,199.647c.067.241.288.349.59.369.094,0,.288-.141.282-.208a4.113,4.113,0,0,0-.067-.429c0-.087-.6-1.261-.771-1.67s-.369-.771-.57-1.153c-.4-.771-.778-1.556-1.127-2.347-.074-.181-.174-.349-.262-.516a9.656,9.656,0,0,1-.785-1.817,1.079,1.079,0,0,1-.08-.322,8.756,8.756,0,0,0-.282-1.033c-.134-.469-.255-.952-.3-1.06-.114-.268-.174-.536-.262-.811a7.468,7.468,0,0,1-.215-.825.55.55,0,0,0-.06-.235,1.04,1.04,0,0,1-.148-.516,5.281,5.281,0,0,0-.067-.724,1.912,1.912,0,0,0-.121-.362c-.04-.114-.194-.06-.208,0s-.114,0-.174,0a.127.127,0,0,0-.067,0,5.3,5.3,0,0,0-.161.778,4.5,4.5,0,0,0-.067.905,20.354,20.354,0,0,0,.342,2.454,2.4,2.4,0,0,0,.127.369c0,.067.443,1.743.483,1.8a4.6,4.6,0,0,0,.436.986.859.859,0,0,1,.087.194,16.331,16.331,0,0,0,.764,1.67c.134.288.268.563.4.845,0,.054.067.094.094.141a1.045,1.045,0,0,1,.107.188c.322.671.711,1.294,1.026,1.958.08.154.57.8.671.979S183.017,199.553,183.043,199.647Z" transform="translate(-11.337 -135.009)" fill="#221f1f"/>
          <path id="Path_89" data-name="Path 89" d="M159.622,258.2a1.589,1.589,0,0,0,.114,1.4c.08.148.389.194.463.06.148-.275.288-.543.409-.825.034-.087.248-.838.463-1.69l.543-2.287c.2-.939.382-1.884.5-2.837.268-1.938.5-3.876.671-5.821.04-.429.06-.865.06-1.3,0-1.482.094-2.964.181-4.446a3.824,3.824,0,0,1,.074-.738,47.559,47.559,0,0,0,.141-4.942c-.087-1.308-.181-2.588-.268-3.883a2.078,2.078,0,0,0-.06-.543,3.963,3.963,0,0,1-.161-1.187c-.034-.557-.074-1.106-.148-1.656a5.627,5.627,0,0,0-.194-.8c-.067-.241-.255-.1-.275,0-.047.255-.154.054-.235.04s-.067,0-.087,0a3.546,3.546,0,0,0-.06.523c0,.308-.054.718-.08,1.133-.06.845-.121,1.723-.114,1.891v2.448c0,1.227-.06,2.515-.08,2.769s0,.55,0,.825c0,.134-.2,3.809-.215,3.956a20.013,20.013,0,0,0-.04,2.287,3.552,3.552,0,0,1,0,.463c-.114,1.3-.161,2.615-.262,3.923-.04.671-.141,1.341-.215,2.012v.818c-.2,1.576-.362,3.152-.671,4.694-.06.362-.241,2.1-.335,2.508C159.656,257.2,159.7,258,159.622,258.2Z" transform="translate(21.801 -148.401)" fill="#221f1f"/>
          <path id="Line_3" data-name="Line 3" d="M-.521.538-.635.27.635-.27.749,0Z" transform="translate(10.87 190.745)"/>
          <path id="Line_4" data-name="Line 4" d="M-.521.538-.635.27.635-.27.749,0Z" transform="translate(0 190.745)"/>
          <path id="Path_93" data-name="Path 93" d="M143.634,325.479c.322,4.1,3.8,8.147,8.825,6.853,5.512-1.415,5.7-7.987,2.313-11.735a6.384,6.384,0,0,0-11.138,4.882Z" transform="translate(38.708 -178.664)" fill="#d05334"/>
          <path id="Path_94" data-name="Path 94" d="M84.725,357.185c-1.684-4.162-3.44-8.664-5.37-13.761l1.291-.489c1.926,5.088,3.679,9.58,5.359,13.732Z" transform="translate(153.01 -186.815)"/>
          <path id="Path_95" data-name="Path 95" d="M130.9,373.33a9.756,9.756,0,0,0,.174,1.187c1.489,7.121,13.311,7.008,14.31-.275C146.594,365.464,130.192,364.029,130.9,373.33Z" transform="translate(58.815 -194.655)"/>
          <path id="Path_96" data-name="Path 96" d="M80.476,352.876a7.634,7.634,0,0,0,8.047,6.987,6.813,6.813,0,0,0,5.686-2.937c-1.777-4.426-3.266-9.066-5.043-13.747C88.973,343.153,79.9,345.983,80.476,352.876Z" transform="translate(143.863 -186.815)" fill="#d05334"/>
          <path id="Path_97" data-name="Path 97" d="M64.02,388.128c-.047,4.526,5.774,7.376,9.2,6.089-1.945-3.353-3.762-7.685-5.981-12.687A8.637,8.637,0,0,0,64.02,388.128Z" transform="translate(175.87 -199.449)" fill="#221f1f"/>
          <path id="Path_98" data-name="Path 98" d="M157,232.391c-.067-.1-.194,0-.315.221a1.047,1.047,0,0,0-.08.335.591.591,0,0,0,.06.2,1.666,1.666,0,0,1,.141.148.161.161,0,0,1,0,.107c0,.034-.047.034-.047.034h0l-.067.047h0s-.054.114-.067.087,0,0,0-.047a.235.235,0,0,1,0-.054h0s-.121,0-.107-.168v-.181l.107-.127a.543.543,0,0,0,.054-.134.261.261,0,0,0-.04-.2c-.047-.04-.034-.114-.04-.174a.241.241,0,0,1,0-.067.731.731,0,0,0-.389,0,1.032,1.032,0,0,0-.443.188,1.7,1.7,0,0,0-.342.53,2.268,2.268,0,0,0-.148.8.564.564,0,0,0,.054.215,1.857,1.857,0,0,0,.114.443.925.925,0,0,0,.382.409.671.671,0,0,0,.6,0,.274.274,0,0,1,.121-.033,1.624,1.624,0,0,0,.53-.188,1.487,1.487,0,0,0,.262-.154c.067-.04.087-.067.174-.127a3.353,3.353,0,0,0,.429-.382.557.557,0,0,0,.047-.087.341.341,0,0,1,.047-.114.865.865,0,0,0,.107-.59,1.9,1.9,0,0,0-.262-.57,1.925,1.925,0,0,0-.59-.376C157.225,232.344,157,232.424,157,232.391Z" transform="translate(29.737 -150.305)" fill="#221f1f"/>
          <path id="Path_99" data-name="Path 99" d="M164.925,233.518c-.148-.114-.342,0-.4.268a.985.985,0,0,0,.054.342.5.5,0,0,1,.08.174,1.1,1.1,0,0,1,.087.127.67.67,0,0,1,.074.248,2.491,2.491,0,0,1,0,.282c0,.141-.074.248-.282.376a.671.671,0,0,0-.134.1c-.127.127-.262.114-.308.054s0,0,0-.054a.348.348,0,0,0-.047-.181,1.224,1.224,0,0,1-.047-.268.543.543,0,0,1,0-.423s.04,0,0-.067.047-.127.094-.161l.241-.141a.916.916,0,0,0,.127-.141c.04-.047,0-.194,0-.208v-.174a.229.229,0,0,0,0-.067,1.006,1.006,0,0,0-.436-.067,1.341,1.341,0,0,0-.55.127l-.2.154a1.737,1.737,0,0,0-.342.422,2.072,2.072,0,0,0-.241.845.67.67,0,0,0,.047.255,2.32,2.32,0,0,0,.148.617,1.529,1.529,0,0,0,.443.583,1.039,1.039,0,0,0,.831.241h.161a1.448,1.448,0,0,0,.624-.141,2.22,2.22,0,0,0,.489-.308,2.354,2.354,0,0,0,.436-.456.409.409,0,0,0,.047-.114,1.346,1.346,0,0,1,.054-.147,1.824,1.824,0,0,0-.06-1.469c0-.127-.443-.483-.57-.557S164.979,233.559,164.925,233.518Z" transform="translate(16.826 -150.675)" fill="#221f1f"/>
          <path id="Path_100" data-name="Path 100" d="M169.848,235.874c-.04.168.148.262.4.2a.926.926,0,0,0,.3-.181.669.669,0,0,1,.127-.141.469.469,0,0,1,.235-.181,1.22,1.22,0,0,0,.208-.107.53.53,0,0,1,.429,0h0c.067-.034.1,0,.047.121a.054.054,0,0,1-.047.054c-.047.007-.094.087-.161.168s-.134.121-.141.148a.268.268,0,0,1-.194.181h-.208a1.186,1.186,0,0,1-.194-.127,1.009,1.009,0,0,0-.174,0,.3.3,0,0,0-.181.107c0,.067-.087.074-.141.1l-.06.034a1.3,1.3,0,0,0,.094.389,1.12,1.12,0,0,0,.315.416l.215.107a1.294,1.294,0,0,0,.523.1,1.589,1.589,0,0,0,.811-.235.369.369,0,0,0,.168-.168,2.57,2.57,0,0,0,.376-.389,1.738,1.738,0,0,0,.268-.5.959.959,0,0,0,0-.744,1.346,1.346,0,0,1-.047-.154,1.671,1.671,0,0,0-.141-.315,1.744,1.744,0,0,0-.241-.255,1.5,1.5,0,0,0-.57-.268,2.232,2.232,0,0,0-.557-.08.283.283,0,0,0-.1,0l-.127.034a1.945,1.945,0,0,0-1.113.624,1.57,1.57,0,0,0-.235.711C169.694,235.586,169.862,235.821,169.848,235.874Z" transform="translate(5.285 -150.899)" fill="#221f1f"/>
          <path id="Path_101" data-name="Path 101" d="M179.683,232.357c-.087-.067-.3.121-.221.382,0,.081.2.255.208.275l.04.074h0v.087h0a.582.582,0,0,1,.248.06.449.449,0,0,1,.221.121c.06.06.067.094.1.121a.4.4,0,0,1,.04.342h0c0,.067-.114.148-.228.127s-.047,0-.067-.034-.1-.054-.154-.087-.087-.067-.107-.067a.427.427,0,0,1-.208-.235v-.06c0-.027-.054-.114-.04-.161a.549.549,0,0,1,.054-.208.751.751,0,0,0,0-.168c0-.054-.107-.154-.134-.154s-.08-.08-.121-.127l-.04-.054a.945.945,0,0,0-.382.208,1.126,1.126,0,0,0-.308.409,1.425,1.425,0,0,0-.054.208,1.858,1.858,0,0,0,0,.483,1.6,1.6,0,0,0,.335.791.584.584,0,0,0,.208.154,1.711,1.711,0,0,0,.516.3,1.905,1.905,0,0,0,.577.121,1.006,1.006,0,0,0,.671-.208.542.542,0,0,1,.121-.067,1.5,1.5,0,0,0,.4-.248,1.388,1.388,0,0,0,.308-.751,2.312,2.312,0,0,0,0-.57.629.629,0,0,0-.04-.1l-.054-.114a1.6,1.6,0,0,0-.945-.992,2.012,2.012,0,0,0-.671,0C179.884,232.189,179.73,232.384,179.683,232.357Z" transform="translate(-9.371 -150.251)" fill="#221f1f"/>
          <path id="Path_102" data-name="Path 102" d="M153.112,161.38c-.221,0-.268.275-.181.61a.785.785,0,0,0,.3.362h.362a6.389,6.389,0,0,1,1.2-.315,5.249,5.249,0,0,0,.852-.141,6.51,6.51,0,0,1,1.77,0,2.634,2.634,0,0,0,.4,0,3.285,3.285,0,0,1,1.381.262.476.476,0,0,1,.215.114,12.52,12.52,0,0,0,1.475.671,13.007,13.007,0,0,1,1.261.4c.06,0,.114.074.188.047a.536.536,0,0,1,.416.094,3.812,3.812,0,0,0,.543.215,1.026,1.026,0,0,0,.322,0c.1,0,.161-.2.148-.235s.06-.141.107-.208a.249.249,0,0,0,.047-.08,6.082,6.082,0,0,0-.892-.952l-.744-.469c-.382-.228-.778-.463-.865-.523a.885.885,0,0,0-.3-.087s-1.267-.671-1.341-.671a2.066,2.066,0,0,0-.858-.168.523.523,0,0,1-.174,0,5.653,5.653,0,0,0-1.5-.181h-.778a1.043,1.043,0,0,0-.141,0,.732.732,0,0,1-.174,0,10.813,10.813,0,0,0-1.831.329,8.308,8.308,0,0,0-.885.489C153.354,160.991,153.2,161.333,153.112,161.38Z" transform="translate(25.581 -126.509)" fill="#221f1f"/>
          <path id="Path_103" data-name="Path 103" d="M170.455,198.562c0-.107-.134-.047-.409.094a1.172,1.172,0,0,0-.329.282.94.94,0,0,0-.047.268,2.937,2.937,0,0,0,.49.711,1.342,1.342,0,0,0,.5.342,3.742,3.742,0,0,0,1.207.322.75.75,0,0,0,.275,0c.322-.094.624-.148.932-.208a.235.235,0,0,1,.154,0,.978.978,0,0,0,.5-.141,1.676,1.676,0,0,0,.449-.3,4.328,4.328,0,0,0,.456-.671.124.124,0,0,0,.034-.114.3.3,0,0,1,.06-.248,1.2,1.2,0,0,0,.107-.308.5.5,0,0,0-.054-.2c0-.06-.2-.121-.228-.114s-.127-.06-.194-.1l-.074-.034c-.04,0-.53.188-.557.2a2.152,2.152,0,0,1-.563.329c-.034,0-.047.047-.067.08a1.891,1.891,0,0,1-.463.094.232.232,0,0,0-.241.121c-.067.121-.034,0-.047,0-.154,0-.3.04-.463.04a.738.738,0,0,1-.241-.047h-.114a1.221,1.221,0,0,1-.53-.255s-.288-.06-.315-.121S170.455,198.609,170.455,198.562Z" transform="translate(3.418 -139.035)"/>
          <path id="Path_104" data-name="Path 104" d="M163.75,169.089c-.188,1.341.262,2.682,1,2.79s1.75-1.039,1.931-2.381-.523-2.562-1.261-2.682S163.931,167.741,163.75,169.089Z" transform="translate(15.534 -128.713)" fill="#221f1f"/>
        </g>
        <path id="Path_261" data-name="Path 261" d="M53.97,475.134c2.273,6,30.108,17.818,30.108,17.818,6.313-11.35,50.241-142.867,50.241-142.867,40.687-8.32,121.6-.323,138.9-27.5,3.9-6.145,5.037-24.959,5.023-45.317-22.364,5.233-50.508-2.076-73.517-14.03l-7.506,23.346c-34.766,9.218-80.153,18.982-87.2,22.911C92.664,319.177,56.692,467.6,53.97,475.134Z" transform="translate(-27.547 -79.207)" fill="#221f1f"/>
        <path id="Path_262" data-name="Path 262" d="M204.661,267.239v-.112l.14.07.589.281c1.052.533,2.147,1.024,3.227,1.515,2.147,1.01,4.349,1.922,6.538,2.806,4.419,1.74,8.881,3.4,13.455,4.714a123.764,123.764,0,0,0,13.9,3.339c2.329.477,4.714.758,7.015,1.094a60.044,60.044,0,0,0,7.169.547,74.961,74.961,0,0,0,14.535-.575l1.8-.239,1.263-.253.351-.084s.14-.07.14,0v5.444a192.677,192.677,0,0,1-1.922,27.7,47.426,47.426,0,0,1-1.108,4.826l-.351,1.15c-.14.379-.295.716-.435,1.08a5.96,5.96,0,0,1-.477,1,5.5,5.5,0,0,1-.589.954,24.06,24.06,0,0,1-6.889,6.622,45.489,45.489,0,0,1-4.209,2.511c-.744.365-1.515.7-2.259,1.052a22.352,22.352,0,0,1-2.315.968l-2.343.912-2.4.8c-1.585.561-3.241.954-4.868,1.4a219.775,219.775,0,0,1-35.734,5.514c-12.08,1.066-24.23,1.7-36.394,2.469a337.485,337.485,0,0,0-36.478,3.746l-2.582.491-.87.168c-.267.084-.687,0-.687.393l-.561,1.684-1.487,4.461-2.806,8.656-5.907,17.383c-6.875,20.484-13.932,41.023-21.045,61.241-4.6,12.978-9.246,25.983-14.142,38.849-.589,1.613-1.249,3.2-1.88,4.784l-.954,2.385c-.281.73-.786,1.726-.828,1.852s-.21.8-.6.477l-1.4-.645-4.672-2.133a131.574,131.574,0,0,1-17.93-9.695,27.42,27.42,0,0,1-3.4-2.694c-.589-.575-.786-.8-.968-.7s-.2.645.281,1.571a13.357,13.357,0,0,0,2.806,3.367,68.569,68.569,0,0,0,12.5,8.755c2.806,1.571,5.766,3.171,9.021,4.756.912.449,1.291.645,3.3,1.543l2.511,1.108.323.14h.07v-.239l.295-.617.6-1.249c.379-.814.772-1.628,1.164-2.455.21-.463.463-.94.645-1.4.365-.912.744-1.824,1.108-2.806,5.219-13.2,9.821-26.46,14.493-39.761s9.2-26.657,13.707-39.957l13.413-40.083,3.311-10.073L134.5,353l.126-.421c0-.112.1-.1.168-.126l2.034-.393c6.861-1.249,13.862-2.006,20.891-2.652,16.836-1.515,34.149-2.076,51.546-3.564,8.7-.73,17.439-1.7,26.11-3.255s17.313-3.746,25.338-7.829a32.8,32.8,0,0,0,11.6-9.428c.365-.533.772-1,1.108-1.6a15.335,15.335,0,0,0,.884-1.81,25.986,25.986,0,0,0,1.193-3.62,59.981,59.981,0,0,0,1.347-7.183A232.984,232.984,0,0,0,278.4,282.35v-6.37a8.844,8.844,0,0,0-1.4.224l-2.806.561-2.006.393-1.726.224c-1.165.126-2.315.337-3.479.379a80.8,80.8,0,0,1-14.03-.1,121.922,121.922,0,0,1-27.583-5.949c-1.838-.645-3.676-1.249-5.486-1.964l-2.722-1.038-2.694-1.122c-1.8-.73-3.55-1.571-5.331-2.371-.9-.393-1.726-.828-2.652-1.277l-4.013-1.992q-3.844,12.108-7.716,24.188l-10.144,2.652L173.767,291.6c-17.229,4.335-34.584,8.418-51.812,13.006-2.147.575-4.293,1.207-6.44,1.838a59.621,59.621,0,0,0-6.426,2.273,9.135,9.135,0,0,0-3.058,2.062A21.264,21.264,0,0,0,103.8,313.5a55.256,55.256,0,0,0-3.507,5.822A217.967,217.967,0,0,0,89.924,343.9c-4.7,12.922-8.867,25.871-12.893,38.835s-7.8,25.927-11.491,38.975L60.784,438.8c-5.836,21.564-7.352,28.509-7.674,33.377,0,1.108-.239,2.553-.224,3.227,0,1.179.982-.435,2.287-4.279s3.171-9.947,5.373-17.818c6.538-23.332,13.258-47.295,20.666-71.4,3.718-12.052,7.6-24.131,11.925-36.071,2.175-5.963,4.447-11.911,7.015-17.678,1.277-2.806,2.624-5.724,4.125-8.418a40.934,40.934,0,0,1,2.371-3.886,14.775,14.775,0,0,1,2.638-3.087,16.833,16.833,0,0,1,4.363-1.922c1.754-.561,3.522-1.136,5.345-1.642,3.606-1.052,7.282-2.006,10.943-2.96,7.338-1.894,14.731-3.7,22.125-5.528l22.223-5.472,11.1-2.806,12.388-3.241q3.522-10.915,7.015-21.887Z" transform="translate(-26.196 -79.727)" fill="#221f1f"/>
        <path id="Path_263" data-name="Path 263" d="M92.78,351.753l60.455,108.213,31.259-18.52L115.957,327.13l-15.124,1.515Z" transform="translate(11.748 -53.46)" fill="#221f1f"/>
        <path id="Path_264" data-name="Path 264" d="M95.374,352.341l52.907,94.618,7.6,13.609-3.928-1.052,13.819-8.193,9.33-5.528c1.684-1.01,6.285-2.694,7.38-4.377.814-1.277.365.673.267-.659,0-.8-1.4-2.245-1.754-2.918l-6.9-11.533-46.425-77.445-13.09-21.816,3.325,1.207-10.817,1.08c-3.8.379-3.634-.6-4.476,2.609-1.8,7.015-4.8,13.805-7.169,20.6-.337,1-4.363-.21-4.055-1.08l8.039-23.093c.084-.267.505-.295.716-.323l15.138-1.515a4.111,4.111,0,0,1,3.325,1.207l59.95,100.1,8.516,14.2a.281.281,0,0,1-.1.365l-31.245,18.534a3.858,3.858,0,0,1-3.928-1.052L98.952,365.262l-7.6-13.609C91.025,351.05,94.785,351.288,95.374,352.341Z" transform="translate(11.174 -53.711)" fill="#221f1f"/>
        <path id="Path_265" data-name="Path 265" d="M197.268,453.629c14.339,3.311,39.8-10.957,49.371-25.254-2.441-1.024-7.983-3.423-13.581-6.285C220.375,436.793,186.815,451.216,197.268,453.629Z" transform="translate(-194.205 -15.192)" fill="#221f1f"/>
        <path id="Path_266" data-name="Path 266" d="M231.78,426.055c1.515-1.543,1.024-1.3,1.4-1.249l4.027,1.866,4.209,1.824,1.852.786.491.168-.182.281-.393.547-.1.126v.07l-.126.154-.547.617c-.758.828-1.4,1.712-2.245,2.483a62.964,62.964,0,0,1-8.937,7.871,67.707,67.707,0,0,1-10.172,6.327,50.04,50.04,0,0,1-9.821,3.872,37.783,37.783,0,0,1-13.118,1.319c-1.4-.1-1.4.659-.309,1.585a8.643,8.643,0,0,0,6.328,1.684,45.977,45.977,0,0,0,14.142-3.8,66.125,66.125,0,0,0,12.543-7.183,75.493,75.493,0,0,0,13.314-11.631l.87-1.01c.154-.182.267-.309.449-.547l.589-.8,2.315-3.2-4.742-1.978-3.171-1.4-3.143-1.4-1.557-.73-1.8-.87-1.024-.505c-.168,0-.351-.224-.491-.2l-.379.421-1.4,1.557q-1,1.052-2.02,2.062c-1.4,1.319-2.806,2.6-4.349,3.816a167.269,167.269,0,0,1-14.367,10.3c-3.83,2.511-7.73,4.728-11.5,7.394a27.377,27.377,0,0,0-2.455,1.894,9.458,9.458,0,0,0-1.782,2.034,2.918,2.918,0,0,0-.337,2.638,2.006,2.006,0,0,0,1.4,1.136,1.711,1.711,0,0,0,.954-.126,2.5,2.5,0,0,0,.673-.379c.253-.266,0-.589-.435-1a1.82,1.82,0,0,1-.267-.309.225.225,0,0,1-.07-.126H196a.62.62,0,0,1,.168,0h.084l.267-.365a12.742,12.742,0,0,1,1.922-1.768c.758-.575,1.571-1.15,2.413-1.712,1.67-1.136,3.409-2.245,5.177-3.381,3.536-2.245,7.155-4.546,10.719-7.015a104.446,104.446,0,0,0,15.208-12.15Z" transform="translate(-193.67 -15.58)" fill="#221f1f"/>
        <path id="Path_267" data-name="Path 267" d="M105.364,464.665c22.322-11.841,22.448-40.687,21.452-52.935l-12.08,7.155C114.385,439.537,86.549,474.654,105.364,464.665Z" transform="translate(60.615 -19.367)" fill="#221f1f"/>
        <path id="Path_268" data-name="Path 268" d="M116.449,425.475c.168-.856.295-1.726.407-2.6l.126-1.319v-.94a.112.112,0,0,1,0-.14h.112l.533-.323,2.133-1.319,4.279-2.61,1.066-.659.267-.182.239-.168s.224-.21.21,0v1.319c0,1.193,0,2.4.084,3.592a80.841,80.841,0,0,1-.744,12.627,53.146,53.146,0,0,1-3.1,12.22l-.491,1.3-.6,1.263c-.407.828-.8,1.684-1.249,2.5a37.011,37.011,0,0,1-3.1,4.588,41.207,41.207,0,0,1-10.55,9.288c-1.193.856-.7,1.4.786,1.4a10.467,10.467,0,0,0,6.327-2.567,38.483,38.483,0,0,0,9.681-12.192,49.1,49.1,0,0,0,4.658-14.7,94.448,94.448,0,0,0,1.277-18.6l-.07-1.277v-.912l-.07-1.038-.154-2.048-.084-1.024v-.7l-.224.14-6.061,3.634-4.307,2.638-2.161,1.319a14.216,14.216,0,0,0-1.585,1.01v1.838a47.379,47.379,0,0,1-2.582,11.827,157.134,157.134,0,0,1-7.211,17.257l-3.143,6.524a42.384,42.384,0,0,0-2.806,6.832,7.576,7.576,0,0,0-.323,1.908,3.423,3.423,0,0,0,.673,2.371,3.55,3.55,0,0,0,3.62.758,6.8,6.8,0,0,0,1.768-.744,2.918,2.918,0,0,0,1.4-1.529,3.1,3.1,0,0,0,.253-.744c0-.351-.393-.463-1.108-.351s-1.81.449-2.932.645a.731.731,0,0,1-.351,0h-.21a.351.351,0,0,1-.168-.323,5.247,5.247,0,0,1,.112-.631,13.087,13.087,0,0,1,.393-1.4c.659-1.908,1.571-3.886,2.483-5.879,1.88-3.984,3.872-8.053,5.738-12.22a94.548,94.548,0,0,0,6.776-19.5Z" transform="translate(60.08 -19.966)" fill="#221f1f"/>
        <path id="Path_269" data-name="Path 269" d="M150.785,317.668c-4.56,19.025-20.568,32.143-38.246,36.127C53.8,367.04,27.63,338.362,28.36,338.362c24.2-2.09,48.614-4.1,71.356-13.272,13.216-5.331,18.239-14.788,20.512-24.061C120.256,300.987,158.01,287.35,150.785,317.668Z" transform="translate(134.939 -65.226)" fill="#d05334"/>
        <path id="Path_270" data-name="Path 270" d="M153.483,318.681c-7.871,29.828-37.025,39.382-64.874,40.462-18.9.73-39.1-2.89-54.815-14.03-1.557-1.094-6.636-4.083-6.762-6.426-.154-3,9.975-2.133,11.729-2.287,9.5-.87,19.011-1.88,28.411-3.493,16.106-2.806,38.568-6.4,47.7-21.7,1.7-2.806,2.483-9.176,4.995-11.154,1.179-.94,3.914-1.193,5.289-1.529,6.622-1.613,14.353-2.806,20.863-.112,8.614,3.493,9.19,12.178,7.436,20.273-.407,1.852-4.49.8-4.069-1.094,1.782-8.208.842-16.443-8.839-17.594a35.734,35.734,0,0,0-15.714,1.964c-.505.2-1.627.239-2.034.631-1.094,1.024.842-.7-.182.94-2.4,3.872-2.988,8.418-5.907,12.3-7.127,9.344-19.025,13.02-29.884,16.008a247.919,247.919,0,0,1-41.43,7.015c-3.171.309-8.516,1.712-11.673,1.066-1.052-.224-3.059-2.189-2.427-1.01a12.374,12.374,0,0,0,3.171,2.806c12.08,9.6,28.214,13.623,43.338,14.381,29.14,1.4,63.233-6.72,71.637-38.554C149.906,315.735,153.974,316.815,153.483,318.681Z" transform="translate(134.233 -65.677)" fill="#d05334"/>
        <path id="Path_271" data-name="Path 271" d="M22.46,305.6c2.2,13.3,17.944,38.961,28.34,28.649,7.688-7.632,16.555-135.4,4.363-157.486-11.364-20.54-26.25,3.858-26.25,3.858.954,15.938-.112,49.526-4.686,73.783A179.485,179.485,0,0,0,22.46,305.6Z" transform="translate(240.816 -114.974)" fill="#d05334"/>
        <path id="Path_272" data-name="Path 272" d="M25.163,306.178c1.249,6.44,15.433,38.933,24.608,27.414,2.988-3.732,3.311-10.747,4.041-15.251,3.564-21.578,4.868-43.647,5.612-65.492.786-21.564,1.712-44.208-2.315-65.52a41.459,41.459,0,0,0-2.5-9.077,16.836,16.836,0,0,0-4-6.117c-4.784-4.041-8.755-1.712-12.627,1.684-1.936,1.7-5.612,4.924-6.327,7.506-.561,2.034.182,5.3.224,7.436.084,4.209,0,8.544,0,12.8-.407,19.922-2.806,39.284-5.836,58.926a164.8,164.8,0,0,0-.912,45.653c.154,1.151-3.886.407-4.027-.659a166.577,166.577,0,0,1,.673-44.713c2.974-20.806,5.738-41.192,6.061-62.265.084-5.458-1.754-14.1.281-19.025,1.571-3.83,6.454-8.011,9.961-9.905,8.951-4.826,17.594,1.8,20.9,10.256s3.76,18.365,4.321,27.316c.856,13.763.786,27.583.407,41.36-.716,25.254-1.8,51.125-6.734,75.916-1.333,6.748-2.876,14.535-11.729,13.174-13.188-2.02-21.9-20.624-24.117-32.072C20.926,304.424,24.952,305.083,25.163,306.178Z" transform="translate(240.092 -115.215)" fill="#d05334"/>
        <path id="Line_6" data-name="Line 6" d="M1.471,25.269l-2.941-.592L3.552-.3,6.493.3Z" transform="translate(276.618 213.691)" fill="#d05334"/>
        <path id="Path_273" data-name="Path 273" d="M71.824,418.392c.126-6.2.239-12.417.379-18.618,0-2.259.224-4.518.267-6.776.154-7.983.224-15.952.393-23.935.084-3.536.281-7.085.491-10.593a117.855,117.855,0,0,0,.533-13.539c-.154-2.806-4.279.575-4.546,5.766-.463,9.2-.687,18.407-.519,27.709.1,5.612-.323,11.336-.491,17.018-.168,6.243-.309,12.487-.463,18.73-.1,3.858-.182,7.7-.309,11.547-.182,5.808-.309,11.659-.6,17.439-.239,4.49-.716,8.867-1.094,13.3-.084.982-.2,1.936-.267,2.918-.224,3.648,0,4.826,1.066,5.612a5.812,5.812,0,0,0,.73.547c.842.393,1.6-1.066,1.964-3.732,1.08-7.9,1.543-16.261,1.922-24.665.267-6.243.435-12.515.645-18.772Z" transform="translate(160.586 -46.695)" fill="#d05334"/>
        <path id="Path_274" data-name="Path 274" d="M76.662,421.85a9.4,9.4,0,0,1,4.6-2.68,5.4,5.4,0,0,1,4.518,1.473,17.173,17.173,0,0,1,2.806,3.339,57.522,57.522,0,0,1,6.65,15.25,65.73,65.73,0,0,1,1.712,7.352c.575,3.171.87,6.384,1.726,9.5.519,1.964,3.788-1.066,3.185-4.854a83.2,83.2,0,0,0-5.542-19.558c-1.656-3.746-3.143-7.815-5.865-11.336a12.781,12.781,0,0,0-6.089-4.588,8.418,8.418,0,0,0-4.1-.154,11.039,11.039,0,0,0-3.55,1.515,18.531,18.531,0,0,0-3.437,2.806,34.2,34.2,0,0,0-2.806,3.283,87.2,87.2,0,0,0-6.664,10.873c-1.557,2.806-3.157,5.612-4.63,8.5-.323.631-.673,1.249-.968,1.894-1.122,2.4-1.193,3.283-.491,4.209a4.114,4.114,0,0,0,.477.6c.617.519,1.627-.224,2.567-1.894,2.806-4.939,5.444-10.284,8.418-15.363a45.063,45.063,0,0,1,7.534-10.172Z" transform="translate(144.131 -17.884)" fill="#d05334"/>
        <path id="Path_275" data-name="Path 275" d="M52.919,450.559c-1.052,7.436,9.554,9.148,10.017,1.4.168-2.806-.687-5.893-3.536-6.285a5.724,5.724,0,0,0-6.482,4.882Z" transform="translate(189.312 -5.71)" fill="#d05334"/>
        <path id="Path_276" data-name="Path 276" d="M85.929,446.5c-1.052,7.436,9.554,9.148,10,1.4.168-2.806-.687-5.893-3.536-6.3A5.738,5.738,0,0,0,85.929,446.5Z" transform="translate(110.004 -7.349)" fill="#d05334"/>
        <path id="Path_277" data-name="Path 277" d="M281.065,280.559H105.228l-.968-18.449H281.472Z" transform="translate(-101.337 -79.887)" fill="#221f1f"/>
        <path id="Path_278" data-name="Path 278" d="M146.76,260.481l-43.96.252.976,15.844.241,4.1h19.835l72.871-.516c10.773-.063,21.613,0,32.305,0,13.74.076,27.534.315,41.261,0,8.568-.226-2.3-3.473-18.124-3.5-28.068,0-56.137.076-84.392.541-16.921.277-34.524.138-51.833.2h-8.648l-.842-13.428,27.961-.151,35.139-.126c17.737-.063,35.567-.164,53.17-.113,13.687,0,27.106.264,40.632.415l8.18.113h.481v4.417c0,1.649,0,3,.08,4.115a14.455,14.455,0,0,0,.815,4.644,9.27,9.27,0,0,0,.615,1.5c.708,1.019,1.417-3.247,1.818-10.911,0-.856.08-1.711.134-2.592,0-1.447.107-2.932.16-4.442l-18.913-.3-17.376-.164-35.326-.1-57.179.113Z" transform="translate(-102.038 -78.057)" fill="#221f1f"/>
        <path id="Path_279" data-name="Path 279" d="M221.825,405.606q-.21-15.868-.421-31.722V362.309c-.2-13.6-.463-27.19-.631-40.785-.07-6.033,0-12.108,0-18.085.1-7.688.393-15.433,0-23.107-.267-4.784-4.209,1.291-4.293,10.158,0,15.7.112,31.4.673,47.239.351,9.47.168,19.319.253,29.014q.14,15.966.337,31.96.112,9.821.2,19.642c0,9.919.182,19.894.126,29.743,0,7.674-.323,15.18-.505,22.757,0,1.656-.126,3.3-.14,4.981-.07,6.229.21,8.208,1.3,9.554a6.182,6.182,0,0,0,.758.884c.842.589,1.543-1.95,1.8-6.51.744-13.539.842-27.821.856-42.09,0-10.649-.1-21.339-.154-32.016Z" transform="translate(-199.443 -72.996)" fill="#221f1f"/>
        <path id="Path_280" data-name="Path 280" d="M246.344,301.041H203.539c-.21,0-.519.084-.477-.224l-.267-1.291-.533-2.581-8.769-42.328-17.032-82.4c-.449-1.88,7.38-3.662,7.716-1.754l17.074,82.566,8.306,40.14h36.786C247.873,293.1,247.873,301.069,246.344,301.041Z" transform="translate(-168.628 -116.924)" fill="#232020"/>
      </g>
    </g>
  </g>
</svg>
