<svg width="228" height="220" viewBox="0 0 228 220" fill="none" xmlns="http://www.w3.org/2000/svg">
<mask id="mask0_512_429" style="mask-type:luminance" maskUnits="userSpaceOnUse" x="0" y="0" width="228" height="220">
<path d="M228 0H0V220H228V0Z" fill="white"/>
</mask>
<g mask="url(#mask0_512_429)">
<path d="M227.923 144.537C227.613 143.613 215.286 146.847 199.394 151.544C198.618 151.775 197.843 152.007 196.99 152.237C196.215 152.468 195.439 152.699 194.587 152.93C178.695 157.781 166.6 161.862 166.911 162.787C167.143 163.634 179.547 160.477 195.439 155.779C196.215 155.548 196.99 155.317 197.843 155.087C198.618 154.855 199.394 154.624 200.246 154.394C216.138 149.542 228.155 145.461 227.923 144.537Z" fill="#1B1B1B"/>
<path d="M68.9194 191.585C68.6869 190.585 54.7324 193.742 36.8243 198.208C35.894 198.439 35.0412 198.67 34.1109 198.901C33.2581 199.132 32.3279 199.363 31.3975 199.595C13.4893 204.215 -0.23253 208.065 4.42069e-05 209.066C0.232618 209.99 14.1095 206.909 32.0952 202.443C33.0255 202.212 33.8784 201.982 34.8086 201.75C35.6614 201.519 36.5917 201.288 37.522 201.057C55.4302 196.437 69.152 192.509 68.9194 191.585Z" fill="#1B1B1B"/>
<path d="M168.306 177.803C168.306 177.803 181.098 173.567 187.222 178.187C193.347 182.807 165.128 191.355 145.747 192.28C166.833 185.887 168.538 185.349 168.538 185.349L168.306 177.803Z" fill="#1B1B1B"/>
<path d="M110.317 163.172C110.317 162.941 110.084 162.709 109.697 162.632C109.232 162.556 108.689 162.709 108.069 163.095C107.527 163.479 106.907 164.096 106.518 164.866C105.898 166.021 105.898 167.792 107.061 168.716C107.294 168.87 107.527 169.024 107.836 169.101C108.146 169.178 108.379 169.255 108.689 169.178C109.465 169.178 110.163 168.793 110.783 168.408C111.093 168.177 111.248 168.023 111.403 167.792C111.558 167.638 111.712 167.406 111.868 167.253C112.411 166.483 112.643 165.636 112.643 164.866C112.643 164.096 112.255 163.402 111.868 163.172C111.481 162.941 111.17 163.018 111.015 163.249C110.86 163.402 110.86 163.634 110.86 163.865C110.783 164.096 110.705 164.249 110.55 164.558C110.395 164.866 110.163 165.174 109.774 165.559C109.697 165.636 109.62 165.713 109.465 165.789C109.387 165.866 109.232 165.944 109.232 165.944C109.232 165.944 109.232 165.944 109.155 165.944C109.155 165.944 109.077 165.944 109 165.866C109.077 165.405 109.31 164.943 109.542 164.635C109.93 163.942 110.317 163.634 110.317 163.172Z" fill="#1B1B1B"/>
<path d="M129.156 158.551C129.156 158.32 128.924 158.089 128.535 158.011C128.071 157.934 127.528 158.089 126.907 158.474C126.365 158.859 125.745 159.475 125.358 160.245C124.737 161.4 124.737 163.171 125.9 164.095C126.132 164.249 126.365 164.403 126.675 164.48C126.986 164.557 127.217 164.634 127.528 164.557C128.303 164.557 129.001 164.172 129.621 163.787C129.931 163.556 130.086 163.402 130.242 163.171C130.396 163.017 130.552 162.786 130.706 162.632C131.249 161.862 131.482 161.015 131.482 160.245C131.482 159.475 131.094 158.781 130.706 158.551C130.319 158.32 130.009 158.397 129.854 158.628C129.699 158.781 129.699 159.013 129.699 159.244C129.621 159.475 129.544 159.629 129.388 159.937C129.234 160.245 129.001 160.553 128.614 160.938C128.535 161.015 128.458 161.092 128.303 161.169C128.226 161.246 128.071 161.323 128.071 161.323C128.071 161.323 128.071 161.323 127.993 161.323C127.993 161.323 127.916 161.323 127.838 161.246C127.916 160.784 128.148 160.321 128.381 160.014C128.768 159.321 129.156 159.013 129.156 158.551Z" fill="#1B1B1B"/>
<path d="M73.2607 103.185L146.909 83.1641L146.754 97.0245L88.6106 113.273L82.9513 106.958L73.2607 103.185Z" fill="#1B1B1B"/>
<path d="M91.2465 144.382C92.2543 144.305 92.3318 138.145 92.0217 130.214C92.0217 129.828 91.9442 129.444 91.9442 129.058C91.9442 128.674 91.9442 128.288 91.8667 127.904C91.4015 119.895 90.6262 113.811 89.6184 113.888C88.6882 113.966 88.5331 120.126 88.8432 128.058C88.8432 128.442 88.9207 128.828 88.9207 129.212C88.9207 129.598 88.9207 129.982 88.9982 130.368C89.4633 138.299 90.3162 144.382 91.2465 144.382Z" fill="#1B1B1B"/>
<path d="M89.6184 113.734C90.3937 113.041 87.9128 109.884 84.3467 106.034C84.1917 105.88 83.9591 105.649 83.804 105.496C83.6491 105.341 83.4164 105.11 83.2614 104.956C82.9513 104.648 82.7187 104.417 82.4862 104.109C82.021 104.032 81.5559 103.956 81.0907 103.878C80.7806 103.801 80.5481 103.801 80.2379 103.724C79.6952 103.647 79.1526 103.57 78.6099 103.493C77.6021 103.339 76.6718 103.262 75.8966 103.262C74.3461 103.185 73.4158 103.416 73.3383 103.878C73.2607 104.34 74.1135 104.802 75.5864 105.341C76.2842 105.573 77.2145 105.88 78.2223 106.111C78.6874 106.266 79.2301 106.343 79.7728 106.496C80.0829 106.573 80.3155 106.65 80.6256 106.65L81.0132 106.727L81.1682 106.881C81.3233 107.036 81.5559 107.266 81.7109 107.42C81.8659 107.574 82.0986 107.806 82.2535 107.96C85.8197 111.81 88.9207 114.351 89.6184 113.734Z" fill="#1B1B1B"/>
<path d="M152.879 95.8704L153.033 90.7109L162.414 92.944L152.879 95.8704Z" fill="#E2E2E2"/>
<path d="M82.0986 200.287C82.2536 200.057 81.2458 199.364 79.4627 198.131C78.5324 197.515 77.4471 196.822 76.1291 196.052C75.4314 195.667 74.7337 195.205 73.9585 194.743C73.5708 194.512 73.1832 194.281 72.7956 194.05L72.4855 193.896L72.3304 193.819H72.2529L72.0978 193.665V193.434C72.0978 193.203 72.0978 192.895 72.1754 192.664C72.1754 192.125 72.2529 191.509 72.2529 190.97C72.3304 189.815 72.3305 188.583 72.408 187.274C72.4855 184.733 72.6405 181.96 72.718 178.957C72.9507 173.028 73.1832 166.483 73.3383 159.475C73.3383 158.089 73.4158 156.781 73.4158 155.471C73.4158 154.162 73.4933 152.853 73.4933 151.467C74.1135 124.67 74.2685 104.032 73.2607 104.032C72.7956 104.032 72.3304 109.192 71.8653 117.662C71.4002 126.133 70.935 137.991 70.5473 151.39C70.5473 152.776 70.4698 154.085 70.4698 155.394C70.4698 156.703 70.3924 158.012 70.3924 159.398C70.2373 166.406 70.0822 173.028 70.0047 178.88C70.0047 181.806 69.9271 184.579 69.9271 187.197C69.9271 189.969 69.9271 192.587 69.9271 194.897C70.5473 195.205 71.1676 195.513 71.7878 195.821C72.1754 196.052 72.6405 196.207 73.0281 196.437C73.8034 196.822 74.5786 197.207 75.2764 197.515C76.6718 198.208 77.9122 198.747 78.8425 199.209C80.8581 200.057 81.9435 200.518 82.0986 200.287Z" fill="#1B1B1B"/>
<path d="M168.074 186.58C168.616 186.58 168.616 180.805 168.384 171.411C168.151 162.016 167.608 148.926 166.833 134.063C166.756 132.601 166.678 131.138 166.6 129.675C166.523 128.211 166.446 126.748 166.367 125.285C165.98 119.125 165.67 113.195 165.36 107.728C164.972 101.953 164.662 96.6399 164.352 91.9423C163.034 91.7113 161.794 91.4033 160.631 91.1723C159.701 91.0183 158.848 90.7873 157.996 90.6333C157.142 90.4792 156.289 90.3252 155.514 90.1712C155.127 90.0942 154.739 90.0172 154.351 89.9402C154.197 89.9402 153.964 89.8632 153.809 89.8632H153.576C152.646 88.7852 151.793 87.8611 151.095 87.0141C150.32 86.0901 149.623 85.3971 149.003 84.781C147.839 83.626 147.142 83.01 146.987 83.164C146.832 83.241 147.296 84.088 148.227 85.4741C148.692 86.1671 149.234 87.0142 150.01 87.9382C150.398 88.4002 150.708 88.9392 151.173 89.4782C151.405 89.7862 151.561 90.0172 151.793 90.3252C151.871 90.4793 152.026 90.6333 152.103 90.7873C152.259 91.0183 152.491 91.2493 152.646 91.4803C155.359 92.1733 158.538 92.9434 162.181 93.8674C162.181 94.0986 162.181 93.8674 162.181 94.6373C162.181 95.177 162.259 95.7928 162.259 96.4086C162.337 97.5641 162.337 98.7957 162.414 100.027C162.491 102.492 162.647 105.11 162.724 107.882C162.957 113.35 163.267 119.202 163.5 125.439C163.577 126.902 163.654 128.365 163.732 129.828C163.81 131.292 163.887 132.755 163.965 134.218C164.739 149.002 165.593 162.093 166.367 171.487C167.143 180.882 167.608 186.658 168.074 186.58Z" fill="#1B1B1B"/>
<path d="M147.142 83.0869C146.134 83.0869 145.668 85.9361 145.514 89.7093C145.514 89.8633 145.514 90.0943 145.514 90.2483C145.514 90.4023 145.514 90.6333 145.514 90.7873C145.514 94.5603 145.824 97.487 146.832 97.487C147.762 97.487 148.305 94.6374 148.46 90.8643C148.46 90.7103 148.46 90.4793 148.46 90.3253C148.46 90.1713 148.46 89.9403 148.46 89.7863C148.46 86.0131 148.072 83.0869 147.142 83.0869Z" fill="#1B1B1B"/>
<path d="M77.7572 102.108C77.9898 103.109 92.0218 99.6437 110.007 94.7924C110.938 94.5611 111.791 94.3308 112.721 94.0224C113.651 93.7913 114.504 93.5603 115.434 93.2523C133.42 88.247 147.219 84.0888 146.909 83.0877C146.677 82.1637 132.645 85.5519 114.659 90.4031C113.729 90.6341 112.876 90.8652 111.945 91.1732C111.015 91.4042 110.163 91.6352 109.232 91.9432C91.2465 96.9482 77.5246 101.184 77.7572 102.108Z" fill="#1B1B1B"/>
<path d="M163.19 92.9435C162.88 91.9424 148.072 95.7158 128.846 101.106C127.916 101.414 126.907 101.645 125.978 101.953C125.048 102.184 124.04 102.492 123.109 102.723C103.96 108.19 89.3084 112.734 89.6184 113.734C89.851 114.581 104.736 110.885 123.962 105.573C124.892 105.264 125.9 105.033 126.83 104.725C127.761 104.494 128.768 104.186 129.699 103.955C148.847 98.4874 163.5 93.8675 163.19 92.9435Z" fill="#1B1B1B"/>
<path d="M168.074 186.581C167.763 185.58 163.654 186.35 158.383 187.736C158.15 187.813 157.84 187.89 157.607 187.967C157.375 188.044 157.065 188.121 156.832 188.198C151.638 189.738 147.685 191.278 147.995 192.278C148.227 193.126 152.413 192.51 157.685 191.047C157.917 190.97 158.227 190.893 158.46 190.816C158.693 190.738 159.003 190.661 159.235 190.585C164.429 189.121 168.305 187.504 168.074 186.581Z" fill="#1B1B1B"/>
<path d="M83.494 150.311L132.334 136.912L132.18 146.307L93.9599 157.087L90.0837 152.853L83.494 150.311Z" fill="#1B1B1B"/>
<path d="M97.2156 219.768C98.2237 219.691 97.991 207.14 97.2156 190.815C97.1384 189.968 97.1384 189.198 97.0611 188.351C96.9829 187.504 96.9829 186.734 96.9057 185.887C95.9758 169.562 94.8904 157.01 93.8823 157.087C92.952 157.164 93.1071 169.717 93.8823 186.041C93.9599 186.888 93.9599 187.658 94.0374 188.505C94.1149 189.352 94.1149 190.122 94.1925 190.969C95.1231 207.294 96.2857 219.846 97.2156 219.768Z" fill="#1B1B1B"/>
<path d="M93.9598 157.088C94.7349 156.395 93.1846 154.162 90.7814 151.621C90.6263 151.467 90.5488 151.391 90.3937 151.236C90.2387 151.082 90.1612 151.005 90.0061 150.851C89.7736 150.621 89.541 150.389 89.3859 150.235C88.9983 150.158 88.6882 150.081 88.3005 150.081C88.068 150.081 87.9129 150.004 87.7579 150.004C87.3703 149.927 86.9827 149.927 86.6726 149.927C85.9748 149.85 85.3546 149.85 84.812 149.85C83.8041 149.927 83.1064 150.158 83.0289 150.621C82.9514 151.082 83.4941 151.467 84.4244 151.929C84.8895 152.161 85.5097 152.314 86.1299 152.545C86.44 152.622 86.8276 152.776 87.2152 152.853C87.3703 152.931 87.6029 152.931 87.7579 153.008C87.9129 153.008 87.8354 153.008 87.8354 153.008C87.9129 153.161 88.068 153.238 88.1456 153.392C88.3005 153.546 88.3781 153.623 88.5332 153.778C91.0915 156.165 93.2622 157.782 93.9598 157.088Z" fill="#1B1B1B"/>
<path d="M97.2156 219.769C97.4483 219.615 96.9056 218.383 95.6658 216.381C95.0449 215.38 94.2695 214.147 93.3396 212.685C92.8745 211.992 92.4092 211.222 91.8667 210.452C91.634 210.066 91.324 209.682 91.0138 209.219C90.5487 208.603 90.0835 207.91 89.6184 207.217C88.223 207.602 86.6725 208.065 85.122 208.526C84.5018 208.68 83.804 208.912 83.1838 209.066C83.0288 209.066 83.0288 209.066 82.9513 209.143V208.989C82.9513 208.449 83.0288 207.833 83.0288 207.294C83.1064 205.986 83.1064 204.676 83.1838 203.367C83.2614 200.672 83.3389 197.823 83.4164 194.896C83.4164 193.819 83.494 192.741 83.494 191.662C83.494 190.585 83.5715 189.506 83.5715 188.428C84.0366 167.021 84.0366 150.543 83.0288 150.543C82.0985 150.543 81.1682 166.944 80.5481 188.351C80.5481 189.429 80.4705 190.508 80.4705 191.585C80.4705 192.664 80.393 193.742 80.393 194.819C80.3154 201.365 80.1604 207.449 80.0828 212.839C81.4008 212.453 82.6411 211.992 83.8816 211.606C84.5793 211.376 85.1994 211.145 85.8197 210.99C86.4399 210.76 87.0601 210.606 87.6803 210.375L88.1455 210.22C88.3004 210.143 88.4555 210.143 88.4555 210.143L88.6881 210.066C88.6881 209.99 89.5409 211.067 90.0835 211.76C90.7038 212.53 91.2464 213.223 91.7891 213.917C92.8745 215.226 93.7272 216.381 94.5022 217.305C96.053 218.999 96.9829 219.923 97.2156 219.769Z" fill="#1B1B1B"/>
<path d="M146.444 205.909C147.452 205.832 147.064 190.585 146.134 170.795C146.057 169.794 146.057 168.793 145.978 167.869C145.901 166.868 145.901 165.943 145.824 164.943C145.591 160.785 145.358 156.858 145.126 153.238C144.816 149.234 144.583 145.615 144.35 142.381C143.73 142.227 143.188 142.15 142.568 141.995C142.18 141.918 141.87 141.841 141.482 141.764C140.863 141.688 140.242 141.534 139.699 141.457C139.156 141.38 138.536 141.225 138.071 141.148C137.838 141.071 137.528 141.071 137.297 140.994H137.141C137.064 140.994 137.064 140.994 137.064 140.994H136.908C136.831 140.994 136.443 140.455 136.133 140.147C135.823 139.84 135.513 139.531 135.28 139.224C134.738 138.607 134.272 138.145 133.808 137.76C132.955 136.99 132.49 136.682 132.334 136.76C132.18 136.837 132.412 137.452 133.032 138.377C133.342 138.838 133.73 139.454 134.118 140.071C134.35 140.378 134.583 140.764 134.815 141.148C135.126 141.534 135.28 141.841 135.823 142.611C136.831 142.92 137.994 143.228 139.234 143.535C139.777 143.69 140.397 143.844 141.017 143.998L141.482 144.151C141.637 144.151 141.87 144.228 141.87 144.228L142.102 144.305C142.102 144.382 142.102 144.46 142.102 144.537C142.102 144.921 142.102 145.307 142.102 145.692C142.102 146.462 142.18 147.309 142.18 148.155C142.258 149.85 142.335 151.544 142.335 153.392C142.491 157.011 142.645 161.015 142.878 165.173C142.955 166.175 142.955 167.176 143.033 168.1C143.11 169.1 143.11 170.102 143.188 171.026C144.273 190.739 145.514 205.909 146.444 205.909Z" fill="#1B1B1B"/>
<path d="M132.412 136.605C131.404 136.605 130.939 138.53 130.784 141.071C130.784 141.225 130.784 141.303 130.784 141.457C130.784 141.611 130.784 141.688 130.784 141.841C130.784 144.383 131.172 146.308 132.18 146.385C133.11 146.385 133.652 144.46 133.808 141.918C133.808 141.764 133.808 141.688 133.808 141.534C133.808 141.38 133.808 141.303 133.808 141.148C133.808 138.607 133.342 136.605 132.412 136.605Z" fill="#1B1B1B"/>
<path d="M136.288 145.152L136.366 141.688L142.181 143.228L136.288 145.152Z" fill="#E2E2E2"/>
<path d="M85.9749 149.311C86.2074 150.312 95.6658 148.155 107.682 144.921C108.302 144.768 108.922 144.614 109.465 144.46C110.085 144.305 110.628 144.151 111.248 143.998C123.264 140.61 132.49 137.683 132.18 136.76C131.947 135.835 122.566 137.914 110.473 141.148C109.853 141.303 109.232 141.457 108.689 141.611C108.069 141.764 107.527 141.918 106.907 142.073C94.8904 145.461 85.7422 148.464 85.9749 149.311Z" fill="#1B1B1B"/>
<path d="M143.188 143.227C142.878 142.226 132.955 144.613 120.085 148.232C119.465 148.386 118.767 148.617 118.147 148.772C117.527 148.925 116.907 149.156 116.209 149.31C103.418 153.006 93.6498 156.163 93.8823 157.165C94.1149 158.012 104.116 155.702 116.985 152.159C117.605 152.006 118.303 151.775 118.923 151.62C119.543 151.466 120.164 151.236 120.861 151.082C133.73 147.308 143.42 144.075 143.188 143.227Z" fill="#1B1B1B"/>
<path d="M146.444 205.908C146.134 204.907 136.211 207.295 123.341 210.913C122.721 211.067 122.023 211.299 121.403 211.453C120.783 211.606 120.164 211.837 119.465 211.992C106.674 215.687 96.9056 218.844 97.1383 219.846C97.3711 220.693 107.372 218.383 120.241 214.84C120.861 214.687 121.559 214.456 122.179 214.302C122.799 214.147 123.42 213.917 124.117 213.763C136.986 210.066 146.677 206.755 146.444 205.908Z" fill="#1B1B1B"/>
<path d="M88.6881 151.621C87.6803 151.621 87.3702 163.094 87.4477 177.956C87.4477 178.726 87.4477 179.419 87.4477 180.189C87.4477 180.959 87.4477 181.652 87.4477 182.422C87.6028 197.284 88.1455 208.758 89.1533 208.758C90.0836 208.758 90.4712 197.284 90.3937 182.422C90.3937 181.652 90.3937 180.959 90.3937 180.189C90.3937 179.419 90.3937 178.726 90.3937 177.956C90.1611 163.017 89.6184 151.543 88.6881 151.621Z" fill="#1B1B1B"/>
<path d="M128.691 161.169C128.148 161.169 127.683 163.787 126.907 168.023C126.52 170.179 126.133 172.72 125.435 175.569C125.125 176.955 124.737 178.418 124.194 179.804C123.73 181.113 122.877 182.191 121.713 182.961C121.481 183.115 121.249 183.27 121.016 183.347L120.628 183.5L120.241 183.654C120.008 183.731 119.698 183.808 119.388 183.808C119.078 183.885 118.845 183.885 118.536 183.885C117.062 183.962 115.667 183.577 114.504 182.961C114.194 182.807 113.961 182.654 113.729 182.422L113.341 182.114C113.186 182.037 113.186 181.883 113.109 181.807C113.031 181.73 112.953 181.652 112.876 181.498L112.643 181.113C112.488 180.882 112.333 180.574 112.256 180.267C111.791 179.034 111.481 177.725 111.248 176.493C111.015 175.261 110.86 174.106 110.783 173.028C110.317 168.716 110.163 166.097 109.62 166.02C109.155 166.02 108.612 168.639 108.612 173.104C108.612 174.26 108.689 175.492 108.767 176.801C108.922 178.11 109.155 179.573 109.62 181.113C109.774 181.498 109.853 181.883 110.085 182.268L110.395 182.884C110.473 183.115 110.705 183.27 110.86 183.5C111.481 184.347 112.256 184.887 113.031 185.425C114.659 186.35 116.675 186.888 118.69 186.811C119.078 186.811 119.543 186.734 119.931 186.658C120.318 186.581 120.706 186.504 121.093 186.35L121.713 186.195L122.256 185.964C122.644 185.811 123.031 185.58 123.341 185.348C123.807 185.117 124.194 184.732 124.582 184.424C124.969 184.04 125.279 183.654 125.59 183.27C126.21 182.5 126.676 181.575 126.907 180.728C127.528 179.111 127.838 177.494 128.071 176.031C128.614 173.104 128.845 170.41 129.001 168.253C129.388 163.864 129.156 161.169 128.691 161.169Z" fill="#1B1B1B"/>
<path d="M139.467 62.527C139.699 62.681 139.932 62.681 140.242 62.604C140.553 62.527 140.94 62.45 141.327 62.527C141.638 62.604 141.87 62.7581 141.948 62.9891C141.948 63.0661 141.948 63.1431 141.948 63.3741C141.87 63.6051 141.792 63.9131 141.638 64.2211C141.56 64.3751 141.482 64.4521 141.405 64.6061C141.327 64.7602 141.25 64.8372 141.173 64.9912L141.095 65.1452L141.017 65.2222L140.94 65.1452C140.863 64.9912 140.707 64.9142 140.63 64.7602C140.474 64.5291 140.32 64.3751 140.242 64.2211C140.01 63.9131 139.932 63.6051 139.932 63.2971C139.699 62.9891 139.699 62.681 139.467 62.527C139.312 62.373 139.002 62.373 138.614 62.681C138.226 62.9891 137.839 63.7591 137.994 64.6061C137.994 65.0682 138.149 65.5302 138.382 65.9922C138.536 66.2232 138.614 66.3772 138.692 66.6082L138.769 66.7622L138.925 66.9932C139.002 67.1472 139.156 67.3012 139.312 67.4552C139.854 68.0712 140.63 68.4562 141.482 68.3022C141.87 68.2252 142.258 68.0712 142.645 67.7632C142.801 67.6092 143.033 67.4552 143.188 67.3012L143.42 67.0702L143.576 66.9162C143.73 66.7622 143.886 66.5312 144.04 66.3002C144.196 66.0692 144.273 65.8382 144.429 65.6072C144.739 64.9912 144.894 64.3751 144.971 63.6821C145.049 62.9891 144.816 62.142 144.429 61.526C143.576 60.2939 142.025 60.0629 141.173 60.3709C140.242 60.6789 139.854 61.218 139.622 61.603C139.235 62.065 139.235 62.373 139.467 62.527Z" fill="#1B1B1B"/>
<path d="M92.3319 80.2379C92.5645 80.3919 92.7971 80.3919 93.1072 80.3149C93.4173 80.2379 93.805 80.1609 94.1926 80.2379C94.5022 80.3149 94.735 80.4689 94.8132 80.7C94.8132 80.777 94.8132 80.854 94.8132 81.085C94.735 81.316 94.6577 81.624 94.5022 81.932C94.425 82.086 94.3477 82.163 94.2705 82.317C94.1926 82.471 94.115 82.5481 94.0375 82.7021L93.9599 82.8561L93.8824 82.9331L93.805 82.8561C93.7274 82.7021 93.5723 82.6251 93.4948 82.471C93.3398 82.24 93.1847 82.086 93.1072 81.932C92.8746 81.624 92.7971 81.316 92.7971 81.008C92.5645 80.6999 92.5645 80.3919 92.3319 80.2379C92.1769 80.0839 91.8668 80.0839 91.4792 80.3919C91.0916 80.7 90.704 81.47 90.859 82.317C90.859 82.7791 91.014 83.2411 91.2466 83.7031C91.4016 83.9341 91.4792 84.0881 91.5567 84.3191L91.6342 84.4731L91.7893 84.7042C91.8668 84.8582 92.0218 85.0122 92.1769 85.1662C92.7196 85.7822 93.4948 86.1672 94.3477 86.0132C94.735 85.9362 95.1231 85.7822 95.5103 85.4742C95.6658 85.3202 95.8985 85.1662 96.053 85.0122L96.2857 84.7812L96.4412 84.6272C96.5957 84.4732 96.7512 84.2421 96.9057 84.0111C97.0611 83.7801 97.1384 83.5491 97.2938 83.3181C97.6038 82.7021 97.7583 82.086 97.8365 81.393C97.9138 80.6999 97.681 79.8529 97.2938 79.2369C96.4412 78.0048 94.8904 77.7738 94.0375 78.0818C93.1072 78.3898 92.7196 78.9289 92.487 79.3139C92.0994 79.8529 92.1769 80.1609 92.3319 80.2379Z" fill="#A8A8A8"/>
<path d="M151.173 73.9234C151.406 74.0774 151.638 74.0774 151.949 74.0004C152.259 73.9234 152.646 73.8464 153.034 73.9234C153.344 74.0004 153.576 74.1544 153.654 74.3854C153.654 74.4624 153.654 74.5395 153.654 74.7705C153.576 75.0015 153.499 75.3095 153.344 75.6175C153.266 75.7715 153.189 75.8485 153.111 76.0025C153.034 76.1565 152.956 76.2335 152.879 76.3876L152.801 76.5416L152.723 76.6186L152.646 76.5416C152.569 76.3876 152.413 76.3105 152.336 76.1565C152.181 75.9255 152.026 75.7715 151.949 75.6175C151.716 75.3095 151.638 75.0015 151.638 74.6935C151.406 74.3854 151.406 74.0774 151.173 73.9234C151.018 73.7694 150.708 73.7694 150.321 74.0774C149.933 74.3854 149.545 75.1555 149.7 76.0025C149.7 76.4646 149.855 76.9266 150.088 77.3886C150.243 77.6196 150.321 77.7736 150.398 78.0046L150.475 78.1586L150.631 78.3897C150.708 78.5437 150.863 78.6977 151.018 78.8517C151.561 79.4677 152.336 79.8527 153.189 79.6987C153.577 79.6217 153.964 79.4677 154.351 79.1597C154.507 79.0057 154.739 78.8517 154.894 78.6977L155.127 78.4667L155.282 78.3127C155.437 78.1586 155.592 77.9276 155.747 77.6966C155.902 77.4656 155.979 77.2346 156.135 77.0036C156.445 76.3876 156.6 75.7715 156.677 75.0785C156.755 74.3854 156.522 73.5384 156.135 72.9224C155.282 71.6904 153.731 71.4594 152.879 71.7674C151.949 72.0754 151.561 72.6144 151.328 72.9994C150.941 73.5384 151.018 73.7694 151.173 73.9234Z" fill="#A8A8A8"/>
<path d="M30.2347 133.525C29.5369 132.832 27.9864 133.756 26.2809 135.372C26.2033 135.449 26.1259 135.526 26.0484 135.603C25.9708 135.681 25.8933 135.758 25.8157 135.835C24.2652 137.529 23.2574 138.992 23.9552 139.762C24.5754 140.378 26.2033 139.531 27.9089 137.913C27.9864 137.836 28.064 137.76 28.1415 137.683C28.2191 137.606 28.2965 137.529 28.374 137.452C30.0021 135.758 30.9324 134.141 30.2347 133.525Z" fill="#A8A8A8"/>
<path d="M121.093 85.1668C120.164 84.7817 119.621 85.0127 119.233 85.6288V85.7058C119.233 85.7058 119.233 85.7828 119.155 85.7828C118.923 86.3988 119.155 87.0149 120.085 87.3999C120.939 87.7849 121.559 87.4769 121.946 86.9378V86.8608C121.946 86.8608 121.946 86.7838 122.024 86.7838C122.179 86.2448 121.946 85.5518 121.093 85.1668Z" fill="#A8A8A8"/>
<path d="M70.9351 77.6975C70.2374 78.3905 70.2374 79.0065 70.6251 79.4686L70.7026 79.5456L70.7801 79.6226C71.2453 80.0076 71.8654 80.0076 72.5632 79.3146C73.1834 78.6985 73.2609 78.0055 72.8732 77.5435L72.7957 77.4665L72.7183 77.3895C72.2531 77.0045 71.6329 77.0044 70.9351 77.6975Z" fill="#A8A8A8"/>
<path d="M79.928 1.92529C79.4628 1.92529 79.0752 2.31031 78.9201 2.92634C78.7652 3.54237 78.8426 4.38942 79.1528 5.31346L79.2303 5.54447L79.3077 5.77548C79.6954 6.62253 80.3157 7.31556 80.8582 7.70057C81.4009 8.0856 81.8661 8.0856 82.2538 7.77758C82.9514 7.16156 82.5638 6.00649 82.0211 4.62042L81.9436 4.38942L81.8661 4.15841C81.3235 3.00334 80.8582 1.92529 79.928 1.92529Z" fill="#A8A8A8"/>
<path d="M133.265 15.9395C132.567 15.2464 131.637 15.5545 130.862 16.2475C130.862 16.2475 130.784 16.3245 130.784 16.4015C130.706 16.4015 130.706 16.4785 130.629 16.4785C129.932 17.3256 129.621 18.1726 130.319 18.8656C130.939 19.4817 131.87 19.2507 132.722 18.5576C132.722 18.5576 132.8 18.4806 132.8 18.4036C132.877 18.4036 132.877 18.3266 132.955 18.3266C133.652 17.4796 133.962 16.5555 133.265 15.9395Z" fill="#A8A8A8"/>
<path d="M225.752 81.9321C225.054 81.2391 224.201 81.4701 223.503 82.0861L223.426 82.1631L223.349 82.2401C222.729 82.9331 222.496 83.7802 223.193 84.4732C223.814 85.0893 224.744 84.9352 225.442 84.3192L225.519 84.2422L225.597 84.1652C226.217 83.3952 226.372 82.5481 225.752 81.9321Z" fill="#A8A8A8"/>
<path d="M164.198 15.632C163.5 14.939 163.112 14.708 162.957 14.708C162.88 14.862 163.112 15.17 163.887 15.9401C164.508 16.5561 164.972 16.8641 165.128 16.8641C165.128 16.6331 164.895 16.2481 164.198 15.632Z" fill="#A8A8A8"/>
<path d="M190.711 101.337C190.013 100.644 188.617 101.414 187.222 102.723C187.145 102.8 187.067 102.877 186.989 102.954C186.912 103.031 186.835 103.108 186.757 103.185C185.439 104.571 184.664 105.88 185.361 106.65C185.982 107.266 187.377 106.573 188.85 105.264C188.927 105.187 189.005 105.11 189.083 105.033C189.16 104.956 189.238 104.879 189.315 104.802C190.633 103.339 191.331 101.953 190.711 101.337Z" fill="#A8A8A8"/>
<path d="M116.829 30.802C116.675 30.571 115.124 31.418 112.566 33.1891C111.248 34.1132 109.697 35.2682 107.992 36.8082C106.287 38.3483 104.503 40.2734 102.875 42.7376C101.247 45.2017 100.084 48.5129 100.162 52.132C100.239 55.7512 101.635 59.5244 104.27 62.6816C105.588 64.2217 107.217 65.6848 109.077 66.7628C110.938 67.8408 113.186 68.6108 115.512 68.6878C117.837 68.7648 120.395 68.1488 122.411 66.7628C124.427 65.3768 126.055 63.3746 126.986 60.9875C127.683 59.0624 127.916 56.9833 127.528 54.9812C127.296 53.9802 126.907 52.9021 126.21 51.978C125.512 51.054 124.427 50.361 123.42 49.9759C120.861 49.1289 118.147 49.3599 115.899 50.284C113.651 51.208 111.713 52.7481 110.317 54.5192C109.62 55.3662 108.922 56.3673 108.457 57.3683C107.992 58.3694 107.604 59.3704 107.294 60.3715C106.674 62.4506 106.441 64.4527 106.364 66.4547C106.287 70.3819 106.829 74.0011 107.372 77.3123C107.992 80.6235 108.689 83.7036 109.543 86.3988C111.171 91.8661 113.031 96.0239 114.504 98.8735C115.977 101.645 116.985 103.032 117.217 102.955C117.45 102.878 116.752 101.261 115.667 98.3348C114.581 95.4852 112.953 91.25 111.635 85.8597C110.938 83.1646 110.317 80.1614 109.853 76.9273C109.387 73.6931 109 70.1509 109.155 66.5317C109.232 64.7607 109.464 62.9126 110.007 61.1415C110.55 59.3704 111.325 57.6763 112.566 56.2903C113.729 54.8272 115.279 53.6721 117.062 52.9791C118.767 52.2861 120.783 52.1321 122.411 52.7481C123.031 52.9791 123.574 53.2871 123.884 53.7491C124.272 54.2112 124.505 54.8272 124.659 55.5202C124.969 56.9063 124.815 58.4464 124.272 59.9095C123.574 61.6806 122.334 63.2976 120.861 64.2987C119.31 65.3768 117.527 65.8387 115.744 65.7617C113.961 65.6847 112.178 65.1457 110.55 64.2987C109 63.4517 107.604 62.2196 106.441 60.9105C104.193 58.2924 102.952 54.9812 102.721 51.978C102.565 48.8979 103.495 46.1257 104.813 43.8156C106.131 41.5055 107.759 39.5804 109.31 38.0403C110.86 36.5002 112.256 35.1912 113.419 34.1902C115.667 32.1111 116.907 31.033 116.829 30.802Z" fill="#1B1B1B"/>
</g>
</svg>
