<svg width="217" height="205" viewBox="0 0 217 205" fill="none" xmlns="http://www.w3.org/2000/svg">
<path d="M125 90L125.162 85L135 87.1641L125 90Z" fill="#E2E2E2"/>
<path d="M112.503 58.2541C112.733 58.4064 112.965 58.4064 113.274 58.3302C113.584 58.2541 113.969 58.1779 114.355 58.2541C114.665 58.3302 114.896 58.4827 114.974 58.7111C114.974 58.7873 114.974 58.8635 114.974 59.0919C114.896 59.3204 114.819 59.6251 114.665 59.9297C114.587 60.082 114.51 60.1582 114.433 60.3105C114.355 60.4629 114.278 60.5391 114.201 60.6914L114.124 60.8437L114.046 60.9199L113.969 60.8437C113.892 60.6914 113.738 60.6152 113.661 60.4629C113.506 60.2344 113.352 60.082 113.274 59.9297C113.043 59.6251 112.965 59.3204 112.965 59.0158C112.733 58.7111 112.733 58.4064 112.503 58.2541C112.348 58.1018 112.039 58.1018 111.652 58.4064C111.267 58.7111 110.881 59.4727 111.035 60.3105C111.035 60.7676 111.19 61.2245 111.421 61.6815C111.575 61.91 111.652 62.0623 111.73 62.2909L111.807 62.4432L111.962 62.6717C112.039 62.824 112.193 62.9763 112.348 63.1286C112.888 63.7379 113.661 64.1187 114.51 63.9664C114.896 63.8903 115.282 63.7379 115.668 63.4333C115.823 63.281 116.055 63.1286 116.209 62.9763L116.441 62.7478L116.595 62.5955C116.749 62.4432 116.904 62.2146 117.058 61.9861C117.213 61.7577 117.29 61.5292 117.445 61.3007C117.753 60.6914 117.908 60.082 117.985 59.3966C118.062 58.7111 117.83 57.8733 117.445 57.264C116.595 56.0453 115.051 55.8168 114.201 56.1215C113.274 56.4261 112.888 56.9593 112.656 57.3401C112.271 57.7971 112.271 58.1018 112.503 58.2541Z" fill="#1B1B1B"/>
<path d="M67.2875 75.2541C67.4861 75.4064 67.6847 75.4064 67.9495 75.3302C68.2142 75.2541 68.5452 75.1779 68.8761 75.2541C69.1406 75.3302 69.3392 75.4826 69.406 75.7111C69.406 75.7873 69.406 75.8635 69.406 76.0919C69.3392 76.3204 69.2733 76.6251 69.1406 76.9297C69.0746 77.082 69.0086 77.1582 68.9427 77.3105C68.8761 77.4628 68.8099 77.5391 68.7437 77.6914L68.6775 77.8437L68.6113 77.9199L68.5452 77.8437C68.479 77.6914 68.3466 77.6152 68.2804 77.4628C68.1481 77.2344 68.0157 77.082 67.9495 76.9297C67.7508 76.6251 67.6847 76.3204 67.6847 76.0158C67.4861 75.711 67.4861 75.4064 67.2875 75.2541C67.1552 75.1018 66.8904 75.1018 66.5594 75.4064C66.2285 75.7111 65.8975 76.4727 66.0299 77.3105C66.0299 77.7676 66.1623 78.2245 66.3609 78.6815C66.4932 78.91 66.5594 79.0623 66.6256 79.2908L66.6918 79.4431L66.8242 79.6717C66.8904 79.824 67.0228 79.9763 67.1552 80.1286C67.6185 80.7379 68.2804 81.1187 69.0086 80.9664C69.3392 80.8903 69.6707 80.7379 70.0013 80.4333C70.134 80.281 70.3327 80.1286 70.4646 79.9763L70.6633 79.7478L70.7961 79.5955C70.928 79.4432 71.0607 79.2146 71.1926 78.9861C71.3254 78.7577 71.3913 78.5292 71.5241 78.3007C71.7887 77.6914 71.9206 77.082 71.9874 76.3966C72.0534 75.711 71.8547 74.8733 71.5241 74.264C70.7961 73.0453 69.472 72.8168 68.7437 73.1215C67.9495 73.4261 67.6185 73.9593 67.4199 74.3401C67.089 74.8733 67.1552 75.1779 67.2875 75.2541Z" fill="#A8A8A8"/>
<path d="M123.503 69.2541C123.734 69.4064 123.965 69.4064 124.275 69.3302C124.584 69.2541 124.969 69.1779 125.356 69.2541C125.665 69.3302 125.896 69.4826 125.974 69.711C125.974 69.7872 125.974 69.8635 125.974 70.0919C125.896 70.3204 125.819 70.6251 125.665 70.9297C125.587 71.082 125.51 71.1582 125.433 71.3105C125.356 71.4628 125.278 71.539 125.201 71.6914L125.124 71.8437L125.046 71.9199L124.969 71.8437C124.892 71.6914 124.738 71.6152 124.661 71.4628C124.506 71.2343 124.352 71.082 124.275 70.9297C124.043 70.6251 123.965 70.3204 123.965 70.0158C123.734 69.711 123.734 69.4064 123.503 69.2541C123.348 69.1018 123.039 69.1018 122.653 69.4064C122.266 69.711 121.881 70.4727 122.035 71.3105C122.035 71.7676 122.19 72.2245 122.421 72.6815C122.575 72.91 122.653 73.0623 122.73 73.2908L122.807 73.4431L122.962 73.6717C123.039 73.824 123.194 73.9763 123.348 74.1286C123.888 74.7379 124.661 75.1187 125.51 74.9664C125.897 74.8903 126.282 74.7379 126.668 74.4333C126.823 74.281 127.055 74.1286 127.209 73.9763L127.44 73.7478L127.595 73.5955C127.749 73.4431 127.904 73.2146 128.058 72.9861C128.213 72.7577 128.29 72.5292 128.445 72.3007C128.753 71.6914 128.908 71.082 128.985 70.3966C129.062 69.711 128.83 68.8733 128.445 68.264C127.595 67.0453 126.051 66.8168 125.201 67.1215C124.275 67.4261 123.888 67.9593 123.656 68.3401C123.271 68.8733 123.348 69.1018 123.503 69.2541Z" fill="#A8A8A8"/>
<path d="M6.79135 126.244C6.17012 125.517 4.78968 126.487 3.27117 128.183C3.20214 128.264 3.13319 128.344 3.06415 128.425C2.99512 128.506 2.92608 128.587 2.85705 128.668C1.47661 130.446 0.579325 131.981 1.20055 132.789C1.75275 133.435 3.20214 132.546 4.72065 130.849C4.78968 130.768 4.85872 130.688 4.92775 130.608C4.99678 130.527 5.06574 130.446 5.13477 130.365C6.58425 128.587 7.4125 126.89 6.79135 126.244Z" fill="#A8A8A8"/>
<path d="M95.0238 80.1452C94.093 79.8482 93.5499 80.0264 93.1613 80.5015V80.5609C93.1613 80.5609 93.1613 80.6203 93.084 80.6203C92.8511 81.0953 93.084 81.5704 94.0147 81.8673C94.8691 82.1642 95.4896 81.9267 95.8772 81.511V81.4516C95.8772 81.4516 95.8771 81.3922 95.9554 81.3922C96.1101 80.9765 95.8772 80.4421 95.0238 80.1452Z" fill="#A8A8A8"/>
<path d="M55.1462 0C54.655 0 54.2456 0.316915 54.0818 0.823977C53.9182 1.33104 54 2.02826 54.3275 2.78885L54.4094 2.979L54.4912 3.16915C54.9007 3.86637 55.5557 4.43681 56.1287 4.75372C56.7019 5.07065 57.1931 5.07065 57.6026 4.81711C58.3394 4.31005 57.9301 3.3593 57.3569 2.2184L57.275 2.02826L57.1931 1.83811C56.6201 0.887357 56.1287 0 55.1462 0Z" fill="#A8A8A8"/>
<path d="M106.579 13.319C105.831 12.7531 104.834 13.0046 104.003 13.5705C104.003 13.5705 103.92 13.6334 103.92 13.6962C103.837 13.6962 103.837 13.7591 103.754 13.7591C103.007 14.4508 102.673 15.1424 103.422 15.7082C104.086 16.2113 105.084 16.0227 105.997 15.4567C105.997 15.4567 106.08 15.3939 106.08 15.331C106.163 15.331 106.163 15.2681 106.247 15.2681C106.994 14.5765 107.326 13.822 106.579 13.319Z" fill="#A8A8A8"/>
<path d="M195.65 76.5055C195.03 75.6799 194.273 75.9551 193.654 76.6889L193.585 76.7807L193.517 76.8724C192.966 77.698 192.76 78.7072 193.379 79.5328C193.93 80.2668 194.755 80.0832 195.375 79.3493L195.443 79.2576L195.512 79.1658C196.062 78.2485 196.2 77.2393 195.65 76.5055Z" fill="#A8A8A8"/>
<path d="M136.149 12.8571C135.51 12.2143 135.155 12 135.013 12C134.942 12.1429 135.155 12.4286 135.864 13.1429C136.432 13.7143 136.858 14 137 14C137 13.7857 136.787 13.4286 136.149 12.8571Z" fill="#A8A8A8"/>
<path d="M161.765 95.269C161.048 94.5522 159.614 95.3488 158.18 96.7025C158.101 96.7823 158.022 96.862 157.941 96.9418C157.862 97.0215 157.783 97.1003 157.702 97.1801C156.349 98.6146 155.552 99.9683 156.269 100.765C156.907 101.402 158.34 100.685 159.853 99.3313C159.932 99.2516 160.013 99.1718 160.092 99.0921C160.172 99.0123 160.252 98.9326 160.331 98.8528C161.685 97.3396 162.402 95.906 161.765 95.269Z" fill="#A8A8A8"/>
<path d="M90.7294 0.0361829C90.5837 -0.187799 89.1205 0.633467 86.707 2.35076C85.4634 3.24678 84.0003 4.36678 82.3913 5.86C80.7823 7.3533 79.0996 9.21991 77.5635 11.6092C76.0275 13.9985 74.9305 17.2091 75.0034 20.7182C75.0763 24.2275 76.3937 27.886 78.88 30.9473C80.1236 32.4406 81.6597 33.8592 83.4154 34.9045C85.171 35.9498 87.292 36.6964 89.4867 36.7711C91.6806 36.8458 94.094 36.2485 95.9963 34.9045C97.8977 33.5606 99.4338 31.6192 100.312 29.3047C100.97 27.438 101.189 25.4221 100.824 23.4808C100.605 22.5103 100.238 21.4649 99.5805 20.5689C98.9218 19.673 97.8978 19.001 96.9475 18.6276C94.5332 17.8064 91.973 18.0303 89.8521 18.9264C87.7311 19.8223 85.9026 21.3156 84.5852 23.0329C83.9274 23.8541 83.2687 24.8248 82.8304 25.7954C82.3913 26.7661 82.0251 27.7367 81.7326 28.7074C81.1477 30.7233 80.9281 32.6646 80.8552 34.6058C80.7823 38.4137 81.2944 41.923 81.8064 45.1336C82.3913 48.3441 83.0491 51.3307 83.8545 53.944C85.3905 59.2452 87.1453 63.2767 88.5356 66.0397C89.925 68.7272 90.8761 70.0718 91.0957 69.997C91.3152 69.9223 90.6565 68.3543 89.6325 65.5174C88.6085 62.7543 87.0724 58.6478 85.8288 53.4213C85.171 50.808 84.5852 47.8961 84.1469 44.7603C83.7078 41.6243 83.3425 38.1897 83.4882 34.6805C83.5611 32.9632 83.7807 31.1713 84.2927 29.454C84.8047 27.7367 85.5363 26.0941 86.707 24.7502C87.804 23.3315 89.2672 22.2115 90.949 21.5396C92.558 20.8676 94.4603 20.7183 95.9963 21.3156C96.5812 21.5396 97.0933 21.8382 97.3857 22.2862C97.752 22.7342 97.9715 23.3315 98.1173 24.0035C98.4098 25.3475 98.264 26.8408 97.752 28.2594C97.0933 29.9767 95.9234 31.5446 94.5332 32.5153C93.07 33.5606 91.3881 34.0086 89.7054 33.9339C88.0235 33.8592 86.3408 33.3365 84.8047 32.5153C83.3425 31.694 82.0251 30.4993 80.9281 29.23C78.8071 26.6914 77.6364 23.4808 77.4178 20.5689C77.2711 17.5824 78.1485 14.8944 79.3921 12.6545C80.6357 10.4146 82.1717 8.54797 83.6349 7.05466C85.0972 5.56135 86.4146 4.29212 87.5115 3.32144C89.6325 1.3055 90.8032 0.260165 90.7294 0.0361829Z" fill="#1B1B1B"/>
<mask id="mask0_512_475" style="mask-type:luminance" maskUnits="userSpaceOnUse" x="0" y="35" width="217" height="170">
<path d="M217 35H0V205H217V35Z" fill="white"/>
</mask>
<g mask="url(#mask0_512_475)">
<path d="M189.516 191.84C190.104 191.741 190.496 190.852 191.182 190.457C191.475 190.26 191.671 190.359 191.867 190.457C191.867 190.556 191.965 190.556 192.063 190.754C192.161 190.951 192.357 191.247 192.455 191.642C192.455 191.741 192.553 191.938 192.553 192.037C192.553 192.136 192.553 192.136 192.553 192.235V192.432C192.553 192.432 192.651 192.531 192.553 192.629C192.553 192.629 192.553 192.629 192.455 192.728C192.455 192.728 192.455 192.728 192.259 192.728H192.063C191.769 192.728 191.573 192.728 191.378 192.629C190.986 192.531 190.692 192.432 190.398 192.235C190.104 191.938 189.81 191.741 189.516 191.84C189.222 191.84 189.026 192.136 188.928 192.629C188.83 193.222 189.124 194.11 189.908 194.802C190.3 195.098 190.79 195.394 191.28 195.591C191.378 195.591 191.573 195.69 191.671 195.69C191.769 195.69 191.965 195.789 192.161 195.789C192.553 195.888 193.043 195.986 193.435 195.986C194.317 195.986 195.199 195.69 195.688 194.9C196.276 194.209 196.374 193.123 196.276 192.037C196.276 191.84 196.276 191.642 196.178 191.543C196.178 191.346 196.08 191.247 196.08 191.149C195.982 190.852 195.982 190.556 195.885 190.26C195.591 189.569 195.297 188.878 194.709 188.285C194.121 187.693 193.337 187.1 192.455 187.002C190.692 186.706 189.222 187.792 188.83 188.779C188.34 189.766 188.438 190.556 188.634 191.05C188.928 191.741 189.222 191.84 189.516 191.84Z" fill="#1B1B1B"/>
<path d="M192.554 186.113C192.847 186.015 192.847 185.225 192.554 184.04C192.358 182.855 191.868 181.177 192.162 179.4C192.358 178.61 192.749 177.623 193.337 177.03C193.631 176.734 194.023 176.537 194.317 176.438C194.709 176.339 195.199 176.339 195.885 176.339C196.277 176.339 196.669 176.339 197.061 176.339C197.55 176.339 198.04 176.339 198.432 176.24C199.412 176.043 200.294 175.747 201.176 175.352C202.939 174.463 204.507 173.081 205.585 171.304C205.976 170.514 206.368 169.823 206.564 168.934C206.858 168.144 206.956 167.256 206.956 166.367C206.956 164.195 206.27 162.122 205.193 160.542C204.115 158.962 202.645 157.679 200.98 156.889C199.412 156.099 197.55 155.803 196.081 156.099C194.513 156.296 193.141 156.79 192.064 157.481C189.908 158.863 188.83 160.641 188.341 161.924C187.949 163.208 188.145 163.998 188.341 164.096C188.634 164.195 189.026 163.603 189.712 162.714C190.398 161.825 191.574 160.641 193.239 159.851C195.003 159.061 197.256 158.765 199.314 159.95C201.371 161.036 203.135 163.603 203.037 166.268C203.037 166.762 202.939 167.354 202.841 167.848C202.743 168.342 202.449 168.835 202.155 169.329C201.469 170.514 200.392 171.501 199.314 172.094C198.726 172.39 198.138 172.587 197.55 172.785C196.963 172.883 196.473 172.982 195.591 172.982C194.807 172.982 193.827 172.982 192.847 173.377C191.868 173.772 191.182 174.364 190.594 175.056C189.516 176.438 189.124 177.919 189.026 179.301C188.928 180.683 189.222 181.769 189.614 182.658C189.908 183.546 190.3 184.238 190.692 184.83C191.77 185.817 192.26 186.311 192.554 186.113Z" fill="#1B1B1B"/>
<path d="M56.9791 81.9702L50.7664 80.5469L50.1452 83.6604C50.3227 88.1973 49.7902 92.6453 48.5476 96.9153C48.3701 97.449 50.4114 98.4276 53.074 99.0503C108.456 111.06 142.892 118.532 182.653 127.161C185.404 127.784 187.712 127.784 187.889 127.161C189.132 121.646 191.972 115.597 191.262 109.636C191.173 109.014 186.38 108.48 183.718 107.946C141.56 99.4951 99.2253 90.8661 56.9791 81.9702Z" fill="black"/>
<path d="M192.593 107.413C192.416 107.413 191.972 108.658 191.262 111.149C190.552 113.64 189.487 117.287 188.244 122.091C185.759 131.698 182.386 145.665 178.925 163.19C178.748 164.257 178.481 165.414 178.304 166.481C178.215 167.015 178.126 167.637 177.949 168.171C177.86 168.616 177.683 168.972 177.505 169.417C177.061 170.128 176.351 170.751 175.464 171.018C175.02 171.196 174.576 171.196 174.132 171.196C173.866 171.196 173.689 171.196 173.422 171.107L172.535 170.929C167.742 170.039 162.772 169.15 157.536 168.171C147.152 166.303 136.058 164.257 124.254 162.033C100.734 157.763 74.6409 153.048 47.0388 148.067C45.6188 147.8 44.2875 147.533 42.8675 147.355L41.8024 147.177C41.6249 147.177 41.4474 147.088 41.3587 147.088C41.2699 147.088 41.0924 147.088 41.0037 146.999C40.5599 146.821 40.1161 146.643 39.7611 146.287C39.0511 145.665 38.6073 144.775 38.6073 143.886C38.6073 143.619 38.6073 143.441 38.6961 143.174L38.8736 142.195L39.3174 140.149C40.3824 134.723 41.5362 129.208 42.6899 123.692C45.6188 109.904 48.7251 96.6488 52.009 83.9277C52.8077 80.7252 53.6065 77.6115 54.4053 74.498C54.849 72.9858 55.2041 71.3844 55.6478 69.8721C55.8253 69.0715 56.0916 68.3598 56.2691 67.5592L56.5353 66.4028C56.6241 66.047 56.7129 65.6022 56.8016 65.4243C57.1566 64.4457 58.0441 63.6451 59.0204 63.2893C59.5529 63.1114 60.0855 63.1114 60.618 63.2003L61.0617 63.2893L61.5942 63.4672L62.748 63.7341C65.6769 64.5347 68.6057 65.2464 71.5345 66.047C94.6989 72.0962 115.467 77.0779 132.863 80.992C150.258 84.9062 164.281 87.8419 173.955 89.71C178.836 90.5996 182.564 91.3112 185.138 91.756C187.712 92.2008 189.043 92.2898 189.043 92.2008C189.043 92.1119 187.8 91.6671 185.315 91.0444C182.83 90.4217 179.103 89.5321 174.31 88.3756C164.725 86.1516 150.791 82.8601 133.484 78.6791C116.177 74.4981 95.4977 69.3385 72.4221 63.1114C69.582 62.3107 66.6531 61.5101 63.6356 60.7095L62.4818 60.4426L61.9493 60.2647C61.7718 60.1757 61.5055 60.1757 61.2392 60.0868C60.263 59.9088 59.1979 59.9978 58.2216 60.2647C56.2691 60.7984 54.5828 62.3997 53.8728 64.3568C53.6953 64.8905 53.6065 65.2464 53.5178 65.6022L53.1628 66.7587C52.9852 67.5593 52.719 68.271 52.5415 69.0716C52.0977 70.5839 51.7427 72.1851 51.2989 73.6974C50.5002 76.811 49.6126 79.9245 48.8139 83.127C45.53 95.8481 42.3349 109.192 39.4061 122.98C38.2523 128.585 37.0985 134.011 36.0335 139.527L35.5897 141.573L35.4122 142.64C35.3235 143.085 35.3235 143.53 35.3235 144.063C35.4122 145.932 36.211 147.8 37.6311 148.956C38.3411 149.579 39.1398 150.024 40.0274 150.291C40.2049 150.38 40.4711 150.379 40.7374 150.468C41.0037 150.557 41.0924 150.557 41.2699 150.557L42.3349 150.735C43.755 151.002 45.0863 151.269 46.5063 151.447C74.1971 156.34 100.202 160.966 123.81 165.147C135.614 167.193 146.708 169.15 157.092 170.929C162.328 171.819 167.299 172.708 172.091 173.509L172.979 173.687C173.334 173.776 173.689 173.776 174.044 173.776C174.843 173.776 175.553 173.687 176.263 173.42C177.683 172.886 178.836 171.907 179.635 170.662C179.99 170.039 180.256 169.328 180.434 168.616C180.523 168.082 180.611 167.46 180.7 166.926C180.878 165.769 181.144 164.702 181.321 163.634C184.517 146.109 187.534 132.054 189.575 122.447C190.64 117.643 191.439 113.907 191.972 111.327C192.504 108.836 192.682 107.502 192.593 107.413Z" fill="#1B1B1B"/>
<path d="M14.2005 118.71L8.07654 118.265V133.121C9.14157 153.938 9.49658 174.754 9.23032 195.57C9.23032 198.328 11.2716 200.641 13.9342 200.73C56.2692 201.62 98.6041 202.509 140.939 203.399C143.602 203.488 145.821 201.175 145.821 198.328C145.909 171.729 145.022 145.22 143.247 118.71C143.069 115.952 140.762 113.817 138.099 113.995C96.9178 116.752 55.5592 118.354 14.2005 118.71Z" fill="white"/>
<path d="M0.26625 133.032C0.0887451 133.032 0.0887451 134.367 0.0887451 136.947C0.0887451 139.526 0.177498 143.352 0.26625 148.333C0.443755 158.208 0.62126 172.53 0.355003 190.411C0.355003 191.567 0.355003 192.635 0.26625 193.791C0.26625 194.325 0.26625 194.948 0.26625 195.57C0.26625 196.282 0.355003 196.994 0.62126 197.705C1.06502 199.129 2.0413 200.374 3.37259 201.086C3.99386 201.442 4.70388 201.709 5.50265 201.886C5.85766 201.975 6.30142 201.975 6.56768 201.975H7.45521C12.3366 202.064 17.3955 202.242 22.7206 202.331C33.2822 202.598 44.5538 202.865 56.5354 203.132C80.4098 203.666 106.858 204.199 134.993 204.822C136.413 204.822 137.833 204.911 139.253 204.911H140.318C140.495 204.911 140.673 204.911 140.85 204.911C141.117 204.911 141.294 204.911 141.56 204.911C142.537 204.822 143.424 204.555 144.223 204.021C145.82 203.132 147.063 201.531 147.507 199.663C147.595 199.218 147.684 198.773 147.684 198.239V197.172V195.037C147.684 189.432 147.684 183.828 147.595 178.135C147.329 163.99 146.885 150.379 146.087 137.214C145.909 133.922 145.732 130.63 145.465 127.428C145.377 125.827 145.288 124.225 145.11 122.624C145.022 121.823 145.022 121.023 144.933 120.222L144.844 119.066C144.844 118.71 144.844 118.354 144.755 117.731C144.4 115.685 143.069 113.817 141.294 112.928C140.407 112.483 139.341 112.216 138.365 112.127C138.099 112.127 137.833 112.127 137.655 112.127H137.123L135.791 112.394C132.774 112.572 129.756 112.75 126.739 113.017C102.953 114.529 81.6523 115.507 63.8131 116.219C45.9738 116.931 31.6847 117.376 21.8331 117.731C16.9517 117.909 13.1354 118.087 10.5615 118.176C7.98772 118.354 6.65643 118.443 6.65643 118.621C6.65643 118.71 7.98772 118.888 10.5615 118.977C13.1354 119.066 16.9517 119.155 21.9219 119.155C31.7734 119.244 46.0626 119.066 63.9018 118.71C81.7411 118.265 103.042 117.464 126.916 116.13C129.934 115.952 132.951 115.774 135.969 115.596L137.123 115.507H137.655H138.099C138.631 115.507 139.164 115.685 139.608 115.952C140.584 116.486 141.205 117.376 141.383 118.443C141.383 118.621 141.472 119.066 141.472 119.511L141.56 120.667C141.649 121.468 141.649 122.268 141.738 123.069C141.827 124.67 141.915 126.271 142.004 127.873C142.182 131.075 142.359 134.367 142.537 137.569C143.247 150.646 143.69 164.346 143.868 178.401C143.957 184.095 143.957 189.61 143.957 195.215V197.261V198.239C143.957 198.506 143.957 198.684 143.868 198.951C143.69 199.84 143.069 200.641 142.27 201.086C141.827 201.353 141.383 201.442 140.939 201.531C140.85 201.531 140.673 201.531 140.584 201.531C140.495 201.531 140.229 201.531 140.052 201.531H138.986C137.566 201.531 136.146 201.442 134.726 201.442C106.681 200.908 80.1436 200.463 56.2691 200.018C44.2875 199.84 33.0159 199.663 22.4544 199.485C17.218 199.396 12.0703 199.307 7.18895 199.307H6.30142C6.03517 199.307 5.85766 199.307 5.5914 199.218C5.14764 199.129 4.70388 198.951 4.34887 198.773C3.55009 198.328 3.01758 197.616 2.66257 196.816C2.48506 196.371 2.39631 195.926 2.39631 195.57C2.39631 195.037 2.39631 194.414 2.39631 193.88C2.39631 192.724 2.39631 191.567 2.39631 190.5C2.39631 172.619 1.8638 158.208 1.24253 148.422C0.976271 143.53 0.62126 139.704 0.443755 137.125C0.532508 134.367 0.355003 133.032 0.26625 133.032Z" fill="#1B1B1B"/>
<path d="M0.26625 133.032C0.0887451 133.032 0.0887451 134.367 0.0887451 136.947C0.0887451 139.526 0.177498 143.352 0.26625 148.333C0.443755 158.208 0.62126 172.53 0.355003 190.411C0.355003 191.567 0.355003 192.635 0.26625 193.791C0.26625 194.325 0.26625 194.948 0.26625 195.57C0.26625 196.282 0.355003 196.994 0.62126 197.705C1.06502 199.129 2.0413 200.374 3.37259 201.086C3.99386 201.442 4.70388 201.709 5.50265 201.886C5.85766 201.975 6.30142 201.975 6.56768 201.975H7.45521C12.3366 202.064 17.3955 202.242 22.7206 202.331C33.2822 202.598 44.5538 202.865 56.5354 203.132C80.4098 203.666 106.858 204.199 134.993 204.822C136.413 204.822 137.833 204.911 139.253 204.911H140.318C140.495 204.911 140.673 204.911 140.85 204.911C141.117 204.911 141.294 204.911 141.56 204.911C142.537 204.822 143.424 204.555 144.223 204.021C145.82 203.132 147.063 201.531 147.507 199.663C147.595 199.218 147.684 198.773 147.684 198.239V197.172V195.037C147.684 189.432 147.684 183.828 147.595 178.135C147.329 163.99 146.885 150.379 146.087 137.214C145.909 133.922 145.732 130.63 145.465 127.428C145.377 125.827 145.288 124.225 145.11 122.624C145.022 121.823 145.022 121.023 144.933 120.222L144.844 119.066C144.844 118.71 144.844 118.354 144.755 117.731C144.4 115.685 143.069 113.817 141.294 112.928C140.407 112.483 139.341 112.216 138.365 112.127C138.099 112.127 137.833 112.127 137.655 112.127H137.123L135.969 112.216C132.951 112.394 129.934 112.572 126.916 112.839C102.953 114.529 81.6523 115.507 63.9018 116.219C46.0626 116.931 31.7734 117.376 21.9219 117.731C17.0405 117.909 13.2241 118.087 10.6503 118.176C8.07647 118.354 6.74519 118.443 6.74519 118.621C6.74519 118.71 8.07647 118.888 10.6503 118.977C13.2241 119.066 17.0405 119.155 22.0106 119.155C31.8622 119.244 46.1513 119.066 63.9906 118.71C81.8298 118.265 103.13 117.464 127.005 116.13C130.022 115.952 133.04 115.774 136.058 115.596L137.211 115.507H137.744H138.188C138.72 115.507 139.253 115.685 139.697 115.952C140.673 116.486 141.294 117.376 141.472 118.443C141.472 118.621 141.56 119.066 141.56 119.511L141.649 120.667C141.738 121.468 141.738 122.268 141.827 123.069C141.915 124.67 142.004 126.271 142.093 127.873C142.27 131.075 142.448 134.367 142.625 137.569C143.335 150.646 143.779 164.346 143.957 178.401C144.045 184.095 144.045 189.61 144.045 195.215V197.261V198.239C144.045 198.506 144.045 198.684 143.957 198.951C143.779 199.84 143.158 200.641 142.359 201.086C141.915 201.353 141.472 201.442 141.028 201.531C140.939 201.531 140.762 201.531 140.673 201.531C140.584 201.531 140.318 201.531 140.14 201.531H139.075C137.655 201.531 136.235 201.442 134.815 201.442C106.769 200.908 80.2323 200.463 56.3579 200.018C44.3763 199.84 33.1047 199.663 22.5431 199.485C17.3067 199.396 12.1591 199.307 7.2777 199.307H6.39018C6.12392 199.307 5.94641 199.307 5.68016 199.218C5.23639 199.129 4.79263 198.951 4.43762 198.773C3.63885 198.328 3.10633 197.616 2.75132 196.816C2.57382 196.371 2.48506 195.926 2.48506 195.57C2.48506 195.037 2.48506 194.414 2.48506 193.88C2.48506 192.724 2.48506 191.567 2.48506 190.5C2.48506 172.619 1.95255 158.208 1.33128 148.422C1.06502 143.53 0.710013 139.704 0.532508 137.125C0.62126 134.367 0.355003 133.032 0.26625 133.032Z" fill="#1B1B1B"/>
<path d="M25.5608 180.714C25.5608 179.558 23.3419 179.024 20.4131 178.935C20.2356 178.935 20.1469 178.935 19.9693 178.935C19.7918 178.935 19.7031 178.935 19.5256 178.935C16.5968 178.935 14.2892 179.38 14.2892 180.536C14.2892 181.604 16.508 182.227 19.4368 182.315C19.6143 182.315 19.7031 182.315 19.8806 182.315C20.0581 182.315 20.1469 182.315 20.3244 182.315C23.3419 182.315 25.5608 181.782 25.5608 180.714Z" fill="#1B1B1B"/>
<path d="M43.3112 179.469C43.2224 178.313 40.4711 178.046 37.0098 178.224C36.8323 178.224 36.6547 178.224 36.4772 178.224C36.2997 178.224 36.1222 178.224 35.9447 178.224C32.4834 178.49 29.8208 178.935 29.8208 180.181C29.8208 181.248 32.5721 181.782 36.1222 181.693C36.2997 181.693 36.4772 181.693 36.6547 181.693C36.8323 181.693 37.0098 181.693 37.1873 181.693C40.7374 181.337 43.3999 180.537 43.3112 179.469Z" fill="#1B1B1B"/>
<path d="M62.5705 179.736C62.5705 178.579 59.7304 178.134 56.1803 178.134C56.0028 178.134 55.8253 178.134 55.6478 178.134C55.4703 178.134 55.2928 178.134 55.1153 178.134C51.4764 178.312 48.7251 178.757 48.7251 180.002C48.7251 181.07 51.5652 181.604 55.1153 181.604C55.2928 181.604 55.4703 181.604 55.6478 181.604C55.8253 181.604 56.0028 181.604 56.1803 181.604C59.8192 181.337 62.5705 180.714 62.5705 179.736Z" fill="#1B1B1B"/>
<path d="M82.0074 180.359C82.0074 179.202 78.9898 178.757 74.9959 178.668C74.8184 178.668 74.6409 178.668 74.3747 178.668C74.1972 178.668 74.0197 178.668 73.7534 178.668C69.8483 178.757 66.7419 179.202 66.7419 180.359C66.7419 181.426 69.7595 181.96 73.7534 182.049C73.9309 182.049 74.1084 182.049 74.3747 182.049C74.5522 182.049 74.7297 182.049 74.9959 182.049C78.9898 181.96 82.0074 181.426 82.0074 180.359Z" fill="#1B1B1B"/>
<path d="M14.7329 138.993C21.2119 139.348 27.6908 139.082 34.081 138.192C35.856 137.925 37.4536 139.26 37.6311 141.039L38.2524 148.333C38.4299 150.024 37.0986 151.625 35.4123 151.714C29.5546 152.159 23.7857 152.425 17.928 152.425C16.0642 152.425 14.6442 150.913 14.8217 149.045C14.9992 145.931 14.9104 142.729 14.5554 139.615" fill="#1B1B1B"/>
<path d="M20.1468 149.49C20.5018 149.756 20.8568 150.023 21.3005 150.112C22.5431 150.557 23.8744 150.112 24.8507 149.401C25.5607 148.956 27.1582 147.977 26.892 146.91C26.7145 146.198 25.8269 145.398 25.2057 145.042C23.6081 143.707 20.5905 142.551 18.993 144.597C17.7504 146.109 18.638 148.333 20.1468 149.49Z" fill="white"/>
<path d="M20.1468 149.49C20.1468 149.49 19.9693 149.312 19.6143 148.867C19.4368 148.689 19.348 148.333 19.2593 147.977C19.1705 147.622 19.1705 147.177 19.2593 146.732C19.348 146.287 19.6143 145.931 19.8806 145.753C20.1468 145.487 20.4131 145.309 20.6793 145.22C20.9456 145.131 21.2118 145.131 21.6556 145.042C22.0994 145.042 22.7206 145.131 23.2531 145.309C23.5194 145.398 23.6969 145.487 23.9632 145.576C24.2294 145.664 24.4069 145.842 24.6732 146.02C24.9394 146.198 25.2057 146.376 25.472 146.554C25.7382 146.732 25.827 146.91 25.9157 146.999H26.0045C26.0045 146.999 26.0045 147.088 26.0045 147.177C25.9157 147.355 25.827 147.533 25.6495 147.799C25.2945 148.244 24.7619 148.6 24.4069 148.956C23.9632 149.312 23.6082 149.579 23.1644 149.757C22.2769 150.112 21.4781 149.935 21.0343 149.757C20.4131 149.668 20.1468 149.401 20.1468 149.49C20.1468 149.49 20.3243 149.757 20.8568 150.023C21.3006 150.29 22.0994 150.557 23.1644 150.468C23.6969 150.468 24.3182 150.29 24.8507 150.112C25.472 149.846 26.0045 149.668 26.6257 149.223C26.892 148.956 27.247 148.778 27.602 148.333C27.7795 148.155 27.8683 147.888 27.957 147.533C28.0458 147.177 28.0458 146.821 27.957 146.465C27.7795 145.842 27.4245 145.487 27.1583 145.131C26.892 144.775 26.537 144.508 26.2707 144.152C26.0045 143.974 25.7382 143.707 25.472 143.441C25.2057 143.263 24.8507 142.996 24.5844 142.818C23.7857 142.373 22.8981 141.928 21.9219 141.839C20.9456 141.661 19.7918 141.928 18.9043 142.551C18.0167 143.174 17.573 144.063 17.4842 144.864C17.3067 145.753 17.573 146.465 17.8392 146.999C18.1055 147.533 18.4605 147.977 18.7268 148.244C18.993 148.511 19.2593 148.778 19.5255 148.956C19.8806 149.312 20.1468 149.49 20.1468 149.49Z" fill="white"/>
<path d="M13.7566 95.8474C19.6386 95.8474 24.4069 91.2274 24.4069 85.5282C24.4069 79.8291 19.6386 75.209 13.7566 75.209C7.87463 75.209 3.10632 79.8291 3.10632 85.5282C3.10632 91.2274 7.87463 95.8474 13.7566 95.8474Z" fill="white"/>
<path d="M194.723 83.1263C193.569 83.2152 193.481 87.6631 193.037 93.2675C193.037 93.5344 193.037 93.8013 192.948 94.1571C192.948 94.424 192.859 94.6909 192.859 95.0467C192.504 100.74 191.883 105.099 193.037 105.366C194.013 105.633 195.699 101.274 196.232 95.3136C196.232 95.0467 196.232 94.6909 196.321 94.424C196.321 94.1571 196.321 93.8013 196.409 93.5344C196.764 87.4852 195.788 83.0373 194.723 83.1263Z" fill="#1B1B1B"/>
<path d="M204.575 95.0468C204.663 93.8904 200.403 93.0897 194.723 92.556C194.457 92.556 194.191 92.556 193.924 92.467C193.658 92.467 193.392 92.3781 193.126 92.3781C187.445 92.0222 183.096 92.2001 183.008 93.3566C182.919 94.4241 187.179 95.3137 192.859 95.8475C193.126 95.8475 193.392 95.8475 193.658 95.9364C193.924 95.9364 194.191 96.0254 194.457 96.0254C200.137 96.2922 204.486 96.1143 204.575 95.0468Z" fill="#1B1B1B"/>
<path d="M41.1036 70.6408C40.363 71.3779 40.363 72.0331 40.7745 72.5246L40.8568 72.6065L40.939 72.6884C41.4328 73.0979 42.091 73.0979 42.8316 72.3608C43.4899 71.7055 43.5722 70.9684 43.1607 70.477L43.0784 70.3951L42.9962 70.3132C42.5025 69.9036 41.8442 69.9036 41.1036 70.6408Z" fill="#A29F9F"/>
<path d="M111.091 191.555C111.091 191.309 110.844 191.063 110.433 190.981C109.939 190.9 109.363 191.063 108.705 191.473C108.129 191.882 107.471 192.538 107.059 193.357C106.401 194.585 106.401 196.469 107.635 197.452C107.882 197.616 108.129 197.779 108.458 197.861C108.787 197.943 109.034 198.025 109.363 197.943C110.186 197.943 110.927 197.534 111.585 197.124C111.914 196.879 112.079 196.715 112.243 196.469C112.408 196.305 112.572 196.059 112.737 195.896C113.313 195.077 113.56 194.176 113.56 193.357C113.56 192.538 113.148 191.8 112.737 191.555C112.326 191.309 111.996 191.391 111.832 191.637C111.667 191.8 111.667 192.046 111.667 192.292C111.585 192.538 111.503 192.701 111.338 193.029C111.174 193.357 110.927 193.684 110.515 194.094C110.433 194.176 110.351 194.258 110.186 194.339C110.104 194.421 109.939 194.503 109.939 194.503C109.939 194.503 109.939 194.503 109.857 194.503C109.857 194.503 109.775 194.503 109.693 194.421C109.775 193.93 110.022 193.439 110.268 193.111C110.68 192.374 111.091 192.046 111.091 191.555Z" fill="#1B1B1B"/>
<path d="M131.087 186.641C131.087 186.395 130.84 186.149 130.428 186.067C129.935 185.985 129.359 186.149 128.7 186.559C128.124 186.968 127.466 187.624 127.055 188.443C126.396 189.671 126.396 191.555 127.631 192.538C127.877 192.702 128.124 192.865 128.453 192.947C128.783 193.029 129.029 193.111 129.359 193.029C130.181 193.029 130.922 192.62 131.58 192.21C131.909 191.964 132.074 191.801 132.239 191.555C132.403 191.391 132.568 191.145 132.732 190.982C133.308 190.163 133.555 189.262 133.555 188.443C133.555 187.624 133.144 186.886 132.732 186.641C132.321 186.395 131.992 186.477 131.827 186.723C131.663 186.886 131.663 187.132 131.663 187.378C131.58 187.624 131.498 187.787 131.333 188.115C131.169 188.443 130.922 188.77 130.511 189.18C130.428 189.262 130.346 189.344 130.181 189.425C130.099 189.507 129.935 189.589 129.935 189.589C129.935 189.589 129.935 189.589 129.852 189.589C129.852 189.589 129.77 189.589 129.688 189.507C129.77 189.016 130.017 188.524 130.264 188.197C130.675 187.46 131.087 187.132 131.087 186.641Z" fill="#1B1B1B"/>
</g>
</svg>
